<svg xmlns="http://www.w3.org/2000/svg" fill="none" viewBox="0 0 812 577"><g filter="url(#a)" opacity=".6"><g stroke-opacity=".9" stroke-width="14" filter="url(#b)"><path stroke="url(#c)" d="M617.44 107.48c24.96-11.24 56.46 2.18 69.22 30.5 12.76 28.3 1.09 61.8-23.87 73.04"/><path stroke="url(#d)" d="M617.44 107.48c24.96-11.24 56.46 2.18 69.22 30.5 12.76 28.3 1.09 61.8-23.87 73.04"/></g><path fill="url(#e)" stroke="url(#f)" stroke-width=".5" d="M687.02 137.8c-14.36-31.87-48.1-47.68-75.3-35.43-27.22 12.25-38.45 49.05-24.09 80.91 14.37 31.87 48.1 47.69 75.31 35.43 27.22-12.25 38.45-49.04 24.08-80.9Z"/><g filter="url(#g)"><path fill="#0A0C0E" fill-opacity=".1" d="M682.11 139.8c-12.95-28.72-43.4-43.03-68-31.96-24.6 11.08-35.04 45.19-22.09 73.92 12.95 28.73 43.4 43.04 68 31.96 24.6-11.08 35.05-45.18 22.1-73.91Z"/></g><path stroke="url(#h)" stroke-opacity=".15" d="M681.66 140.01c-12.87-28.55-43.05-42.65-67.34-31.71-24.3 10.94-34.7 44.71-21.84 73.25 12.87 28.55 43.05 42.65 67.34 31.71 24.29-10.93 34.7-44.7 21.84-73.25Z"/><g filter="url(#i)"><path fill="#57CA7A" fill-rule="evenodd" d="M651.91 146.4c-2.1-6.11-7.99-6.92-14.92-5.9l-2.08-8.66-5.27 1.26 2.03 8.44c-1.39.33-2.8.7-4.2 1.06l-2.03-8.5-5.26 1.26 2.08 8.66c-1.14.3-2.25.59-3.35.85v-.03l-7.26 1.73 1.35 5.63s3.87-1 3.82-.91c2.13-.51 3.13.56 3.59 1.59l2.37 9.86.56-.1-.55.14 3.31 13.83c.07.7-.07 1.86-1.56 2.22.09.04-3.82.9-3.82.9l.46 6.56 6.86-1.64 2.3-.53 1.46-.34 2.11 8.77 5.26-1.26-2.08-8.67c1.45-.31 2.85-.63 4.21-.96l2.07 8.63 5.27-1.26-2.1-8.75c8.73-2.62 14.39-6.33 13.15-14.84-.98-6.85-4.85-9.09-10.16-9.1 2.67-2.29 3.92-5.49 2.38-9.95Zm-2.87 20.48c1.45 6.01-8.01 8.13-12.34 9.1l-1.02.24-2.79-11.61 1.28-.33c4.4-1.16 13.4-3.54 14.87 2.6Zm-16.55-7.78c3.6-.8 11.48-2.55 10.17-8-1.34-5.6-8.84-3.6-12.5-2.61l-1.07.27 2.52 10.53.88-.2Z" clip-rule="evenodd"/></g></g><g filter="url(#j)" opacity=".6"><g stroke-opacity=".9" stroke-width="14" filter="url(#k)"><path stroke="url(#l)" d="M140.64 339.54c27.63-12.43 62.51 2.47 76.66 33.85 14.16 31.38 1.26 68.5-26.36 80.94"/><path stroke="url(#m)" d="M140.64 339.54c27.63-12.43 62.51 2.47 76.66 33.85 14.16 31.38 1.26 68.5-26.36 80.94"/></g><path fill="url(#n)" stroke="url(#o)" stroke-width=".5" d="M217.73 373.2c-15.94-35.34-53.32-52.9-83.45-39.35-30.13 13.56-42.53 54.34-26.6 89.68 15.94 35.34 53.32 52.9 83.45 39.34 30.13-13.56 42.54-54.34 26.6-89.67Z"/><g filter="url(#p)"><path fill="#0A0C0E" fill-opacity=".1" d="M212.27 375.42c-14.36-31.85-48.08-47.73-75.31-35.48-27.23 12.25-38.76 50.04-24.4 81.89 14.37 31.85 48.1 47.73 75.32 35.48 27.23-12.25 38.75-50.04 24.4-81.89Z"/></g><path stroke="url(#q)" stroke-opacity=".15" d="M211.81 375.63c-14.28-31.67-47.73-47.34-74.64-35.23-26.92 12.1-38.42 49.56-24.14 81.22 14.28 31.67 47.73 47.35 74.64 35.24 26.92-12.12 38.42-49.57 24.15-81.23Z"/><g filter="url(#r)"><path fill="#57CA7A" fill-rule="evenodd" d="M178.84 382.7c-2.33-6.77-8.85-7.67-16.53-6.54l-2.3-9.6-5.84 1.38 2.25 9.35c-1.53.37-3.09.77-4.63 1.17l-2.27-9.4-5.82 1.38 2.3 9.6c-1.25.32-2.48.64-3.69.93v-.03l-8.05 1.91 1.5 6.25s4.3-1.11 4.24-1.02c2.36-.56 3.46.63 3.97 1.77l2.63 10.94c.16-.04.38-.09.63-.11l-.62.15 3.69 15.32c.07.77-.08 2.06-1.73 2.46.1.05-4.23 1-4.23 1l.52 7.26 7.58-1.8 2.55-.59 1.62-.37 2.34 9.71 5.83-1.38-2.32-9.61c1.6-.35 3.16-.7 4.67-1.07l2.3 9.57 5.82-1.39-2.33-9.7c9.66-2.9 15.93-7 14.55-16.43-1.1-7.6-5.38-10.08-11.26-10.1 2.96-2.53 4.34-6.07 2.63-11.02Zm-3.16 22.7c1.6 6.66-8.86 9-13.65 10.07l-1.14.26-3.1-12.87 1.43-.36c4.86-1.28 14.82-3.9 16.46 2.9Zm-18.34-8.65c4-.88 12.72-2.8 11.26-8.86-1.49-6.19-9.78-3.98-13.84-2.9l-1.19.31 2.81 11.67.97-.22Z" clip-rule="evenodd"/></g></g><g filter="url(#s)" opacity=".6"><g stroke-opacity=".9" stroke-width="14" filter="url(#t)"><path stroke="url(#u)" d="M681.2 234.78c16.5 4.3 26.54 23.08 21.68 41.74-4.87 18.67-23.62 30.33-40.1 26.03"/><path stroke="url(#v)" d="M681.2 234.78c16.5 4.3 26.54 23.08 21.68 41.74-4.87 18.67-23.62 30.33-40.1 26.03"/></g><path fill="url(#w)" stroke="url(#x)" stroke-width=".5" d="M703.03 276.56c5.46-20.98-4.71-41.72-22.63-46.39-17.92-4.67-37.7 8.7-43.16 29.68-5.47 20.98 4.7 41.72 22.63 46.39 17.92 4.67 37.7-8.7 43.16-29.68Z"/><g filter="url(#y)"><path fill="#0A0C0E" fill-opacity=".1" d="M699.95 275.64c4.94-18.95-4.24-37.74-20.5-41.98-16.26-4.23-34.64 8.2-39.58 27.14-4.93 18.95 4.25 37.74 20.5 41.98 16.26 4.23 34.65-8.2 39.58-27.14Z"/></g><path stroke="url(#z)" stroke-opacity=".15" d="M699.47 275.51c4.88-18.75-4.22-37.21-20.14-41.36-15.94-4.15-34.09 8.03-38.97 26.78-4.89 18.75 4.22 37.21 20.14 41.36 15.93 4.15 34.09-8.03 38.97-26.78Z"/><g filter="url(#A)"><path fill="#57CA7A" fill-rule="evenodd" d="M682.73 267.05c1.37-3.77-1.17-6.46-4.94-8.67l2.38-5-3.05-1.44-2.31 4.86c-.8-.38-1.63-.75-2.45-1.12l2.33-4.9-3.04-1.44-2.38 5-1.95-.9.01-.01-4.2-2-1.54 3.25s2.27 1.03 2.21 1.05c1.24.59 1.3 1.5 1.12 2.17l-2.7 5.7.3.17-.31-.15-3.8 7.98c-.23.36-.75.87-1.62.46.03.06-2.2-1.05-2.2-1.05l-2.34 3.35 3.96 1.88 1.33.64.84.41-2.4 5.06 3.04 1.45 2.38-5c.82.4 1.63.8 2.42 1.17l-2.37 4.98 3.04 1.44 2.4-5.04c5.26 2.13 9.46 2.54 12.18-2.05 2.2-3.7 1.2-6.3-1.38-8.37 2.2-.06 4.05-1.12 5.04-3.88Zm-9.4 8.79c-1.64 3.47-7.05.8-9.53-.41l-.59-.29 3.18-6.7.75.34c2.59 1.15 7.88 3.51 6.2 7.06Zm-4.98-10.22c2.06 1.02 6.56 3.25 8.06.1 1.53-3.23-2.89-5.19-5.04-6.14-.25-.1-.46-.2-.63-.29l-2.89 6.08.5.25Z" clip-rule="evenodd"/></g></g><g filter="url(#B)" shape-rendering="crispEdges"><rect width="501" height="329" x="173" y="176" fill="url(#C)" rx="15"/><rect width="500" height="328" x="173.5" y="176.5" stroke="url(#D)" rx="14.5"/></g><path fill="#B9C1D9" d="M192.34 251.15c1.29 0 2.2-.9 2.2-2.17v-.01c0-1.23-.85-2.12-2.04-2.12-.58 0-1.07.23-1.35.66h-.08l.22-2.14h2.9v-.71h-3.52l-.34 3.64h.69a1.48 1.48 0 0 1 1.34-.76c.82 0 1.41.6 1.41 1.44v.01c0 .86-.58 1.46-1.42 1.46-.74 0-1.3-.48-1.37-1.09v-.03h-.76v.04c.1 1.02.94 1.78 2.12 1.78Zm3.53-.15h.76v-1.8l.45-.43 1.77 2.23h.97l-2.2-2.75 2.06-1.99h-.93l-2.05 2.07h-.07v-3.95h-.76V251ZM192.93 288h.77v-1.31h.9v-.71h-.9v-4.32h-1.15a99.62 99.62 0 0 0-2.72 4.3v.73h3.1V288Zm-2.29-2.02v-.05a81.37 81.37 0 0 1 2.24-3.54h.05v3.6h-2.29Zm5.23 2.02h.76v-1.8l.45-.43 1.77 2.23h.97l-2.2-2.75 2.06-1.99h-.93l-2.05 2.07h-.07v-3.95h-.76V288ZM192.34 325.1c1.27 0 2.2-.78 2.2-1.84 0-.9-.63-1.48-1.55-1.56v-.02c.79-.17 1.34-.7 1.34-1.48v-.01c0-.96-.8-1.64-2-1.64-1.19 0-2 .7-2.1 1.73l-.01.04h.76v-.04c.07-.65.6-1.04 1.35-1.04.77 0 1.2.38 1.2 1.05 0 .64-.52 1.1-1.28 1.1h-.76v.67h.8c.89 0 1.44.44 1.44 1.21v.01c0 .67-.56 1.14-1.4 1.14-.84 0-1.41-.43-1.48-1.06v-.04h-.76v.05c.09 1 .94 1.74 2.25 1.74Zm3.53-.1h.76v-1.8l.45-.43 1.77 2.23h.97l-2.2-2.75 2.06-1.99h-.93l-2.05 2.07h-.07v-3.95h-.76V325ZM190.39 362h4.1v-.71h-3v-.07l1.44-1.5c1.15-1.17 1.46-1.7 1.46-2.43 0-1.03-.85-1.78-1.96-1.78-1.21 0-2.08.8-2.09 1.93h.01l.76.01c0-.75.51-1.25 1.27-1.25.75 0 1.2.5 1.2 1.17 0 .56-.24.89-1.05 1.76l-2.14 2.32v.55Zm5.48 0h.76v-1.8l.45-.43 1.77 2.23h.97l-2.2-2.75 2.06-1.99h-.93l-2.05 2.07h-.07v-3.95h-.76V362ZM193.2 399h.79v-6.34h-.79l-1.69 1.21v.84l1.62-1.17h.07V399Zm2.67 0h.76v-1.8l.45-.43 1.77 2.23h.97l-2.2-2.75 2.06-1.99h-.93l-2.05 2.07h-.07v-3.95h-.76V399ZM191.28 436.15c1.43 0 2.24-1.2 2.24-3.31 0-2.1-.83-3.33-2.24-3.33-1.42 0-2.25 1.23-2.25 3.32 0 2.1.82 3.32 2.25 3.32Zm0-.7c-.93 0-1.45-.93-1.45-2.62 0-1.68.53-2.63 1.45-2.63.93 0 1.45.94 1.45 2.63 0 1.7-.51 2.63-1.45 2.63Zm4.41-2.12h-.06v-3.95h-.76V436h.75v-1.8l.46-.42 1.77 2.22h.97l-2.18-2.7 2.04-2.04h-.93l-2.06 2.07Z"/><path fill="#000" d="M217.79 224.81h4.56v-.79H219v-.07l1.6-1.66c1.27-1.31 1.62-1.9 1.62-2.7v-.01c0-1.14-.94-1.98-2.17-1.98-1.35 0-2.32.9-2.32 2.15l.85.01c0-.84.56-1.39 1.4-1.39.84 0 1.34.56 1.34 1.3 0 .62-.26.99-1.16 1.96l-2.38 2.58v.6Zm9.1 0h.86v-1.46h1v-.78h-1v-4.8h-1.27c-.99 1.47-2.07 3.19-3.02 4.78v.8h3.43v1.47Zm-2.53-2.24v-.05c.76-1.3 1.69-2.75 2.48-3.94h.06v4h-2.54Zm5.86 2.25h.88v-3.21h3.87v3.2h.88v-7.04h-.88v3.05h-3.87v-3.05h-.88v7.04Z"/><rect width="40" height="24" x="310" y="208.81" fill="#C4C4C4" rx="5"/><path fill="#000" d="M325.35 224.81h.88v-7.04h-.87l-1.88 1.35v.92l1.8-1.3h.07v6.07Zm4.49 0h.83l1.62-5.56h.06l1.62 5.56h.83l1.92-7.04h-.92l-1.4 5.73h-.06l-1.58-5.73h-.88l-1.58 5.73h-.06l-1.4-5.73h-.92l1.92 7.04ZM428.82 224.81h.88v-7.04h-.88l-1.87 1.35v.92l1.8-1.3h.07v6.07Zm3.03 0h.82v-5.38h.05l2.23 5.38h.74l2.23-5.38h.05v5.38h.82v-7.04h-1.02l-2.41 5.88h-.08l-2.41-5.88h-1.02v7.04ZM532.91 224.81h.88v-7.04h-.87l-1.88 1.35v.92l1.8-1.3h.07v6.07Zm4.97 0h.88v-3.03l2.5-4.01h-1l-1.9 3.13h-.08l-1.9-3.13h-1l2.5 4.01v3.03ZM633.44 224.81h.92l.7-2.01h2.81l.71 2.01h.92l-2.6-7.04h-.86l-2.6 7.04Zm3-5.9h.07l1.1 3.14h-2.28l1.1-3.14Zm4.24 5.9h.85v-7.35h-.85v7.35Zm2.53 0h.85v-7.35h-.85v7.35Z"/><path fill="#525766" fill-opacity=".2" d="M207 244.81h1.52v186H207zM263.31 244.81h1.52v186h-1.52zM319.62 244.81h1.52v186h-1.52zM375.93 244.81h1.52v186h-1.52zM432.24 244.81h1.52v186h-1.52zM488.55 244.81h1.52v186h-1.52zM544.86 244.81h1.52v186h-1.52zM601.17 244.81h1.52v186h-1.52z"/><path fill="#525766" fill-opacity=".2" d="M658 429.81v1H208v-1zM658 392.81v1H208v-1zM658 355.81v1H208v-1zM658 318.81v1H208v-1zM658 281.81v1H208v-1zM658 244.81v1H208v-1z"/><path fill="#525766" fill-opacity=".2" d="M657.48 244.81H659v186h-1.52z"/><path fill="url(#E)" d="M225.45 408.57H208v20.25a1 1 0 0 0 1 1h448a1 1 0 0 0 1-1v-143l-19.6 20.93a1 1 0 0 1-1.63-.25l-8.24-17.12a1 1 0 0 0-.9-.56h-28a1 1 0 0 0-.63.22l-11.66 9.55a1 1 0 0 1-.63.23h-8.58a1 1 0 0 1-.41-.1l-14.75-6.76a1 1 0 0 0-.64-.06l-14.76 3.53c-.1.03-.21.07-.3.13l-6.55 4.14a1 1 0 0 0-.3.29l-2.85 4.2c-.05.09-.12.16-.19.22l-11.24 9.36a.98.98 0 0 1-.2.13l-9.8 4.92-7.54 3.45a1 1 0 0 1-.2.07l-15.07 3.46-.15.02-14.2.98a1 1 0 0 0-.4.11l-7.23 3.8a1 1 0 0 0-.35.3l-18.63 26.38a1 1 0 0 1-.82.43h-8.51a1 1 0 0 1-.24-.03l-17.96-4.42a.99.99 0 0 0-.46 0l-8.7 1.9a1 1 0 0 0-.4.18l-20.1 15.12a1 1 0 0 0-.38.64l-2.18 13.31a1 1 0 0 1-.24.51l-4.43 4.91a1 1 0 0 1-.55.31l-21.24 4.1a1 1 0 0 0-.62.4l-8.61 11.79a1 1 0 0 1-.53.37l-5.22 1.51a1 1 0 0 1-.9-.18l-11.58-9.35a1 1 0 0 0-.63-.22h-6.11a1 1 0 0 0-.69.28l-20.01 19.09a1 1 0 0 1-.7.27h-6.73a1 1 0 0 1-.8-.39l-4.13-5.43a1 1 0 0 0-.33-.28l-6.42-3.4a1 1 0 0 0-.92 0l-10.38 5.34a1 1 0 0 1-.29.1l-12.13 2.04a1 1 0 0 1-.35 0l-12.47-2.41a1 1 0 0 1-.54-.3l-12.53-13.53a1 1 0 0 0-.53-.3l-4.7-.98a1 1 0 0 0-.88.24l-10.3 9.3a1 1 0 0 1-.68.26Z"/><path fill="#40BF6A" d="M209.91 407.58a1 1 0 0 0-.31 1.98l.31-1.98Zm15.03.99-.28-.96.28.96Zm11-9.9.25.97-.25-.97Zm22 15.55.22-.97-.22.97Zm22 0-.28-.96.27.96Zm11-5.65.03 1-.04-1Zm12.37 9.9.32-.95-.32.94Zm34.37-19.8.32-.94-.32.94Zm12.37 9.9-.1 1 .1-1Zm15.12-14.14.4.91-.4-.9Zm22-4.24.47.88-.47-.88Zm9.62-19.8.47.89-.47-.88Zm22.75-17.07.2.98-.2-.99Zm29.81 4-.42-.91.42.9Zm31.34-30.5-.12.99.12-1Zm38.97-9.5.46.88-.46-.88Zm42.04-25v-1 1Zm20.64 7-.14-1 .14 1Zm20.63-10-.13.99.13-1Zm34.4 18-.59-.82.58.81Zm21.18-20.17a1 1 0 1 0-1.1-1.67l1.1 1.67Zm-31.98.84-.1-1 .1 1Zm2.12 1.38-.95.31.95-.3Zm-418.93 119.2-.16.99h.03l.09.01.32.05 1.2.16c1.02.13 2.43.28 4.01.38 3.13.2 7.08.2 9.97-.63l-.56-1.92c-2.53.73-6.17.75-9.28.55a66.2 66.2 0 0 1-5.05-.52l-.31-.04-.08-.02h-.02l-.16.99Zm15.46.96a8.48 8.48 0 0 0 4.04-2.4c.91-1 1.5-2.13 2.02-3.12.54-1.01 1.02-1.9 1.73-2.63a6.4 6.4 0 0 1 3.18-1.74l-.5-1.94a8.4 8.4 0 0 0-4.12 2.29c-.94.97-1.53 2.1-2.06 3.09-.54 1.03-1.01 1.92-1.72 2.7a6.5 6.5 0 0 1-3.13 1.83l.56 1.92Zm10.97-9.89c2.72-.7 4.51-.28 5.92.65 1.48.97 2.64 2.59 3.91 4.56 2.48 3.84 5.24 8.9 11.7 10.35l.44-1.95c-5.51-1.23-7.86-5.45-10.45-9.48-1.26-1.95-2.62-3.92-4.5-5.15-1.95-1.3-4.34-1.73-7.52-.92l.5 1.94Zm21.53 15.56c8.23 1.84 14.4 2.29 22.49-.01l-.55-1.93c-7.66 2.18-13.47 1.78-21.5-.01l-.44 1.95Zm22.49-.01c2.75-.79 4.3-2.32 5.7-3.5 1.37-1.14 2.65-2.04 5.06-2.12l-.07-2c-3.05.1-4.76 1.32-6.28 2.6-1.49 1.25-2.7 2.45-4.96 3.1l.55 1.92Zm10.76-5.62c1.72-.06 2.78.34 3.56.92.81.6 1.4 1.47 2.04 2.57 1.25 2.14 2.6 5.06 6.42 6.35l.64-1.9c-2.98-1-3.99-3.15-5.33-5.45-.65-1.12-1.41-2.3-2.57-3.18a7.32 7.32 0 0 0-4.83-1.31l.07 2Zm12.02 9.84c4.32 1.46 7.8.46 10.75-1.73 2.87-2.13 5.27-5.4 7.56-8.52 2.33-3.18 4.55-6.19 7.13-8.1a9.05 9.05 0 0 1 8.93-1.44l.64-1.9a11.04 11.04 0 0 0-10.76 1.73c-2.87 2.13-5.27 5.42-7.56 8.53-2.33 3.17-4.55 6.18-7.13 8.1a9.05 9.05 0 0 1-8.92 1.44l-.64 1.9Zm34.37-19.8c3 1.02 4.04 2.97 5.37 5.1.66 1.06 1.4 2.19 2.53 3.09a8.64 8.64 0 0 0 4.69 1.76l.2-1.99a6.65 6.65 0 0 1-3.64-1.34 9.67 9.67 0 0 1-2.08-2.57c-1.28-2.05-2.66-4.66-6.43-5.94l-.64 1.9Zm12.59 9.95c2.73.29 4.7-.26 6.18-1.44 1.43-1.14 2.29-2.79 3.02-4.39 1.5-3.33 2.6-6.68 6.43-8.39l-.82-1.82c-4.67 2.09-6.05 6.33-7.44 9.38-.71 1.6-1.4 2.84-2.44 3.65-.97.78-2.38 1.27-4.73 1.02l-.2 2Zm15.63-14.22c3.5-1.56 7.07-1.69 10.82-1.87 3.7-.18 7.56-.42 11.24-2.4l-.95-1.76c-3.23 1.74-6.66 1.98-10.39 2.16-3.67.18-7.64.3-11.54 2.05l.82 1.82Zm22.06-4.27c2.6-1.4 3.97-3.14 4.66-5.1.67-1.88.66-3.89.67-5.69 0-1.86.02-3.51.55-5.01.52-1.44 1.54-2.81 3.74-3.99l-.94-1.76c-2.6 1.38-3.99 3.13-4.68 5.07-.67 1.88-.67 3.9-.67 5.69 0 1.86-.02 3.52-.56 5.03-.5 1.44-1.53 2.82-3.72 4l.95 1.76Zm9.62-19.79c1.51-.8 2.9-2.2 4.27-3.74 1.43-1.6 2.82-3.33 4.51-5.13 3.33-3.52 7.5-6.91 13.7-8.11l-.39-1.97c-6.77 1.32-11.3 5.04-14.76 8.7-1.7 1.81-3.23 3.7-4.55 5.18-1.37 1.54-2.55 2.68-3.72 3.3l.94 1.77Zm22.47-16.98c5.42-1.05 11.1.56 16.4 2.2 2.6.81 5.14 1.63 7.4 2.06 2.25.42 4.42.5 6.24-.34l-.84-1.81c-1.24.57-2.9.58-5.02.18-2.12-.4-4.52-1.17-7.18-2-5.24-1.62-11.4-3.42-17.38-2.26l.38 1.97Zm30.04 3.92c3.34-1.54 6.03-4.45 8.41-7.75s4.55-7.17 6.72-10.68c2.2-3.55 4.43-6.77 6.98-8.99 2.5-2.2 5.3-3.38 8.7-3l.22-1.98c-4.09-.47-7.41 1.01-10.24 3.48-2.8 2.43-5.15 5.88-7.36 9.44-2.24 3.61-4.32 7.33-6.64 10.56-2.32 3.22-4.77 5.78-7.63 7.1l.84 1.82Zm30.8-30.41c5.4.62 13.23-.73 20.66-2.73 7.46-2 14.68-4.7 18.9-6.88l-.93-1.77c-4.05 2.1-11.12 4.75-18.49 6.72-7.4 1.99-14.92 3.24-19.91 2.67l-.23 1.99Zm39.55-9.6c9.78-5.07 14.35-11.48 19.28-16.36 2.48-2.45 5.07-4.55 8.5-6.05 3.44-1.51 7.79-2.45 13.8-2.49v-2c-6.23.04-10.86 1.01-14.6 2.65-3.75 1.65-6.53 3.92-9.1 6.47-5.17 5.1-9.38 11.12-18.8 16l.92 1.77Zm41.59-24.9c1.47 0 3.04.43 4.72 1.13 1.69.7 3.4 1.64 5.17 2.58 1.75.93 3.56 1.87 5.36 2.52 1.8.64 3.66 1.02 5.51.77l-.27-1.99a9.7 9.7 0 0 1-4.56-.67 40.23 40.23 0 0 1-5.1-2.4c-1.74-.92-3.55-1.9-5.34-2.65a14.3 14.3 0 0 0-5.5-1.29v2Zm20.76 7c6-.83 8.56-3.94 10.9-6.42a12.37 12.37 0 0 1 3.64-2.93c1.38-.65 3.17-1 5.84-.65l.25-1.99c-2.96-.37-5.16-.01-6.95.83a14.29 14.29 0 0 0-4.24 3.36c-2.35 2.5-4.49 5.1-9.71 5.81l.27 1.99Zm20.38-10c2.33.3 7.12.08 11.83-.26 4.75-.34 9.56-.82 11.99-1.07l-.2-1.99c-2.43.25-7.21.73-11.93 1.06-4.77.35-9.35.54-11.44.27l-.25 1.99Zm24.9-.63c.8 2.45 2.44 7.34 4.16 11.45a37.07 37.07 0 0 0 2.6 5.24c.4.64.85 1.23 1.33 1.6.24.19.56.37.93.43.42.07.83-.02 1.18-.27l-1.17-1.63c.09-.06.21-.09.32-.07.07.01.06.03-.03-.04-.2-.16-.5-.5-.88-1.1a35.28 35.28 0 0 1-2.43-4.94 161.43 161.43 0 0 1-4.12-11.29l-1.9.63Zm10.2 18.45c4.4-3.15 6.97-6.78 9.7-10.37 2.74-3.58 5.7-7.2 10.9-10.6l-1.1-1.68c-5.5 3.6-8.6 7.43-11.38 11.07-2.79 3.64-5.18 7.01-9.29 9.95l1.17 1.63Zm-11.28-19.15c.48-.05.92.24 1.07.7l1.9-.62a3.02 3.02 0 0 0-3.18-2.07l.2 2Z"/><path fill="#B9C1D9" d="M222.34 451.81v-6.34h-.92l-2.17 5.3h-.07l-2.17-5.3h-.92v6.34h.74v-4.84h.05l2 4.84h.67l2-4.84h.05v4.84h.74Zm3.47.09c1.34 0 2.18-.93 2.18-2.45 0-1.53-.84-2.45-2.19-2.45-1.34 0-2.18.92-2.18 2.45 0 1.52.84 2.45 2.19 2.45Zm0-.68c-.9 0-1.4-.65-1.4-1.77 0-1.13.5-1.77 1.4-1.77.9 0 1.4.64 1.4 1.77 0 1.12-.5 1.77-1.4 1.77Zm3.37.6h.75v-2.8c0-.84.49-1.34 1.25-1.34.75 0 1.11.4 1.11 1.25v2.88h.76v-3.06c0-1.13-.6-1.75-1.66-1.75-.72 0-1.19.3-1.42.82h-.07v-.74h-.72v4.74Z"/><path fill="#575B66" d="M221.02 469.81h1.05v-8.45h-1.04l-2.25 1.62v1.11l2.15-1.56h.09v7.29Zm6.27.2c1.72 0 2.95-1.19 2.95-2.89v-.01c0-1.64-1.15-2.83-2.73-2.83a2.1 2.1 0 0 0-1.8.88h-.1l.28-2.86h3.88v-.94h-4.7l-.45 4.86h.91a1.97 1.97 0 0 1 1.8-1.02c1.09 0 1.88.8 1.88 1.93 0 1.15-.78 1.95-1.9 1.95-1 0-1.73-.64-1.82-1.45l-.01-.05h-1.01v.07c.12 1.35 1.25 2.37 2.82 2.37Z"/><path fill="#B9C1D9" d="M281.1 451.81v-5.62h2.04v-.72h-4.88v.72h2.05v5.63h.79Zm6.34-4.73h-.76v2.8c0 .83-.45 1.33-1.29 1.33-.75 0-1.07-.4-1.07-1.25v-2.88h-.76v3.07c0 1.12.56 1.75 1.62 1.75.72 0 1.23-.3 1.47-.83h.07v.75h.72v-4.74Zm3.31.58c.75 0 1.25.56 1.27 1.4h-2.6c.05-.84.58-1.4 1.33-1.4Zm1.25 2.93c-.2.42-.61.64-1.22.64-.8 0-1.33-.6-1.37-1.53v-.03h3.4v-.3c0-1.47-.77-2.38-2.05-2.38-1.3 0-2.13.97-2.13 2.46 0 1.5.82 2.45 2.13 2.45 1.04 0 1.78-.5 2-1.31H292Z"/><path fill="#575B66" d="M281.98 469.81h1.05v-8.45H282l-2.25 1.62v1.11l2.15-1.56h.09v7.29Zm6.49.2c1.7 0 2.95-1.22 2.95-2.9v-.02a2.73 2.73 0 0 0-2.77-2.83c-1.14 0-1.94.62-2.25 1.3h-.1v-.2c.06-1.76.69-3.26 2.22-3.26.86 0 1.45.44 1.71 1.15l.02.07h1.06l-.01-.08c-.3-1.25-1.35-2.08-2.76-2.08-2.05 0-3.26 1.69-3.26 4.57v.01c0 3.19 1.64 4.27 3.19 4.27Zm-1.93-2.92c0-1.1.84-1.9 1.93-1.9 1.1 0 1.9.8 1.9 1.92v.02c0 1.1-.86 1.95-1.92 1.95a1.93 1.93 0 0 1-1.9-1.99Z"/><path fill="#B9C1D9" d="M342 446.81h.05l1.46 5h.75l1.73-6.34h-.83l-1.26 5.16h-.05l-1.42-5.16h-.8l-1.42 5.16h-.05l-1.27-5.16h-.82l1.73 6.34h.74l1.46-5Zm6.55.85c.75 0 1.25.56 1.26 1.4h-2.6c.05-.84.58-1.4 1.34-1.4Zm1.24 2.93c-.2.42-.6.64-1.22.64-.8 0-1.33-.6-1.37-1.53v-.03h3.41v-.3c0-1.47-.78-2.38-2.06-2.38-1.3 0-2.13.97-2.13 2.46 0 1.5.82 2.45 2.13 2.45 1.04 0 1.78-.5 2-1.31h-.76Zm3.76 1.3a1.7 1.7 0 0 0 1.52-.83h.07v.75h.72v-6.61h-.76v2.63h-.06a1.62 1.62 0 0 0-1.49-.83c-1.2 0-1.99.96-1.99 2.45 0 1.49.78 2.45 1.99 2.45Zm.18-4.21c.85 0 1.39.68 1.39 1.77 0 1.1-.53 1.77-1.4 1.77-.86 0-1.38-.67-1.38-1.77s.53-1.77 1.39-1.77Z"/><path fill="#575B66" d="M343.95 469.81h1.06v-8.45h-1.05l-2.25 1.62v1.11l2.15-1.56h.1v7.29Zm3.86 0h1.1l3.76-7.47v-.98h-5.6v.94h4.53v.09l-3.8 7.43Z"/><path fill="#B9C1D9" d="M404.31 451.81v-5.62h2.04v-.72h-4.87v.72h2.04v5.63h.79Zm3.21 0h.76v-2.8c0-.8.46-1.33 1.31-1.33.72 0 1.1.41 1.1 1.25v2.88h.75v-3.06c0-1.11-.63-1.75-1.63-1.75-.73 0-1.22.3-1.46.82h-.07v-2.62h-.76v6.62Zm9.13-4.73h-.75v2.8c0 .83-.46 1.33-1.3 1.33-.75 0-1.07-.4-1.07-1.25v-2.88h-.75v3.07c0 1.12.55 1.75 1.62 1.75.72 0 1.23-.3 1.46-.83h.07v.75h.72v-4.74Z"/><path fill="#575B66" d="M405.61 469.81h1.06v-8.45h-1.05l-2.25 1.62v1.11l2.15-1.56h.1v7.29Zm6.39.15c1.8 0 3.07-1.01 3.07-2.43v-.01c0-1.04-.73-1.91-1.82-2.16v-.03c.93-.28 1.51-.99 1.51-1.88v-.01c0-1.28-1.16-2.22-2.76-2.22-1.6 0-2.77.94-2.77 2.22v.01c0 .9.59 1.6 1.51 1.88v.03a2.24 2.24 0 0 0-1.81 2.16v.01c0 1.42 1.27 2.43 3.07 2.43Zm0-5.02c-1.02 0-1.72-.58-1.72-1.4v-.01c0-.82.7-1.4 1.72-1.4s1.71.58 1.71 1.4v.01c0 .82-.7 1.4-1.71 1.4Zm0 4.1c-1.17 0-2-.66-2-1.57v-.02c0-.92.83-1.58 2-1.58s2 .66 2 1.58v.02c0 .91-.84 1.57-2 1.57Z"/><path fill="#B9C1D9" d="M461.99 451.81v-2.74h2.8v-.7H462v-2.18h3.06v-.72h-3.85v6.34h.79Zm4.26 0h.76v-2.93c0-.67.52-1.15 1.24-1.15.15 0 .42.02.48.04v-.75c-.1-.02-.25-.02-.37-.02-.63 0-1.18.32-1.32.78h-.07v-.7h-.72v4.74Zm3.45 0h.75v-4.73h-.75v4.74Zm.38-5.65a.53.53 0 0 0 0-1.05.53.53 0 0 0-.53.53c0 .29.24.52.52.52Z"/><path fill="#575B66" d="M462.2 469.81h1.05v-8.45h-1.05l-2.25 1.62v1.11l2.15-1.56h.1v7.29Zm6.26-8.65a2.85 2.85 0 0 0-2.96 2.91v.01a2.73 2.73 0 0 0 2.77 2.84c1.14 0 1.94-.62 2.25-1.31h.11v.2c-.07 1.76-.7 3.26-2.23 3.26-.86 0-1.45-.44-1.7-1.15l-.03-.06h-1.06l.02.07c.29 1.25 1.34 2.08 2.76 2.08 2.05 0 3.25-1.68 3.25-4.57 0-3.19-1.63-4.28-3.18-4.28Zm0 4.83c-1.1 0-1.9-.8-1.9-1.93v-.01c0-1.1.85-1.96 1.9-1.96 1.08 0 1.92.88 1.92 2 0 1.1-.83 1.9-1.93 1.9Z"/><path fill="#B9C1D9" d="M514.38 450.16c.08 1.1 1 1.8 2.35 1.8 1.45 0 2.37-.74 2.37-1.9 0-.93-.53-1.44-1.84-1.77l-.67-.18c-.87-.22-1.22-.5-1.22-1 0-.65.56-1.07 1.4-1.07.8 0 1.33.39 1.44 1.04h.8c-.07-1.03-.98-1.75-2.2-1.75-1.35 0-2.25.72-2.25 1.8 0 .9.5 1.42 1.64 1.71l.82.21c.87.22 1.27.56 1.27 1.1 0 .63-.63 1.1-1.49 1.1-.9 0-1.53-.43-1.63-1.1h-.8Zm7.4 1.07c-.55 0-.96-.28-.96-.76 0-.47.32-.72 1.04-.77l1.27-.09v.44c0 .68-.57 1.19-1.35 1.19Zm-.14.67c.63 0 1.15-.28 1.46-.78h.07v.7h.72v-3.25c0-.98-.65-1.57-1.8-1.57-1.01 0-1.76.5-1.86 1.26h.76c.1-.38.5-.6 1.07-.6.7 0 1.07.33 1.07.91v.43l-1.36.09c-1.1.06-1.73.55-1.73 1.4 0 .86.68 1.4 1.6 1.4Zm3.96-6.05v1.23h-.76v.63h.76v2.88c0 .9.4 1.26 1.37 1.26.15 0 .3-.02.44-.04v-.64l-.35.02c-.49 0-.7-.24-.7-.8v-2.68h1.05v-.63h-1.05v-1.23h-.76Z"/><path fill="#575B66" d="M514.4 469.81h5.47v-.94h-4v-.1l1.92-1.98c1.53-1.58 1.94-2.28 1.94-3.25v-.01c0-1.37-1.13-2.37-2.6-2.37-1.62 0-2.78 1.08-2.79 2.58h.01l1.01.01v-.01c0-1 .68-1.66 1.7-1.66.99 0 1.6.67 1.6 1.56v.01c0 .74-.32 1.18-1.4 2.35l-2.86 3.09v.73Zm10.07.2c1.87 0 3-1.7 3-4.42v-.01c0-2.72-1.13-4.42-3-4.42s-2.98 1.7-2.98 4.42v.01c0 2.72 1.11 4.43 2.98 4.43Zm0-.91c-1.21 0-1.92-1.35-1.92-3.5v-.02c0-2.16.7-3.5 1.92-3.5 1.21 0 1.94 1.34 1.94 3.5v.01c0 2.16-.73 3.5-1.94 3.5Z"/><path fill="#B9C1D9" d="M572.3 450.16c.1 1.1 1.02 1.8 2.36 1.8 1.45 0 2.37-.74 2.37-1.9 0-.93-.52-1.44-1.84-1.77l-.66-.18c-.88-.22-1.22-.5-1.22-1 0-.65.55-1.07 1.4-1.07.79 0 1.32.39 1.43 1.04h.8c-.07-1.03-.98-1.75-2.2-1.75-1.35 0-2.25.72-2.25 1.8 0 .9.5 1.42 1.65 1.71l.81.21c.87.22 1.27.56 1.27 1.1 0 .63-.63 1.1-1.48 1.1-.9 0-1.53-.43-1.63-1.1h-.8Zm9.79-3.08h-.76v2.8c0 .83-.46 1.33-1.3 1.33-.75 0-1.06-.4-1.06-1.25v-2.88h-.76v3.07c0 1.12.55 1.75 1.62 1.75.72 0 1.23-.3 1.46-.83h.08v.75h.72v-4.74Zm1.42 4.74h.76v-2.8c0-.84.48-1.34 1.24-1.34s1.12.4 1.12 1.25v2.88h.75v-3.06c0-1.13-.6-1.75-1.65-1.75-.73 0-1.2.3-1.43.82h-.07v-.74h-.72v4.74Z"/><path fill="#575B66" d="M574.47 469.81h5.47v-.94h-4v-.1l1.91-1.98c1.53-1.58 1.95-2.28 1.95-3.25v-.01c0-1.37-1.13-2.37-2.6-2.37-1.63 0-2.79 1.08-2.8 2.58h.02l1 .01.01-.01c0-1 .68-1.66 1.7-1.66.99 0 1.6.67 1.6 1.56v.01c0 .74-.33 1.18-1.4 2.35l-2.86 3.09v.73Zm9.3 0h1.06v-8.45h-1.05l-2.25 1.62v1.11l2.15-1.56h.1v7.29Z"/><path fill="#B9C1D9" d="M639.34 451.81v-6.34h-.92l-2.17 5.3h-.07l-2.17-5.3h-.92v6.34h.74v-4.84h.05l2 4.84h.67l2-4.84h.05v4.84h.74Zm3.46.09c1.35 0 2.19-.93 2.19-2.45 0-1.53-.84-2.45-2.19-2.45-1.34 0-2.18.92-2.18 2.45 0 1.52.84 2.45 2.18 2.45Zm0-.68c-.9 0-1.4-.65-1.4-1.77 0-1.13.5-1.77 1.4-1.77.9 0 1.4.64 1.4 1.77 0 1.12-.5 1.77-1.4 1.77Zm3.38.6h.75v-2.8c0-.84.49-1.34 1.25-1.34.75 0 1.11.4 1.11 1.25v2.88h.76v-3.06c0-1.13-.6-1.75-1.66-1.75-.72 0-1.19.3-1.42.82h-.07v-.74h-.72v4.74Z"/><path fill="#575B66" d="M635.2 469.81h5.47v-.94h-4v-.1l1.92-1.98c1.53-1.58 1.94-2.28 1.94-3.25v-.01c0-1.37-1.13-2.37-2.6-2.37-1.62 0-2.78 1.08-2.79 2.58h.01l1.01.01v-.01c0-1 .68-1.66 1.7-1.66 1 0 1.6.67 1.6 1.56v.01c0 .74-.32 1.18-1.4 2.35l-2.86 3.09v.73Zm7.24 0h5.48v-.94h-4.01v-.1l1.92-1.98c1.53-1.58 1.95-2.28 1.95-3.25v-.01c0-1.37-1.13-2.37-2.61-2.37-1.62 0-2.78 1.08-2.78 2.58l1.01.01.01-.01c0-1 .67-1.66 1.69-1.66 1 0 1.6.67 1.6 1.56v.01c0 .74-.32 1.18-1.4 2.35l-2.86 3.09v.73Z"/><rect width="6" height="60" x="208" y="93" fill="#27AE60" rx="3"/><path fill="#000" d="M237.73 126.13h-2.14v-2.04c-2.24-.14-4.01-.79-5.32-1.93a5.68 5.68 0 0 1-1.97-4.44h3.3c.1.93.48 1.7 1.18 2.31.71.6 1.65.97 2.81 1.11v-7.12l-1.39-.36a7.91 7.91 0 0 1-4.01-2.2 5.55 5.55 0 0 1-1.38-3.83c0-1.8.6-3.27 1.8-4.4 1.2-1.13 2.87-1.8 4.98-2v-2.15h2.14v2.15c2.03.18 3.65.84 4.88 1.99a5.92 5.92 0 0 1 1.92 4.33h-3.26a3.07 3.07 0 0 0-1.02-2.2 4.28 4.28 0 0 0-2.52-1.12v6.74l1.46.33c1.96.48 3.4 1.22 4.34 2.23a5.52 5.52 0 0 1 1.42 3.94c0 1.9-.63 3.44-1.89 4.6-1.26 1.14-3.03 1.81-5.33 2v2.06Zm3.9-8.3c0-.9-.32-1.62-.96-2.17a6.34 6.34 0 0 0-2.94-1.24v6.75c1.24-.07 2.2-.4 2.88-.98a2.96 2.96 0 0 0 1.01-2.36Zm-9.47-10.49c0 .8.29 1.48.87 2.02.59.54 1.44.93 2.56 1.16v-6.3c-1 .05-1.82.37-2.47.97a2.8 2.8 0 0 0-.96 2.15Zm22.45 6.53v-2.89h2.73c1.21 0 2.2-.33 2.96-1a3.29 3.29 0 0 0 1.14-2.59c0-1.05-.37-1.89-1.11-2.52a4.38 4.38 0 0 0-2.95-.95 4.5 4.5 0 0 0-2.99.95 3.69 3.69 0 0 0-1.26 2.63h-3.33a6.53 6.53 0 0 1 2.23-4.83c1.38-1.17 3.2-1.76 5.45-1.76 2.1 0 3.85.57 5.27 1.72a5.23 5.23 0 0 1 2.14 4.25c0 1.32-.36 2.45-1.1 3.39a4.95 4.95 0 0 1-2.93 1.82v.27c1.53.18 2.74.76 3.62 1.75a5.36 5.36 0 0 1 1.33 3.73 5.8 5.8 0 0 1-1.08 3.43 7.25 7.25 0 0 1-2.98 2.4 9.89 9.89 0 0 1-4.2.88c-2.37 0-4.3-.61-5.8-1.83a6.4 6.4 0 0 1-2.4-4.84h3.37c.11 1.09.6 1.96 1.47 2.6.87.65 2 .97 3.36.97a5.2 5.2 0 0 0 3.37-1.06 3.36 3.36 0 0 0 1.31-2.73c0-1.17-.42-2.1-1.28-2.77a5.49 5.49 0 0 0-3.5-1.02h-2.84Zm16.64 16.02h-2.38l1.46-9.26h3.51l-2.59 9.26Zm20.97-7.17c-1.57 1.22-3.62 1.83-6.13 1.83-2.5 0-4.55-.61-6.12-1.83a5.75 5.75 0 0 1-2.35-4.75 5.7 5.7 0 0 1 4.79-5.75v-.27a5.11 5.11 0 0 1-2.83-1.8 5.05 5.05 0 0 1-1.05-3.17c0-1.78.71-3.23 2.13-4.37a8.43 8.43 0 0 1 5.43-1.7c2.21 0 4.03.56 5.44 1.7a5.36 5.36 0 0 1 2.13 4.37 5 5 0 0 1-3.88 4.97v.27a5.64 5.64 0 0 1 4.8 5.73c0 1.95-.79 3.54-2.36 4.77Zm-9.66-2.17c.9.73 2.09 1.1 3.53 1.1 1.45 0 2.63-.37 3.54-1.1.9-.74 1.35-1.7 1.35-2.88 0-1.17-.45-2.13-1.36-2.87a5.4 5.4 0 0 0-3.53-1.11 5.4 5.4 0 0 0-3.53 1.1c-.9.75-1.36 1.7-1.36 2.88s.46 2.14 1.36 2.88Zm.55-10.7c.76.66 1.75.98 2.98.98s2.23-.33 2.99-.97a3.16 3.16 0 0 0 1.14-2.53c0-1.05-.38-1.9-1.14-2.56a4.4 4.4 0 0 0-2.99-.99 4.4 4.4 0 0 0-2.98.99 3.24 3.24 0 0 0-1.13 2.56c0 1.04.38 1.88 1.13 2.53Zm20.9 4.03v-2.9h2.74c1.2 0 2.2-.33 2.95-1a3.28 3.28 0 0 0 1.14-2.59c0-1.05-.37-1.89-1.1-2.52a4.38 4.38 0 0 0-2.96-.95 4.5 4.5 0 0 0-2.98.95 3.69 3.69 0 0 0-1.27 2.63h-3.33a6.53 6.53 0 0 1 2.24-4.83c1.37-1.17 3.19-1.76 5.45-1.76 2.1 0 3.85.57 5.27 1.72a5.23 5.23 0 0 1 2.14 4.25c0 1.32-.37 2.45-1.1 3.39a4.96 4.96 0 0 1-2.93 1.82v.27c1.53.18 2.74.76 3.62 1.75a5.36 5.36 0 0 1 1.33 3.73c0 1.26-.36 2.4-1.08 3.43a7.26 7.26 0 0 1-2.98 2.4 9.89 9.89 0 0 1-4.2.88c-2.37 0-4.3-.61-5.8-1.83a6.4 6.4 0 0 1-2.4-4.84h3.37c.11 1.09.6 1.96 1.46 2.6.88.65 2 .97 3.36.97a5.2 5.2 0 0 0 3.38-1.06 3.36 3.36 0 0 0 1.31-2.73c0-1.17-.43-2.1-1.28-2.77a5.49 5.49 0 0 0-3.5-1.02h-2.84Zm23.22 10.67c-2 0-3.7-.55-5.09-1.66a7.1 7.1 0 0 1-2.6-4.42h3.52c.27.92.78 1.64 1.53 2.17s1.64.8 2.68.8c1.73 0 3.07-.75 4.03-2.24.97-1.5 1.47-3.6 1.5-6.33h-.27a5.95 5.95 0 0 1-2.36 2.54c-1.03.59-2.21.89-3.55.89a7.2 7.2 0 0 1-7.42-7.52c0-2.3.76-4.19 2.28-5.66a8.13 8.13 0 0 1 5.9-2.21c1.66 0 3.13.4 4.4 1.2a8.08 8.08 0 0 1 3 3.45c.93 1.83 1.4 4.11 1.4 6.86 0 3.83-.8 6.8-2.37 8.94a7.7 7.7 0 0 1-6.58 3.19Zm.16-11.22a4.7 4.7 0 0 0 3.4-1.3 4.38 4.38 0 0 0 1.35-3.3 4.6 4.6 0 0 0-1.36-3.39 4.56 4.56 0 0 0-3.36-1.36 4.6 4.6 0 0 0-4.73 4.68c0 1.36.44 2.48 1.31 3.36.88.87 2 1.3 3.4 1.3Zm16.05 10.26a2.2 2.2 0 0 1-1.64.68 2.28 2.28 0 0 1-2.3-2.33 2.28 2.28 0 0 1 2.3-2.33 2.28 2.28 0 0 1 2.3 2.33c0 .65-.23 1.2-.66 1.65Zm12.83.96c-1.67 0-3.14-.4-4.41-1.2a8.34 8.34 0 0 1-3-3.47c-.92-1.8-1.38-4.1-1.38-6.86 0-3.83.79-6.8 2.35-8.93a7.74 7.74 0 0 1 6.6-3.18c1.98 0 3.67.55 5.07 1.65a7.03 7.03 0 0 1 2.6 4.4h-3.5a4.03 4.03 0 0 0-1.55-2.16 4.48 4.48 0 0 0-2.66-.8c-1.73 0-3.08.75-4.05 2.25-.95 1.49-1.45 3.6-1.5 6.31h.27a5.87 5.87 0 0 1 2.36-2.51c1.04-.6 2.23-.9 3.56-.9 2.15 0 3.92.71 5.31 2.13a7.36 7.36 0 0 1 2.1 5.4c0 2.3-.77 4.18-2.3 5.66a8.14 8.14 0 0 1-5.87 2.2Zm-3.41-4.44c.9.9 2.03 1.36 3.37 1.36a4.6 4.6 0 0 0 4.74-4.69 4.52 4.52 0 0 0-4.72-4.67c-1.38 0-2.51.44-3.4 1.31a4.38 4.38 0 0 0-1.35 3.3c0 1.34.45 2.47 1.36 3.39Zm23.83 4.44a8.16 8.16 0 0 1-5.53-1.88 6.59 6.59 0 0 1-2.33-4.84h3.33c.13 1.1.62 1.97 1.45 2.64.83.67 1.87 1 3.1 1 1.42 0 2.55-.43 3.42-1.28a4.55 4.55 0 0 0 1.3-3.4 4.49 4.49 0 0 0-4.66-4.75c-.96 0-1.82.21-2.58.62-.76.4-1.36.97-1.8 1.7h-3.2l1.19-12.9h13.15v3.12h-10.42l-.6 6.6h.27c1.06-1.36 2.65-2.04 4.77-2.04 2.14 0 3.9.7 5.25 2.13a7.48 7.48 0 0 1 2.04 5.43 7.5 7.5 0 0 1-2.26 5.67 8.12 8.12 0 0 1-5.9 2.18Z"/><path fill="#27AE60" d="M232.22 148h3.56c2.21 0 3.11-1.57 2.01-3.48l-.49-.85a.67.67 0 0 0-.58-.34h-5.44a.67.67 0 0 0-.58.34l-.5.85c-1.1 1.91-.2 3.48 2.02 3.48Z"/><path fill="#27AE60" d="M231.86 142.67h4.29c.26 0 .42-.28.28-.5l-.42-.74c-1.1-1.91-2.92-1.91-4.02 0l-.42.74c-.13.22.03.5.29.5Z" opacity=".4"/><path fill="#27AE60" d="M244.51 148h.88v-7.05h-.88l-1.87 1.35v.93l1.8-1.3h.07V148Zm5.27.17c1.56 0 2.5-1.42 2.5-3.7 0-2.27-.94-3.68-2.5-3.68-1.55 0-2.48 1.41-2.48 3.68 0 2.28.93 3.7 2.48 3.7Zm0-.77c-1 0-1.6-1.12-1.6-2.92v-.01c0-1.8.6-2.91 1.6-2.91 1.01 0 1.62 1.11 1.62 2.91s-.6 2.93-1.62 2.93Zm6.26.77c1.43 0 2.45-1 2.45-2.42 0-1.37-.95-2.36-2.28-2.36-.64 0-1.19.26-1.5.73h-.08l.24-2.38h3.23v-.79h-3.92l-.37 4.05h.76c.09-.16.2-.3.32-.42.3-.29.7-.43 1.17-.43.92 0 1.57.67 1.57 1.6v.02c0 .95-.64 1.62-1.58 1.62-.83 0-1.44-.54-1.52-1.21v-.04h-.85v.05c.1 1.13 1.04 1.98 2.36 1.98Zm8.46 1.59h.71c-.7-.9-1.23-2.85-1.23-4.56 0-1.7.52-3.65 1.23-4.55h-.71a7.23 7.23 0 0 0-1.39 4.55c0 1.82.44 3.3 1.39 4.56Zm3.35-5.1c.9 0 1.44-.73 1.44-1.9s-.54-1.9-1.44-1.9c-.9 0-1.44.73-1.44 1.9s.54 1.9 1.44 1.9Zm.53 3.34 4.8-7.05h-.8l-4.8 7.05h.8Zm-.53-3.92c-.48 0-.76-.5-.76-1.32 0-.83.28-1.32.76-1.32s.77.5.77 1.32c0 .83-.29 1.32-.77 1.32Zm5.05 4.01c.9 0 1.44-.73 1.44-1.9s-.54-1.9-1.44-1.9c-.9 0-1.44.73-1.44 1.9s.54 1.9 1.44 1.9Zm0-.58c-.48 0-.76-.5-.76-1.32 0-.83.28-1.31.76-1.31s.77.48.77 1.3v.01c0 .83-.29 1.32-.77 1.32Zm5.25.66c1.56 0 2.5-1.42 2.5-3.7 0-2.27-.94-3.68-2.5-3.68-1.55 0-2.48 1.41-2.48 3.68 0 2.28.93 3.7 2.48 3.7Zm0-.77c-1 0-1.6-1.12-1.6-2.92v-.01c0-1.8.6-2.91 1.6-2.91 1.01 0 1.61 1.11 1.61 2.91s-.6 2.93-1.6 2.93Zm4.25.65a.64.64 0 0 0 0-1.27.64.64 0 0 0-.63.63c0 .35.28.64.63.64Zm4.34.07c1.49 0 2.56-.84 2.56-2.02v-.01c0-.87-.62-1.6-1.52-1.8v-.03c.77-.23 1.26-.82 1.26-1.56v-.01c0-1.07-.97-1.85-2.3-1.85-1.34 0-2.3.78-2.3 1.85 0 .75.48 1.34 1.25 1.57v.02c-.9.21-1.51.94-1.51 1.8v.02c0 1.18 1.06 2.02 2.56 2.02Zm0-4.18c-.85 0-1.43-.49-1.43-1.17 0-.7.58-1.18 1.43-1.18s1.43.49 1.43 1.17v.01c0 .68-.58 1.17-1.43 1.17Zm0 3.41c-.98 0-1.67-.55-1.67-1.3v-.02c0-.77.69-1.32 1.67-1.32.97 0 1.66.55 1.66 1.32v.01c0 .76-.7 1.31-1.66 1.31Zm4.44 2.4a7.25 7.25 0 0 0 1.39-4.55c0-1.8-.43-3.29-1.39-4.55h-.71c.7.9 1.23 2.86 1.23 4.55 0 1.71-.52 3.65-1.23 4.56h.71Z"/><defs><filter id="a" width="317.76" height="326.62" x="481.11" y=".49" color-interpolation-filters="sRGB" filterUnits="userSpaceOnUse"><feFlood flood-opacity="0" result="BackgroundImageFix"/><feColorMatrix in="SourceAlpha" result="hardAlpha" values="0 0 0 0 0 0 0 0 0 0 0 0 0 0 0 0 0 0 127 0"/><feOffset dy="4"/><feGaussianBlur stdDeviation="50"/><feComposite in2="hardAlpha" operator="out"/><feColorMatrix values="0 0 0 0 0 0 0 0 0 0 0 0 0 0 0 0 0 0 0.5 0"/><feBlend in2="BackgroundImageFix" result="effect1_dropShadow_92_2600"/><feBlend in="SourceGraphic" in2="effect1_dropShadow_92_2600" result="shape"/></filter><filter id="b" width="154.3" height="190.92" x="579.57" y="61.49" color-interpolation-filters="sRGB" filterUnits="userSpaceOnUse"><feFlood flood-opacity="0" result="BackgroundImageFix"/><feGaussianBlur in="BackgroundImageFix" stdDeviation="17.5"/><feComposite in2="SourceAlpha" operator="in" result="effect1_backgroundBlur_92_2600"/><feBlend in="SourceGraphic" in2="effect1_backgroundBlur_92_2600" result="shape"/></filter><filter id="g" width="109.28" height="121.37" x="582.43" y="100.09" color-interpolation-filters="sRGB" filterUnits="userSpaceOnUse"><feFlood flood-opacity="0" result="BackgroundImageFix"/><feBlend in="SourceGraphic" in2="BackgroundImageFix" result="shape"/><feColorMatrix in="SourceAlpha" result="hardAlpha" values="0 0 0 0 0 0 0 0 0 0 0 0 0 0 0 0 0 0 127 0"/><feOffset dx="4" dy="-6"/><feGaussianBlur stdDeviation="2"/><feComposite in2="hardAlpha" k2="-1" k3="1" operator="arithmetic"/><feColorMatrix values="0 0 0 0 0.316667 0 0 0 0 0.316667 0 0 0 0 0.316667 0 0 0 0.15 0"/><feBlend in2="shape" result="effect1_innerShadow_92_2600"/><feColorMatrix in="SourceAlpha" result="hardAlpha" values="0 0 0 0 0 0 0 0 0 0 0 0 0 0 0 0 0 0 127 0"/><feOffset dx="-4" dy="6"/><feGaussianBlur stdDeviation="2"/><feComposite in2="hardAlpha" k2="-1" k3="1" operator="arithmetic"/><feColorMatrix values="0 0 0 0 0.270833 0 0 0 0 0.270833 0 0 0 0 0.270833 0 0 0 0.15 0"/><feBlend in2="effect1_innerShadow_92_2600" result="effect2_innerShadow_92_2600"/><feColorMatrix in="SourceAlpha" result="hardAlpha" values="0 0 0 0 0 0 0 0 0 0 0 0 0 0 0 0 0 0 127 0"/><feOffset dx="-4" dy="-4"/><feGaussianBlur stdDeviation="2"/><feComposite in2="hardAlpha" k2="-1" k3="1" operator="arithmetic"/><feColorMatrix values="0 0 0 0 0.270833 0 0 0 0 0.270833 0 0 0 0 0.270833 0 0 0 0.15 0"/><feBlend in2="effect2_innerShadow_92_2600" result="effect3_innerShadow_92_2600"/></filter><filter id="i" width="54.52" height="64.7" x="611.65" y="131.28" color-interpolation-filters="sRGB" filterUnits="userSpaceOnUse"><feFlood flood-opacity="0" result="BackgroundImageFix"/><feColorMatrix in="SourceAlpha" result="hardAlpha" values="0 0 0 0 0 0 0 0 0 0 0 0 0 0 0 0 0 0 127 0"/><feOffset dx="4.31" dy="1.44"/><feGaussianBlur stdDeviation="1"/><feComposite in2="hardAlpha" operator="out"/><feColorMatrix values="0 0 0 0 0 0 0 0 0 0 0 0 0 0 0 0 0 0 0.32 0"/><feBlend in2="BackgroundImageFix" result="effect1_dropShadow_92_2600"/><feBlend in="SourceGraphic" in2="effect1_dropShadow_92_2600" result="shape"/></filter><filter id="j" width="329.63" height="339.56" x=".46" y="232.14" color-interpolation-filters="sRGB" filterUnits="userSpaceOnUse"><feFlood flood-opacity="0" result="BackgroundImageFix"/><feColorMatrix in="SourceAlpha" result="hardAlpha" values="0 0 0 0 0 0 0 0 0 0 0 0 0 0 0 0 0 0 127 0"/><feOffset dy="4"/><feGaussianBlur stdDeviation="50"/><feComposite in2="hardAlpha" operator="out"/><feColorMatrix values="0 0 0 0 0 0 0 0 0 0 0 0 0 0 0 0 0 0 0.5 0"/><feBlend in2="BackgroundImageFix" result="effect1_dropShadow_92_2600"/><feBlend in="SourceGraphic" in2="effect1_dropShadow_92_2600" result="shape"/></filter><filter id="k" width="162.32" height="202.57" x="102.77" y="293.14" color-interpolation-filters="sRGB" filterUnits="userSpaceOnUse"><feFlood flood-opacity="0" result="BackgroundImageFix"/><feGaussianBlur in="BackgroundImageFix" stdDeviation="17.5"/><feComposite in2="SourceAlpha" operator="in" result="effect1_backgroundBlur_92_2600"/><feBlend in="SourceGraphic" in2="effect1_backgroundBlur_92_2600" result="shape"/></filter><filter id="p" width="120.13" height="133.65" x="102.35" y="331.8" color-interpolation-filters="sRGB" filterUnits="userSpaceOnUse"><feFlood flood-opacity="0" result="BackgroundImageFix"/><feBlend in="SourceGraphic" in2="BackgroundImageFix" result="shape"/><feColorMatrix in="SourceAlpha" result="hardAlpha" values="0 0 0 0 0 0 0 0 0 0 0 0 0 0 0 0 0 0 127 0"/><feOffset dx="4" dy="-6"/><feGaussianBlur stdDeviation="2"/><feComposite in2="hardAlpha" k2="-1" k3="1" operator="arithmetic"/><feColorMatrix values="0 0 0 0 0.316667 0 0 0 0 0.316667 0 0 0 0 0.316667 0 0 0 0.15 0"/><feBlend in2="shape" result="effect1_innerShadow_92_2600"/><feColorMatrix in="SourceAlpha" result="hardAlpha" values="0 0 0 0 0 0 0 0 0 0 0 0 0 0 0 0 0 0 127 0"/><feOffset dx="-4" dy="6"/><feGaussianBlur stdDeviation="2"/><feComposite in2="hardAlpha" k2="-1" k3="1" operator="arithmetic"/><feColorMatrix values="0 0 0 0 0.270833 0 0 0 0 0.270833 0 0 0 0 0.270833 0 0 0 0.15 0"/><feBlend in2="effect1_innerShadow_92_2600" result="effect2_innerShadow_92_2600"/><feColorMatrix in="SourceAlpha" result="hardAlpha" values="0 0 0 0 0 0 0 0 0 0 0 0 0 0 0 0 0 0 127 0"/><feOffset dx="-4" dy="-4"/><feGaussianBlur stdDeviation="2"/><feComposite in2="hardAlpha" k2="-1" k3="1" operator="arithmetic"/><feColorMatrix values="0 0 0 0 0.270833 0 0 0 0 0.270833 0 0 0 0 0.270833 0 0 0 0.15 0"/><feBlend in2="effect2_innerShadow_92_2600" result="effect3_innerShadow_92_2600"/></filter><filter id="r" width="59.71" height="71.27" x="134.26" y="365.99" color-interpolation-filters="sRGB" filterUnits="userSpaceOnUse"><feFlood flood-opacity="0" result="BackgroundImageFix"/><feColorMatrix in="SourceAlpha" result="hardAlpha" values="0 0 0 0 0 0 0 0 0 0 0 0 0 0 0 0 0 0 127 0"/><feOffset dx="4.31" dy="1.44"/><feGaussianBlur stdDeviation="1"/><feComposite in2="hardAlpha" operator="out"/><feColorMatrix values="0 0 0 0 0 0 0 0 0 0 0 0 0 0 0 0 0 0 0.32 0"/><feBlend in2="BackgroundImageFix" result="effect1_dropShadow_92_2600"/><feBlend in="SourceGraphic" in2="effect1_dropShadow_92_2600" result="shape"/></filter><filter id="s" width="275.58" height="282.45" x="535.51" y="132.01" color-interpolation-filters="sRGB" filterUnits="userSpaceOnUse"><feFlood flood-opacity="0" result="BackgroundImageFix"/><feColorMatrix in="SourceAlpha" result="hardAlpha" values="0 0 0 0 0 0 0 0 0 0 0 0 0 0 0 0 0 0 127 0"/><feOffset dy="4"/><feGaussianBlur stdDeviation="50"/><feComposite in2="hardAlpha" operator="out"/><feColorMatrix values="0 0 0 0 0 0 0 0 0 0 0 0 0 0 0 0 0 0 0.5 0"/><feBlend in2="BackgroundImageFix" result="effect1_dropShadow_92_2600"/><feBlend in="SourceGraphic" in2="effect1_dropShadow_92_2600" result="shape"/></filter><filter id="t" width="120.09" height="152.45" x="626.01" y="193.01" color-interpolation-filters="sRGB" filterUnits="userSpaceOnUse"><feFlood flood-opacity="0" result="BackgroundImageFix"/><feGaussianBlur in="BackgroundImageFix" stdDeviation="17.5"/><feComposite in2="SourceAlpha" operator="in" result="effect1_backgroundBlur_92_2600"/><feBlend in="SourceGraphic" in2="effect1_backgroundBlur_92_2600" result="shape"/></filter><filter id="y" width="70.75" height="78.77" x="634.54" y="228.83" color-interpolation-filters="sRGB" filterUnits="userSpaceOnUse"><feFlood flood-opacity="0" result="BackgroundImageFix"/><feBlend in="SourceGraphic" in2="BackgroundImageFix" result="shape"/><feColorMatrix in="SourceAlpha" result="hardAlpha" values="0 0 0 0 0 0 0 0 0 0 0 0 0 0 0 0 0 0 127 0"/><feOffset dx="4" dy="-6"/><feGaussianBlur stdDeviation="2"/><feComposite in2="hardAlpha" k2="-1" k3="1" operator="arithmetic"/><feColorMatrix values="0 0 0 0 0.316667 0 0 0 0 0.316667 0 0 0 0 0.316667 0 0 0 0.15 0"/><feBlend in2="shape" result="effect1_innerShadow_92_2600"/><feColorMatrix in="SourceAlpha" result="hardAlpha" values="0 0 0 0 0 0 0 0 0 0 0 0 0 0 0 0 0 0 127 0"/><feOffset dx="-4" dy="6"/><feGaussianBlur stdDeviation="2"/><feComposite in2="hardAlpha" k2="-1" k3="1" operator="arithmetic"/><feColorMatrix values="0 0 0 0 0.270833 0 0 0 0 0.270833 0 0 0 0 0.270833 0 0 0 0.15 0"/><feBlend in2="effect1_innerShadow_92_2600" result="effect2_innerShadow_92_2600"/><feColorMatrix in="SourceAlpha" result="hardAlpha" values="0 0 0 0 0 0 0 0 0 0 0 0 0 0 0 0 0 0 127 0"/><feOffset dx="-4" dy="-4"/><feGaussianBlur stdDeviation="2"/><feComposite in2="hardAlpha" k2="-1" k3="1" operator="arithmetic"/><feColorMatrix values="0 0 0 0 0.270833 0 0 0 0 0.270833 0 0 0 0 0.270833 0 0 0 0.15 0"/><feBlend in2="effect2_innerShadow_92_2600" result="effect3_innerShadow_92_2600"/></filter><filter id="A" width="37.16" height="41.06" x="652.25" y="248.77" color-interpolation-filters="sRGB" filterUnits="userSpaceOnUse"><feFlood flood-opacity="0" result="BackgroundImageFix"/><feColorMatrix in="SourceAlpha" result="hardAlpha" values="0 0 0 0 0 0 0 0 0 0 0 0 0 0 0 0 0 0 127 0"/><feOffset dx="4.31" dy="1.44"/><feGaussianBlur stdDeviation="1"/><feComposite in2="hardAlpha" operator="out"/><feColorMatrix values="0 0 0 0 0 0 0 0 0 0 0 0 0 0 0 0 0 0 0.32 0"/><feBlend in2="BackgroundImageFix" result="effect1_dropShadow_92_2600"/><feBlend in="SourceGraphic" in2="effect1_dropShadow_92_2600" result="shape"/></filter><filter id="B" width="589" height="441" x="129" y="136" color-interpolation-filters="sRGB" filterUnits="userSpaceOnUse"><feFlood flood-opacity="0" result="BackgroundImageFix"/><feGaussianBlur in="BackgroundImageFix" stdDeviation="20"/><feComposite in2="SourceAlpha" operator="in" result="effect1_backgroundBlur_92_2600"/><feColorMatrix in="SourceAlpha" result="hardAlpha" values="0 0 0 0 0 0 0 0 0 0 0 0 0 0 0 0 0 0 127 0"/><feMorphology in="SourceAlpha" radius="1" result="effect2_dropShadow_92_2600"/><feOffset dy="28"/><feGaussianBlur stdDeviation="22.5"/><feComposite in2="hardAlpha" operator="out"/><feColorMatrix values="0 0 0 0 0 0 0 0 0 0 0 0 0 0 0 0 0 0 0.05 0"/><feBlend in2="effect1_backgroundBlur_92_2600" result="effect2_dropShadow_92_2600"/><feBlend in="SourceGraphic" in2="effect2_dropShadow_92_2600" result="shape"/></filter><radialGradient id="c" cx="0" cy="0" r="1" gradientTransform="rotate(-166.96 363.36 27.4) scale(57.1756 48.9501)" gradientUnits="userSpaceOnUse"><stop offset=".32" stop-color="#7EC894"/><stop offset=".71" stop-color="#47A663"/><stop offset="1" stop-color="#347948"/></radialGradient><radialGradient id="d" cx="0" cy="0" r="1" gradientTransform="matrix(-16.57615265 -50.30714071 23.03677012 -7.59059276 663.17 148.87)" gradientUnits="userSpaceOnUse"><stop stop-color="#767676"/><stop offset="1" stop-color="#fff" stop-opacity="0"/></radialGradient><radialGradient id="f" cx="0" cy="0" r="1" gradientTransform="matrix(82.40529339 2.51948012 -2.17497451 71.13745866 550.07 160.2)" gradientUnits="userSpaceOnUse"><stop stop-color="#343434"/><stop offset="1" stop-color="#A4A4A4" stop-opacity="0"/></radialGradient><radialGradient id="l" cx="0" cy="0" r="1" gradientTransform="rotate(-166.9 143.52 171.63) scale(63.325 54.2219)" gradientUnits="userSpaceOnUse"><stop offset=".32" stop-color="#7EC894"/><stop offset=".71" stop-color="#47A663"/><stop offset="1" stop-color="#347948"/></radialGradient><radialGradient id="m" cx="0" cy="0" r="1" gradientTransform="matrix(-18.39786357 -55.76382333 25.4903133 -8.40988437 191.31 385.45)" gradientUnits="userSpaceOnUse"><stop stop-color="#767676"/><stop offset="1" stop-color="#fff" stop-opacity="0"/></radialGradient><radialGradient id="o" cx="0" cy="0" r="1" gradientTransform="rotate(1.8 -12626.53 2302) scale(91.2777 78.8644)" gradientUnits="userSpaceOnUse"><stop stop-color="#343434"/><stop offset="1" stop-color="#A4A4A4" stop-opacity="0"/></radialGradient><radialGradient id="u" cx="0" cy="0" r="1" gradientTransform="matrix(-21.97918748 -27.96168224 23.93520314 -18.81418696 715.5 285.17)" gradientUnits="userSpaceOnUse"><stop offset=".32" stop-color="#7EC894"/><stop offset=".71" stop-color="#47A663"/><stop offset="1" stop-color="#347948"/></radialGradient><radialGradient id="v" cx="0" cy="0" r="1" gradientTransform="rotate(-69.35 540.65 -360.34) scale(32.9109 15.1027)" gradientUnits="userSpaceOnUse"><stop stop-color="#767676"/><stop offset="1" stop-color="#fff" stop-opacity="0"/></radialGradient><radialGradient id="x" cx="0" cy="0" r="1" gradientTransform="matrix(38.98614897 33.35337153 -28.76296479 33.62050607 627.94 234.02)" gradientUnits="userSpaceOnUse"><stop stop-color="#343434"/><stop offset="1" stop-color="#A4A4A4" stop-opacity="0"/></radialGradient><linearGradient id="e" x1="697.18" x2="551.48" y1="155.06" y2="181.73" gradientUnits="userSpaceOnUse"><stop stop-color="#3D8F55"/><stop offset=".41" stop-color="#62BC7C"/><stop offset="1" stop-color="#3D8F55"/></linearGradient><linearGradient id="h" x1="571.53" x2="675.77" y1="256.12" y2="163.67" gradientUnits="userSpaceOnUse"><stop stop-color="#58CBC2" stop-opacity=".25"/><stop offset="1" stop-color="#fff" stop-opacity="0"/></linearGradient><linearGradient id="n" x1="228.96" x2="67.72" y1="392.34" y2="421.95" gradientUnits="userSpaceOnUse"><stop stop-color="#3D8F55"/><stop offset=".41" stop-color="#62BC7C"/><stop offset="1" stop-color="#3D8F55"/></linearGradient><linearGradient id="q" x1="89.95" x2="205.35" y1="504.22" y2="401.95" gradientUnits="userSpaceOnUse"><stop stop-color="#58CBC2" stop-opacity=".25"/><stop offset="1" stop-color="#fff" stop-opacity="0"/></linearGradient><linearGradient id="w" x1="701.3" x2="620.28" y1="288.89" y2="244.85" gradientUnits="userSpaceOnUse"><stop stop-color="#3D8F55"/><stop offset=".41" stop-color="#62BC7C"/><stop offset="1" stop-color="#3D8F55"/></linearGradient><linearGradient id="z" x1="600.89" x2="687.56" y1="288.78" y2="284.63" gradientUnits="userSpaceOnUse"><stop stop-color="#58CBC2" stop-opacity=".25"/><stop offset="1" stop-color="#fff" stop-opacity="0"/></linearGradient><linearGradient id="C" x1="270.85" x2="581.46" y1="176" y2="489.66" gradientUnits="userSpaceOnUse"><stop stop-color="#fff" stop-opacity=".4"/><stop offset="1" stop-color="#fff" stop-opacity=".1"/></linearGradient><linearGradient id="D" x1="266.94" x2="587.13" y1="176" y2="501.53" gradientUnits="userSpaceOnUse"><stop stop-color="#fff" stop-opacity=".4"/><stop offset="1" stop-color="#fff" stop-opacity=".2"/></linearGradient><linearGradient id="E" x1="433" x2="433" y1="289.81" y2="429.81" gradientUnits="userSpaceOnUse"><stop stop-color="#40BF6A" stop-opacity=".3"/><stop offset=".91" stop-color="#40BF6A" stop-opacity=".05"/><stop offset="1" stop-color="#40BF6A" stop-opacity="0"/></linearGradient></defs></svg>