<svg xmlns="http://www.w3.org/2000/svg" fill="none" viewBox="0 0 860 260">
  <g clip-path="url(#a)" opacity=".2">
    <path fill="#fff" d="M4.15 223.27V232H2.83v-7.4h-.05l-2.09 1.36v-1.26l2.18-1.43h1.28Zm3.31 8.81a.83.83 0 0 1-.6-.25.83.83 0 0 1-.25-.6.8.8 0 0 1 .25-.6.82.82 0 0 1 .6-.25c.24 0 .44.08.6.25a.8.8 0 0 1 .26.6.88.88 0 0 1-.43.74.81.81 0 0 1-.43.11Zm5.4-8.8V232h-1.32v-7.4h-.05l-2.09 1.36v-1.26l2.18-1.43h1.28Zm3.08 8.72v-8.73h1.32v4.17h.1l3.67-4.17h1.65l-3.52 3.93 3.54 4.8H21.1l-2.82-3.9-1.03 1.19V232h-1.32ZM42.96 260v-8.73h5.41v1.14h-4.1v2.66h3.71v1.13h-3.7v3.8h-1.32Zm7.63 0v-8.73h5.47v1.14h-4.15v2.66h3.87v1.13H51.9v2.67h4.2V260H50.6Zm7.83 0v-8.73h3.2c.62 0 1.13.1 1.53.31a2.1 2.1 0 0 1 1.22 1.98c0 .37-.07.68-.2.93-.13.24-.31.44-.54.6-.22.14-.46.25-.73.32v.08c.29.02.57.1.85.28a2 2 0 0 1 .69.73c.18.32.27.7.27 1.15 0 .45-.1.85-.31 1.2-.21.36-.53.64-.97.84-.43.2-.99.31-1.66.31h-3.35Zm1.32-1.13h1.9c.63 0 1.08-.12 1.35-.37.28-.24.41-.55.41-.91a1.43 1.43 0 0 0-.8-1.31 1.9 1.9 0 0 0-.92-.2h-1.94v2.8Zm0-3.82h1.76c.3 0 .56-.06.8-.17.24-.12.43-.28.57-.48.14-.2.2-.45.2-.73 0-.36-.12-.67-.37-.91s-.64-.37-1.16-.37h-1.8v2.66Zm14.1-3.78V260h-1.32v-7.4h-.05l-2.1 1.36v-1.26l2.19-1.43h1.28Zm6 8.87c-.67 0-1.25-.18-1.73-.53a3.28 3.28 0 0 1-1.1-1.54 6.94 6.94 0 0 1-.37-2.43c0-.94.12-1.75.38-2.42a3.3 3.3 0 0 1 1.1-1.54 2.83 2.83 0 0 1 1.72-.53c.67 0 1.24.18 1.72.54.47.35.84.86 1.1 1.53.25.67.37 1.47.37 2.42s-.12 1.76-.37 2.44a3.3 3.3 0 0 1-1.1 1.54c-.48.35-1.05.52-1.72.52Zm0-1.13c.59 0 1.05-.3 1.38-.87.34-.57.5-1.4.5-2.5 0-.72-.07-1.34-.22-1.84s-.37-.88-.66-1.14c-.28-.26-.61-.39-1-.39-.59 0-1.05.29-1.39.87a5.1 5.1 0 0 0-.5 2.5c0 .73.07 1.34.22 1.85.16.5.37.88.65 1.13.29.26.62.39 1.02.39ZM199.96 260v-8.73h5.41v1.14h-4.1v2.66h3.71v1.13h-3.7v3.8h-1.32Zm7.63 0v-8.73h5.47v1.14h-4.15v2.66h3.87v1.13h-3.87v2.67h4.2V260h-5.52Zm7.83 0v-8.73h3.2c.62 0 1.13.1 1.53.31a2.1 2.1 0 0 1 1.22 1.98c0 .37-.07.68-.2.93-.13.24-.31.44-.54.6-.22.14-.46.25-.73.32v.08c.29.02.57.1.85.28a2 2 0 0 1 .69.73c.18.32.27.7.27 1.15 0 .45-.1.85-.31 1.2-.21.36-.53.64-.97.84-.43.2-.99.31-1.66.31h-3.35Zm1.32-1.13h1.9c.63 0 1.08-.12 1.35-.37.28-.24.41-.55.41-.91a1.44 1.44 0 0 0-.8-1.31 1.9 1.9 0 0 0-.91-.2h-1.95v2.8Zm0-3.82h1.76c.3 0 .56-.06.8-.17.24-.12.43-.28.56-.48.15-.2.22-.45.22-.73 0-.36-.13-.67-.38-.91s-.64-.37-1.16-.37h-1.8v2.66Zm14.1-3.78V260h-1.32v-7.4h-.05l-2.1 1.36v-1.26l2.19-1.43h1.28Zm6.27 0V260h-1.32v-7.4h-.05l-2.09 1.36v-1.26l2.18-1.43h1.28ZM354.96 260v-8.73h5.41v1.14h-4.1v2.66h3.71v1.13h-3.7v3.8h-1.32Zm7.63 0v-8.73h5.47v1.14h-4.15v2.66h3.87v1.13h-3.87v2.67h4.2V260h-5.52Zm7.83 0v-8.73h3.2c.62 0 1.13.1 1.53.31a2.1 2.1 0 0 1 1.22 1.98c0 .37-.07.68-.2.93-.13.24-.31.44-.54.6-.22.14-.46.25-.73.32v.08c.29.02.57.1.85.28a2 2 0 0 1 .69.73c.18.32.27.7.27 1.15 0 .45-.1.85-.31 1.2-.21.36-.53.64-.97.84-.43.2-.99.31-1.66.31h-3.35Zm1.32-1.13h1.9c.63 0 1.08-.12 1.35-.37.28-.24.41-.55.41-.91a1.44 1.44 0 0 0-.8-1.31 1.9 1.9 0 0 0-.92-.2h-1.94v2.8Zm0-3.82h1.76c.3 0 .56-.06.8-.17.24-.12.43-.28.56-.48.15-.2.22-.45.22-.73 0-.36-.13-.67-.38-.91s-.64-.37-1.16-.37h-1.8v2.66Zm14.1-3.78V260h-1.32v-7.4h-.05l-2.1 1.36v-1.26l2.19-1.43h1.28Zm2.96 8.73v-.95l2.95-3.06c.32-.34.58-.63.78-.88.21-.25.37-.5.47-.72.1-.22.15-.47.15-.72 0-.3-.07-.54-.2-.75a1.34 1.34 0 0 0-.56-.5c-.24-.1-.5-.17-.8-.17-.31 0-.58.07-.82.2-.23.12-.4.3-.53.54-.13.23-.2.5-.2.81h-1.25a2.5 2.5 0 0 1 1.37-2.32 3.1 3.1 0 0 1 1.46-.33c.55 0 1.03.11 1.45.33.42.22.75.51.98.89.24.37.35.8.35 1.26 0 .32-.06.64-.18.95-.12.3-.33.65-.63 1.03s-.7.84-1.24 1.38l-1.73 1.82v.06h3.93V260h-5.75ZM511.96 260v-8.73h5.41v1.14h-4.1v2.66h3.71v1.13h-3.7v3.8h-1.32Zm7.63 0v-8.73h5.47v1.14h-4.15v2.66h3.87v1.13h-3.87v2.67h4.2V260h-5.52Zm7.83 0v-8.73h3.2c.62 0 1.13.1 1.53.31a2.1 2.1 0 0 1 1.22 1.98c0 .37-.07.68-.2.93-.13.24-.31.44-.54.6-.22.14-.46.25-.73.32v.08c.29.02.57.1.85.28a2 2 0 0 1 .69.73c.18.32.27.7.27 1.15a2.14 2.14 0 0 1-1.28 2.04c-.43.2-.99.31-1.66.31h-3.35Zm1.32-1.13h1.9c.63 0 1.08-.12 1.35-.37.28-.24.41-.55.41-.91a1.44 1.44 0 0 0-.8-1.31 1.9 1.9 0 0 0-.92-.2h-1.94v2.8Zm0-3.82h1.76c.3 0 .56-.06.8-.17.24-.12.43-.28.57-.48.14-.2.2-.45.2-.73 0-.36-.12-.67-.37-.91s-.64-.37-1.16-.37h-1.8v2.66Zm14.1-3.78V260h-1.32v-7.4h-.05l-2.1 1.36v-1.26l2.19-1.43h1.28Zm6 8.85c-.59 0-1.1-.1-1.57-.3-.46-.2-.82-.49-1.09-.84-.26-.36-.4-.78-.42-1.26h1.34c.01.26.1.49.26.68.15.19.36.33.62.43.25.1.54.16.85.16.34 0 .65-.06.91-.18.27-.12.48-.29.63-.5.15-.22.22-.47.22-.75 0-.29-.07-.55-.22-.77-.15-.22-.37-.4-.65-.53a2.5 2.5 0 0 0-1.04-.19h-.73V255h.73c.33 0 .61-.06.86-.18.25-.11.44-.28.58-.48.14-.21.2-.46.2-.74a1.24 1.24 0 0 0-.7-1.18 2 2 0 0 0-1.57-.01c-.24.1-.43.25-.59.44-.15.2-.23.42-.25.69h-1.27c.01-.47.15-.89.42-1.25a2.7 2.7 0 0 1 1.05-.83c.44-.2.93-.3 1.46-.3.56 0 1.04.1 1.45.32.41.22.73.5.95.87.22.36.33.75.33 1.18a1.9 1.9 0 0 1-1.5 1.93v.07c.58.09 1.03.32 1.35.69.32.37.48.83.47 1.38 0 .48-.13.92-.4 1.3-.26.38-.63.68-1.1.9-.45.21-.99.32-1.58.32ZM668.96 260v-8.73h5.41v1.14h-4.1v2.66h3.71v1.13h-3.7v3.8h-1.32Zm7.63 0v-8.73h5.47v1.14h-4.15v2.66h3.87v1.13h-3.87v2.67h4.2V260h-5.52Zm7.83 0v-8.73h3.2c.62 0 1.13.1 1.53.31a2.1 2.1 0 0 1 1.22 1.98c0 .37-.07.68-.2.93-.13.24-.31.44-.54.6-.22.14-.46.25-.73.32v.08c.29.02.57.1.85.28a2 2 0 0 1 .69.73c.18.32.27.7.27 1.15a2.14 2.14 0 0 1-1.28 2.04c-.43.2-.99.31-1.66.31h-3.35Zm1.32-1.13h1.9c.63 0 1.08-.12 1.35-.37.28-.24.41-.55.41-.91a1.44 1.44 0 0 0-.8-1.31 1.9 1.9 0 0 0-.92-.2h-1.94v2.8Zm0-3.82h1.76c.3 0 .56-.06.8-.17.24-.12.43-.28.57-.48.14-.2.2-.45.2-.73 0-.36-.12-.67-.37-.91s-.64-.37-1.16-.37h-1.8v2.66Zm14.1-3.78V260h-1.32v-7.4h-.05l-2.1 1.36v-1.26l2.19-1.43h1.28Zm2.78 7.03v-1.07l3.77-5.96h.84v1.57h-.53l-2.7 4.27v.07h5.17v1.12h-6.55Zm4.13 1.7v-2.03l.01-.48v-6.22h1.25V260h-1.25ZM825.96 260v-8.73h5.41v1.14h-4.1v2.66h3.71v1.13h-3.7v3.8h-1.32Zm7.63 0v-8.73h5.47v1.14h-4.15v2.66h3.87v1.13h-3.87v2.67h4.2V260h-5.52Zm7.83 0v-8.73h3.2c.62 0 1.13.1 1.53.31a2.1 2.1 0 0 1 1.22 1.98c0 .37-.07.68-.2.93-.13.24-.31.44-.54.6-.22.14-.46.25-.73.32v.08c.29.02.57.1.85.28a2 2 0 0 1 .69.73c.18.32.27.7.27 1.15a2.14 2.14 0 0 1-1.28 2.04c-.43.2-.99.31-1.66.31h-3.35Zm1.32-1.13h1.9c.63 0 1.08-.12 1.35-.37.28-.24.41-.55.41-.91a1.44 1.44 0 0 0-.8-1.31 1.9 1.9 0 0 0-.92-.2h-1.94v2.8Zm0-3.82h1.76c.3 0 .56-.06.8-.17.24-.12.43-.28.57-.48.14-.2.2-.45.2-.73 0-.36-.12-.67-.37-.91s-.64-.37-1.16-.37h-1.8v2.66Zm14.1-3.78V260h-1.32v-7.4h-.05l-2.1 1.36v-1.26l2.19-1.43h1.28Zm5.84 8.85c-.53 0-1.01-.1-1.44-.3a2.6 2.6 0 0 1-1.01-.86 2.25 2.25 0 0 1-.4-1.24h1.27c.03.38.2.69.5.93.3.24.66.36 1.08.36a1.64 1.64 0 0 0 1.5-.87c.16-.27.23-.59.23-.94s-.07-.67-.23-.95a1.7 1.7 0 0 0-.63-.65 1.8 1.8 0 0 0-.92-.25c-.27 0-.53.05-.8.14-.27.1-.48.21-.65.36l-1.2-.18.49-4.4h4.8v1.13h-3.71l-.28 2.44h.06c.16-.16.4-.3.67-.41a2.68 2.68 0 0 1 3.32 1.25 3 3 0 0 1 .36 1.5c0 .56-.13 1.07-.39 1.51-.25.44-.6.8-1.06 1.05-.46.25-.97.38-1.56.38ZM4.15 168.27V177H2.83v-7.4h-.05l-2.09 1.36v-1.26l2.18-1.43h1.28Zm3.31 8.81a.83.83 0 0 1-.6-.25.83.83 0 0 1-.25-.6.8.8 0 0 1 .25-.6.82.82 0 0 1 .6-.25c.24 0 .44.08.6.25a.8.8 0 0 1 .26.6.88.88 0 0 1-.43.74.81.81 0 0 1-.43.11Zm3.15-.08v-.96l2.95-3.05.78-.88c.2-.25.36-.5.46-.72.1-.22.16-.47.16-.72 0-.3-.07-.54-.2-.75a1.33 1.33 0 0 0-.57-.5c-.23-.1-.5-.17-.8-.17-.3 0-.58.07-.81.2-.23.12-.41.3-.54.54-.12.23-.19.5-.19.81H10.6a2.5 2.5 0 0 1 1.37-2.32 3.1 3.1 0 0 1 1.45-.33c.55 0 1.03.11 1.45.33.42.22.75.51.99.89.23.37.35.8.35 1.26 0 .32-.06.64-.18.95-.12.3-.33.65-.63 1.03s-.71.84-1.24 1.38l-1.74 1.82v.06h3.93V177h-5.74Zm8.07 0v-8.73H20v4.17h.1l3.67-4.17h1.66l-3.52 3.93 3.53 4.8h-1.59l-2.82-3.9L20 174.3V177h-1.32ZM4.15 113.27V122H2.83v-7.4h-.05l-2.09 1.36v-1.26l2.18-1.43h1.28Zm3.31 8.81a.83.83 0 0 1-.6-.25.83.83 0 0 1-.25-.6.8.8 0 0 1 .25-.6.82.82 0 0 1 .6-.25c.24 0 .44.08.6.25a.8.8 0 0 1 .26.6.88.88 0 0 1-.43.74.81.81 0 0 1-.43.11Zm5.87.04c-.59 0-1.11-.1-1.57-.3-.46-.2-.82-.48-1.09-.84-.26-.36-.4-.78-.42-1.26h1.33c.02.26.1.49.26.68.16.18.37.33.63.43.25.1.54.16.85.16.34 0 .65-.06.91-.18.27-.12.48-.29.63-.5.15-.22.22-.47.22-.75 0-.29-.07-.55-.22-.77-.15-.22-.37-.4-.65-.53a2.5 2.5 0 0 0-1.04-.19h-.73V117h.73c.33 0 .61-.06.86-.18.24-.11.44-.28.58-.48.14-.21.2-.46.2-.74a1.24 1.24 0 0 0-.7-1.18 2 2 0 0 0-1.57-.01c-.24.1-.44.25-.59.44-.15.2-.23.42-.25.69h-1.27c.01-.47.15-.89.42-1.25a2.7 2.7 0 0 1 1.05-.83c.44-.2.93-.3 1.46-.3.56 0 1.04.1 1.45.32.41.22.73.5.95.87.22.36.33.75.33 1.18a1.9 1.9 0 0 1-1.5 1.93v.07c.58.09 1.03.32 1.35.69.32.37.48.83.47 1.39 0 .47-.13.9-.4 1.29-.26.38-.63.68-1.1.9-.46.21-.99.32-1.58.32Zm5.41-.12v-8.73h1.32v4.17h.1l3.67-4.17h1.65l-3.52 3.93 3.54 4.8H23.9l-2.82-3.9-1.03 1.19V122h-1.32ZM4.15 58.27V67H2.83v-7.4h-.05L.69 60.95V59.7l2.18-1.43h1.28Zm3.31 8.81a.83.83 0 0 1-.6-.25.82.82 0 0 1-.25-.6.8.8 0 0 1 .25-.6.82.82 0 0 1 .6-.25c.24 0 .44.08.6.25a.8.8 0 0 1 .26.6.88.88 0 0 1-.43.74.81.81 0 0 1-.43.11Zm2.96-1.78v-1.07l3.77-5.96h.84v1.57h-.53l-2.7 4.27v.07h5.17v1.12h-6.55Zm4.14 1.7v-8.73h1.26V67h-1.26Zm4.62 0v-8.73h1.31v4.17h.11l3.66-4.17h1.66L22.4 62.2l3.53 4.8h-1.58l-2.83-3.9-1.03 1.19V67h-1.31ZM4.15 3.27V12H2.83V4.6h-.05L.69 5.95V4.7l2.18-1.43h1.28Zm3.31 8.81a.83.83 0 0 1-.6-.25.82.82 0 0 1-.25-.6.8.8 0 0 1 .25-.6.82.82 0 0 1 .6-.25c.24 0 .44.08.6.25a.8.8 0 0 1 .26.6.88.88 0 0 1-.43.74.81.81 0 0 1-.43.11Zm5.89.04c-.54 0-1.02-.1-1.44-.3-.43-.21-.77-.5-1.02-.86a2.25 2.25 0 0 1-.4-1.24h1.28c.03.38.2.69.5.93.3.24.66.36 1.08.36a1.65 1.65 0 0 0 1.5-.87c.15-.27.23-.59.23-.94s-.08-.67-.23-.95a1.7 1.7 0 0 0-.64-.65 1.8 1.8 0 0 0-.92-.24c-.26 0-.53.04-.8.13-.26.1-.48.21-.64.36l-1.21-.18.49-4.4h4.8V4.4h-3.7l-.28 2.44H12a2.49 2.49 0 0 1 1.59-.58 2.67 2.67 0 0 1 2.4 1.42 3 3 0 0 1 .36 1.5c0 .56-.12 1.07-.38 1.51-.26.44-.61.8-1.07 1.05-.45.25-.97.38-1.55.38Zm5.28-.12V3.27h1.31v4.17h.1l3.67-4.17h1.66L21.85 7.2l3.53 4.8H23.8l-2.83-3.9-1.03 1.19V12h-1.31Z" opacity=".3"/>
    <path stroke="#fff" stroke-dasharray="6 6" stroke-width=".5" d="M42.25 62.25h981.5v.5H42.25zM42.25 117.25h981.5v.5H42.25zM42.25 172.25h981.5v.5H42.25zM42.25 227.25h981.5v.5H42.25zM42.25 7.25h981.5v.5H42.25z" opacity=".15"/>
    <path fill="#47A663" d="M659 7h1v221h-1z"/>
    <path fill="url(#b)" fill-opacity=".2" d="M47.72 177 42 173.2V228h982V25.15h-5.72l-5-10.91-5.72-5.7-5.72 1.43h-6.43l-12.86-4.75-17.16 10.44-10.72-6.64-6.43.47L936.81 0l-5 10.44-7.87 6.64-5-1.42-6.43.95-5.72-3.32-5.72 5.22-7.86-4.27-8.58-.48-12.15 3.8-5 .47-7.86-2.85-12.15 6.17-12.87 12.82-9.29.47-5.71.95-5-1.42-7.15.47-5 20.4-7.16 1.9-5.71-1.42-5 7.12-12.16 6.64-10-12.81-7.15-3.8-5.72 4.75-5.71-2.85-11.44 5.7-7.14 10.91h-5l-6.44 2.37-6.43-1.42-5-5.22-5.72 2.37-5.72 7.6-6.43-4.75-5 .47-5 5.7-6.44-.95-7.15-10.92-5.72 42.71-5.71-4.74-5.72 3.32-5.72-4.27-5.72 9.49h-5.71l-5.72-9.02-5.72-2.37-5.72-5.22-12.86-2.85-8.58 1.9-8.57-.95-5.72 4.75-5.72-4.27-5.72 1.42-5.71-.95-11.44 5.22-7.15-2.37-11.43.95-5.72-4.27-5.72 4.74-5.71-.95-5.72 8.07-5.72-15.19-5.72 2.85-5.72-4.74L475.11 93l-5.72 13.28-12.86.95-11.44-9.96-5.72 4.74-6.43-4.74-5.72 2.37-5 5.7-6.43.95-10-8.55-7.87.95-5.72-6.17h-5.71l-5.72 5.22h-5l-6.44 7.12-5.71-9.49-5.72.48-5.72-13.77-5.72-4.74-5.71-18.03-12.87-6.65-5.72.95-5.72-4.74-11.43 8.06-5-2.84h-6.44l-5.71 7.59-5.72-7.6-5.72 3.8-5.72 7.6-7.14-5.7-5.72-.95-5.72 4.27-5.72-1.42-5.71 1.9-5.72 91.58-5.72-9.96-5.72 3.32-11.43-3.8-5.72-10.91c-2.62-1.74-13.58-8.07-13.58-8.07l-16.44 21.83-5.71-24.2-5.72-2.85-5 .47-12.15 8.07-5.72.95-6.43 4.27-6.44.95-5.71-.47-5 .95-6.44-.48-5.72-7.12h-5l-6.43 44.13-5.72-1.42h-5.72l-5.71-3.32-7.15 1.9-5.72 3.8-11.43.47-5.72 3.32Z"/>
    <path stroke="url(#c)" stroke-width="2" d="m40.78 175 7.22 2 5.44-3.32 11.43-.48 5.72-3.8 7.14-1.9 5.72 3.33h5.72l5.72 1.42 6.43-44.13h5l5.72 7.12 6.43.48 5-.95 5.72.47 6.44-.95 6.43-4.27 5.72-.95 12.15-8.06 5-.48 5.72 2.85 5.71 24.2 16.44-21.83s10.96 6.33 13.58 8.07l5.72 10.91 11.43 3.8 5.72-3.32 5.72 9.96 5.72-91.58 5.71-1.9 5.72 1.42 5.72-4.27 5.72.95 7.14 5.7 5.72-7.6 5.72-3.8 5.72 7.6 5.71-7.6h6.44l5 2.85 11.44-8.06 5.71 4.74 5.72-.95 12.87 6.65 5.71 18.03 5.72 4.74 5.72 13.77 5.72-.48 5.71 9.5 6.44-7.13h5l5.72-5.22h5.71l5.72 6.17 7.86-.95 10 8.55 6.44-.95 5-5.7 5.72-2.37 6.43 4.74 5.72-4.74 11.44 9.96 12.86-.94 5.72-13.3 11.43-3.31 5.72 4.74 5.72-2.85 5.72 15.19 5.72-8.07 5.71.95 5.72-4.74 5.72 4.27 11.43-.95 7.15 2.37 11.44-5.22 5.71.95 5.72-1.42 5.72 4.27 5.72-4.75 8.57.95 8.58-1.9 12.86 2.85 5.72 5.22 5.72 2.37 5.72 9.02h5.71l5.72-9.5 5.72 4.28 5.72-3.32 5.71 4.74 5.72-42.7 7.15 10.9 6.43.96 5-5.7 5-.47 6.44 4.74 5.72-7.59 5.71-2.37 5 5.22 6.44 1.42 6.43-2.37h5l7.15-10.91 11.44-5.7 5.71 2.85 5.72-4.75 7.15 3.8 10 12.81 12.16-6.64 5-7.12 5.71 1.42 7.15-1.9 5-20.4 7.15-.47 5 1.42 5.72-.95 9.3-.47 12.86-12.82 12.15-6.17 7.86 2.85 5-.47 12.15-3.8 8.58.48 7.86 4.27 5.72-5.22 5.72 3.32 6.43-.95 5 1.42 7.86-6.64 5-10.44 11.44 9.5 6.43-.48 10.72 6.64 17.16-10.44 12.86 4.75h6.43l5.72-1.43 5.72 5.7 5 10.91h5.72"/>
    <g opacity=".5">
      <mask id="d" fill="#fff">
        <path d="M39 182h985v1H39v-1Z"/>
      </mask>
      <path fill="#FF3642" d="M39 182v-1h-1v1h1Zm985 0h1v-1h-1v1Zm0 1v1h1v-1h-1Zm-985 0h-1v1h1v-1Zm0 0h985v-2H39v2Zm984-1v1h2v-1h-2Zm1 0H39v2h985v-2Zm-984 1v-1h-2v1h2Z" mask="url(#d)"/>
    </g>
    <circle cx="660" cy="63" r="8" fill="#47A663"/>
    <circle cx="660" cy="63" r="4" fill="#fff"/>
    <g filter="url(#e)">
      <rect width="129" height="73" x="516" y="26" fill="url(#f)" rx="4"/>
      <path fill="#fff" d="M532.53 44.4v-1.13h6.75v1.14h-2.72V52h-1.31v-7.6h-2.72Zm10.55 7.73a2.85 2.85 0 0 1-2.67-1.6c-.25-.5-.38-1.1-.38-1.77 0-.68.13-1.28.38-1.78a2.84 2.84 0 0 1 2.67-1.61 2.84 2.84 0 0 1 2.67 1.6c.26.51.38 1.1.38 1.79 0 .67-.12 1.26-.38 1.77a2.84 2.84 0 0 1-2.67 1.6Zm0-1.07c.4 0 .73-.1 1-.31.25-.21.45-.5.57-.84.13-.35.2-.74.2-1.16 0-.41-.07-.8-.2-1.15a1.88 1.88 0 0 0-.58-.85c-.26-.2-.59-.32-.99-.32s-.73.11-1 .32c-.25.22-.45.5-.58.85a3.4 3.4 0 0 0-.18 1.15c0 .42.06.8.18 1.16.13.35.33.63.59.84.26.2.6.31 1 .31Zm8.13-5.6v1.02h-3.58v-1.03h3.58Zm-2.62-1.57h1.28v6.19c0 .25.03.43.1.56.08.12.18.2.3.25a1.5 1.5 0 0 0 .66.04l.17-.03.23 1.05a2.5 2.5 0 0 1-1.76-.04 1.6 1.6 0 0 1-.7-.58 1.7 1.7 0 0 1-.28-.99V43.9Zm6.53 8.25c-.41 0-.79-.07-1.12-.23a1.9 1.9 0 0 1-.8-.67c-.2-.3-.29-.66-.29-1.09a1.57 1.57 0 0 1 .79-1.48 3 3 0 0 1 .81-.31c.3-.07.6-.13.91-.17l.96-.1c.24-.04.42-.09.53-.16.11-.06.17-.17.17-.33v-.03c0-.37-.11-.66-.32-.86-.2-.2-.52-.3-.93-.3-.43 0-.77.09-1.01.28-.25.18-.42.4-.51.62l-1.2-.27a2.31 2.31 0 0 1 1.57-1.5 3.7 3.7 0 0 1 1.97-.08c.3.06.57.17.82.34.26.16.47.39.64.69.16.3.24.69.24 1.16V52h-1.24v-.9h-.05c-.08.17-.2.33-.37.5-.17.15-.38.28-.64.39-.26.1-.56.15-.93.15Zm.28-1.02c.35 0 .65-.07.9-.2.26-.15.45-.33.58-.55.13-.23.2-.47.2-.73v-.84a.67.67 0 0 1-.26.12 4.17 4.17 0 0 1-.93.17l-.39.05c-.24.04-.47.09-.67.16-.2.08-.37.18-.49.32a.8.8 0 0 0-.18.55c0 .31.12.55.35.71.23.16.53.24.9.24Zm6.52-7.85V52h-1.27v-8.73h1.27Zm6.1 11.18v-9h1.24v1.07h.1c.08-.14.19-.3.33-.48.13-.18.33-.33.57-.47.25-.13.58-.2.99-.2a2.56 2.56 0 0 1 2.39 1.55c.24.5.35 1.11.35 1.82 0 .7-.11 1.31-.35 1.82a2.52 2.52 0 0 1-2.38 1.57 1.85 1.85 0 0 1-1.56-.67 3.58 3.58 0 0 1-.33-.48h-.08v3.47h-1.27Zm1.24-5.72c0 .46.07.86.2 1.2.14.35.33.63.58.82.26.2.57.3.93.3.38 0 .7-.11.96-.31.25-.2.45-.48.58-.83.13-.35.2-.75.2-1.18 0-.43-.07-.82-.2-1.17a1.78 1.78 0 0 0-.58-.81c-.25-.2-.57-.3-.96-.3-.37 0-.68.1-.94.29-.25.19-.44.45-.57.8-.13.34-.2.73-.2 1.19Zm9.52 3.4a2.84 2.84 0 0 1-2.67-1.6c-.26-.5-.38-1.1-.38-1.77 0-.68.12-1.28.38-1.78a2.83 2.83 0 0 1 2.67-1.61 2.83 2.83 0 0 1 2.67 1.6c.25.51.38 1.1.38 1.79 0 .67-.13 1.26-.38 1.77a2.84 2.84 0 0 1-2.67 1.6Zm0-1.07c.4 0 .73-.1 1-.31.25-.21.45-.5.57-.84.13-.35.2-.74.2-1.16 0-.41-.07-.8-.2-1.15a1.87 1.87 0 0 0-.58-.85c-.26-.2-.59-.32-.99-.32s-.73.11-1 .32c-.26.22-.45.5-.58.85a3.4 3.4 0 0 0-.19 1.15c0 .42.07.8.2 1.16.12.35.31.63.58.84.26.2.6.31 1 .31Zm5.07.94v-6.55h1.23v1.04h.07c.12-.35.33-.62.63-.83.3-.2.65-.3 1.03-.3a5.45 5.45 0 0 1 .55.03v1.22a2.61 2.61 0 0 0-.66-.08c-.31 0-.58.06-.82.19a1.42 1.42 0 0 0-.75 1.28v4h-1.28Zm8.65-6.55v1.03h-3.58v-1.03h3.58Zm-2.62-1.56h1.28v6.19c0 .25.03.43.1.56.08.12.18.2.3.25a1.5 1.5 0 0 0 .66.04l.17-.03.23 1.05a2.49 2.49 0 0 1-1.76-.04 1.6 1.6 0 0 1-.7-.58 1.7 1.7 0 0 1-.28-.99V43.9Zm7.74 1.56v1.03h-3.7v-1.03h3.7ZM594.94 52v-7.3c0-.41.09-.75.27-1.02.18-.28.41-.48.7-.61.3-.14.63-.2.97-.2a2.92 2.92 0 0 1 1.06.17l-.3 1.03a5.85 5.85 0 0 0-.23-.06c-.09-.03-.2-.04-.34-.04-.3 0-.53.08-.66.23a1 1 0 0 0-.2.67V52h-1.27Zm7.1.13a2.85 2.85 0 0 1-2.67-1.6c-.26-.5-.38-1.1-.38-1.77 0-.68.12-1.28.38-1.78a2.84 2.84 0 0 1 2.67-1.61 2.84 2.84 0 0 1 2.67 1.6c.25.51.38 1.1.38 1.79 0 .67-.13 1.26-.38 1.77a2.84 2.84 0 0 1-2.67 1.6Zm0-1.07c.4 0 .73-.1 1-.31.25-.21.45-.5.57-.84.13-.35.2-.74.2-1.16 0-.41-.07-.8-.2-1.15a1.88 1.88 0 0 0-.58-.85c-.26-.2-.59-.32-.99-.32s-.73.11-1 .32c-.26.22-.45.5-.58.85a3.4 3.4 0 0 0-.19 1.15c0 .42.07.8.2 1.16.12.35.31.63.57.84.27.2.6.31 1 .31Zm6.35-7.79V52h-1.28v-8.73h1.27ZM610.7 52v-6.55h1.27V52h-1.27Zm.64-7.56a.8.8 0 0 1-.57-.22.72.72 0 0 1-.23-.53c0-.21.08-.4.23-.54a.8.8 0 0 1 .57-.23c.23 0 .41.08.57.23a.7.7 0 0 1 .24.54c0 .2-.08.38-.24.53a.8.8 0 0 1-.57.22Zm5.7 7.7a2.85 2.85 0 0 1-2.67-1.6c-.25-.52-.38-1.1-.38-1.78 0-.68.13-1.28.38-1.78a2.84 2.84 0 0 1 2.67-1.61 2.84 2.84 0 0 1 2.67 1.6c.26.51.39 1.1.39 1.79 0 .67-.13 1.26-.38 1.77a2.84 2.84 0 0 1-2.68 1.6Zm0-1.08c.4 0 .74-.1 1-.31s.45-.5.58-.84c.13-.35.19-.74.19-1.16 0-.41-.06-.8-.2-1.15a1.88 1.88 0 0 0-.57-.85c-.26-.2-.6-.32-1-.32s-.72.11-.99.32c-.26.22-.45.5-.58.85a3.4 3.4 0 0 0-.19 1.15c0 .42.06.8.19 1.16.13.35.32.63.58.84.27.2.6.31 1 .31Z" opacity=".5"/>
      <path fill="#fff" d="M542.22 74.86c0-.7-.24-1.28-.68-1.74a3.91 3.91 0 0 0-1.66-.94c-.66-.16-1.32-.3-1.96-.4-.66-.1-1.22-.22-1.7-.36-.48-.12-.72-.32-.74-.56-.02-.28.12-.54.4-.76.28-.2.74-.32 1.4-.32.72 0 1.24.14 1.54.4.3.28.48.68.54 1.24h2.7c0-2.08-1.1-3.3-3.28-3.68v-2.5h-2.46v2.44a4.56 4.56 0 0 0-2.72 1.12c-.6.6-.88 1.32-.84 2.18 0 .58.18 1.06.54 1.46.34.4.76.68 1.28.84.5.16 1.04.32 1.64.44.6.12 1.14.22 1.64.3.48.08.9.2 1.22.36.32.16.46.38.44.66-.04.24-.22.46-.54.64-.32.18-.78.26-1.42.26-1.52 0-2.28-.58-2.28-1.76h-2.7c-.04 2.3 1.22 3.6 3.74 3.88v2.52h2.46v-2.52c1.14-.16 2-.56 2.58-1.16.56-.6.86-1.28.86-2.04ZM554.75 78V65.2h-2.84l-2.41.4v1.96h2.41V78h2.85Zm6.62-1.36c.06-.56-.08-.96-.4-1.2a2.47 2.47 0 0 0-1.44-.36c-.62 0-1.08.12-1.4.32-.32.22-.48.62-.48 1.2 0 .96.5 1.48 1.5 1.54v2.54h1.76l.46-4.04Zm11.99-2.66c0-.58-.1-1.1-.28-1.56-.18-.44-.4-.8-.68-1.06a3.43 3.43 0 0 0-1-.64 5.44 5.44 0 0 0-2.24-.44l3.76-2V65.2h-8.9v2.36h5.94l-4.34 2.52v2.1h2.54c1.6 0 2.42.6 2.42 1.8 0 .52-.18.98-.5 1.34-.32.36-.82.54-1.46.54-.78 0-1.36-.18-1.76-.58-.4-.38-.6-.92-.6-1.62h-2.7c0 1.38.4 2.48 1.2 3.28.8.82 2.06 1.22 3.76 1.22 1.62 0 2.84-.38 3.64-1.18.8-.8 1.2-1.8 1.2-3Zm13-2.4c0-2.28-.42-3.94-1.26-4.98-.84-1.04-2.22-1.56-4.1-1.56-1.68 0-2.92.4-3.76 1.16a3.84 3.84 0 0 0-1.24 3c0 .76.14 1.42.42 1.96.28.56.64.96 1.1 1.24.46.28.94.48 1.42.6s1 .18 1.52.18a4.6 4.6 0 0 0 2.08-.4c.56-.26.92-.54 1.08-.86-.02 1.46-.22 2.48-.6 3.08-.38.6-1.04.88-2 .88-1.48 0-2.22-.62-2.22-1.9H576c0 1.46.42 2.52 1.26 3.18.84.68 2.1 1 3.76 1 1.84 0 3.2-.5 4.06-1.54.84-1.02 1.28-2.7 1.28-5.04Zm-2.94-2.4c0 .54-.22.98-.62 1.3-.4.34-.96.5-1.66.5-1.56 0-2.34-.58-2.34-1.78 0-.52.18-.96.54-1.32.36-.36.9-.54 1.62-.54.84 0 1.46.18 1.86.52.4.34.6.78.6 1.32Zm16.64 6.38V73.3h-2.04v-8.1h-3.8l-5.64 7.78v2.6h6.58V78h2.86v-2.44h2.04Zm-4.9-2.26h-3.88l3.88-5.38v5.38Z"/>
      <rect width="128" height="72" x="516.5" y="26.5" stroke="url(#g)" rx="3.5"/>
    </g>
  </g>
  <defs>
    <linearGradient id="b" x1="533" x2="533" y1="0" y2="228" gradientUnits="userSpaceOnUse">
      <stop stop-color="#47A663"/>
      <stop offset="1" stop-color="#47A663" stop-opacity="0"/>
    </linearGradient>
    <linearGradient id="c" x1="42" x2="1024" y1="89.71" y2="89.71" gradientUnits="userSpaceOnUse">
      <stop stop-color="#57BC76"/>
      <stop offset="1" stop-color="#1D4929"/>
    </linearGradient>
    <linearGradient id="f" x1="516" x2="644.13" y1="26" y2="100.5" gradientUnits="userSpaceOnUse">
      <stop stop-color="#494949"/>
      <stop offset="1" stop-color="#494949" stop-opacity=".06"/>
    </linearGradient>
    <linearGradient id="g" x1="516" x2="644.13" y1="26" y2="100.5" gradientUnits="userSpaceOnUse">
      <stop stop-color="#fff" stop-opacity=".3"/>
      <stop offset="1" stop-color="#fff" stop-opacity=".1"/>
    </linearGradient>
    <clipPath id="a">
      <path fill="#fff" d="M0 0h988v260H0z"/>
    </clipPath>
    <filter id="e" width="143" height="87" x="509" y="19" color-interpolation-filters="sRGB" filterUnits="userSpaceOnUse">
      <feFlood flood-opacity="0" result="BackgroundImageFix"/>
      <feGaussianBlur in="BackgroundImageFix" stdDeviation="3.5"/>
      <feComposite in2="SourceAlpha" operator="in" result="effect1_backgroundBlur_92_2826"/>
      <feBlend in="SourceGraphic" in2="effect1_backgroundBlur_92_2826" result="shape"/>
    </filter>
  </defs>
</svg>
