<svg xmlns="http://www.w3.org/2000/svg" fill="none" viewBox="0 0 694 547">
  <g filter="url(#a)" opacity=".4">
    <g filter="url(#b)">
      <path stroke="url(#c)" stroke-opacity=".9" stroke-width="14" d="M180.47 323.38c23.9-10.85 53.67 1.28 65.42 27.58 11.75 26.3.2 57.81-23.7 68.66"/>
    </g>
    <path fill="url(#d)" d="M246.46 350.7C233.19 321 201.2 306.58 175 318.48c-26.2 11.9-37.4 46.62-24.13 76.32 13.26 29.7 45.26 44.13 71.46 32.23 26.2-11.9 37.4-46.63 24.13-76.33Z"/>
    <g filter="url(#e)">
      <path fill="#0A0C0E" fill-opacity=".04" d="M241.54 352.74c-11.92-26.7-40.68-39.67-64.24-28.97-23.55 10.7-33.94 42.75-22.02 69.44 11.93 26.7 40.7 39.67 64.24 28.97 23.56-10.7 33.95-42.74 22.02-69.44Z"/>
    </g>
    <path stroke="url(#f)" stroke-opacity=".15" d="M241.09 352.95c-11.84-26.5-40.33-39.28-63.58-28.72-23.26 10.56-33.6 42.28-21.77 68.78 11.84 26.5 40.33 39.28 63.58 28.72 23.26-10.56 33.6-42.29 21.77-68.78Z"/>
    <g filter="url(#g)">
      <path fill="#F7931A" fill-rule="evenodd" d="M212.72 359.31c-1.91-5.67-7.5-6.35-14.11-5.3l-1.86-8.07-5.03 1.25 1.82 7.86c-1.32.33-2.67.69-4 1.05l-1.83-7.92-5.02 1.25 1.86 8.07c-1.08.3-2.15.58-3.19.84v-.03l-6.93 1.72 1.2 5.25s3.7-.99 3.66-.9c2.03-.51 2.96.48 3.38 1.43l2.12 9.2.54-.1-.53.13 2.97 12.9c.05.64-.1 1.73-1.52 2.09.08.04-3.65.9-3.65.9l.36 6.12 6.54-1.62 2.2-.53 1.39-.33 1.88 8.16 5.02-1.24-1.86-8.08c1.39-.32 2.72-.64 4.02-.96l1.85 8.04 5.03-1.25-1.88-8.15c8.34-2.57 13.77-6.12 12.72-14.06-.85-6.4-4.5-8.44-9.55-8.38 2.58-2.17 3.81-5.18 2.4-9.33Zm-3 19.21c1.29 5.6-7.74 7.72-11.86 8.68l-.98.23-2.5-10.82c.35-.08.76-.2 1.23-.32 4.2-1.15 12.78-3.5 14.1 2.23Zm-15.65-7.06c3.45-.8 10.96-2.53 9.8-7.62-1.2-5.2-8.37-3.23-11.86-2.27l-1.03.28 2.26 9.8.83-.19Z" clip-rule="evenodd"/>
    </g>
  </g>
  <g filter="url(#h)" opacity=".4">
    <g filter="url(#i)">
      <path stroke="url(#j)" stroke-opacity=".9" stroke-width="14" d="M235.45 107.42c18.68-9.28 42.7-.43 52.8 20.19 10.1 20.62 1.8 46-16.88 55.28"/>
    </g>
    <path fill="url(#k)" d="M288.69 127.39c-11.4-23.28-37.25-33.9-57.73-23.73-20.49 10.17-28.4 38.11-17 61.4 11.4 23.27 37.25 33.9 57.73 23.72 20.49-10.18 28.4-38.12 17-61.4Z"/>
    <g filter="url(#l)">
      <path fill="#0A0C0E" fill-opacity=".04" d="M284.84 129.14c-10.25-20.93-33.48-30.48-51.9-21.33-18.41 9.15-25.76 34.93-15.51 55.86 10.24 20.93 33.48 30.48 51.9 21.33 18.41-9.15 25.76-34.93 15.51-55.86Z"/>
    </g>
    <path stroke="url(#m)" stroke-opacity=".15" d="M284.4 129.36c-10.16-20.73-33.12-30.1-51.24-21.1-18.12 9-25.43 34.46-15.28 55.19 10.15 20.73 33.1 30.1 51.22 21.1 18.13-9 25.44-34.46 15.3-55.19Z"/>
    <g filter="url(#n)">
      <path fill="#F7931A" fill-rule="evenodd" d="M262.12 135.15c-1.69-4.47-6.15-4.86-11.37-3.84l-1.71-6.38-3.96 1.13 1.66 6.2c-1.04.3-2.1.63-3.15.95l-1.67-6.25-3.96 1.13 1.71 6.37c-.85.26-1.69.52-2.5.75l-.01-.02-5.46 1.56 1.1 4.14s2.92-.89 2.88-.82c1.6-.45 2.37.3 2.73 1.05l1.95 7.27.43-.1-.42.12 2.73 10.18c.06.52-.02 1.39-1.14 1.71.06.03-2.88.82-2.88.82l.46 4.86 5.15-1.47 1.73-.48 1.1-.3 1.73 6.45 3.96-1.13-1.71-6.38 3.17-.87 1.7 6.35 3.96-1.13-1.73-6.43c6.55-2.28 10.77-5.25 9.7-11.54-.85-5.06-3.8-6.6-7.82-6.4 1.98-1.8 2.88-4.24 1.64-7.5Zm-1.84 15.36c1.19 4.43-5.93 6.35-9.18 7.23l-.77.21-2.3-8.54.97-.3c3.3-1.02 10.06-3.12 11.28 1.4Zm-12.64-5.2c2.72-.72 8.64-2.3 7.56-6.33-1.1-4.1-6.73-2.34-9.48-1.48l-.81.25 2.08 7.74.65-.17Z" clip-rule="evenodd"/>
    </g>
  </g>
  <g filter="url(#o)" opacity=".4">
    <g filter="url(#p)">
      <path stroke="url(#q)" stroke-opacity=".9" stroke-width="14" d="M565.42 254.73c17.42 6.54 26.27 27.6 18.96 46.73-7.31 19.13-28.93 29.17-46.35 22.62"/>
    </g>
    <path fill="url(#r)" d="M584.8 301.61c8.25-21.6-.55-44.93-19.66-52.1-19.11-7.18-42.16 4.66-50.42 26.26-8.25 21.6.55 44.93 19.66 52.1 19.1 7.18 42.16-4.66 50.41-26.26Z"/>
    <g filter="url(#s)">
      <path fill="#0A0C0E" fill-opacity=".04" d="M581.3 300.17c7.42-19.42-.49-40.39-17.67-46.84-17.17-6.45-38.48 4.44-45.9 23.86-7.42 19.42.5 40.39 17.67 46.84 17.18 6.45 38.48-4.44 45.9-23.86Z"/>
    </g>
    <path stroke="url(#t)" stroke-opacity=".15" d="M580.84 300c7.34-19.22-.52-39.87-17.38-46.2-16.88-6.34-37.92 4.35-45.26 23.56-7.34 19.22.51 39.87 17.38 46.2 16.88 6.34 37.91-4.36 45.25-23.56Z"/>
    <g filter="url(#u)">
      <path fill="#F7931A" fill-rule="evenodd" d="M563.55 289c1.9-3.82-.57-6.97-4.41-9.76l3.12-5-3.15-1.89-3.04 4.86c-.82-.5-1.68-.99-2.53-1.48l3.06-4.9-3.14-1.89-3.12 5c-.7-.4-1.37-.8-2.02-1.19v-.01l-4.33-2.62-2.03 3.25s2.35 1.36 2.29 1.37c1.27.77 1.24 1.74.97 2.43l-3.55 5.69c.09.05.2.12.32.22l-.33-.2-4.99 7.97c-.3.35-.91.83-1.8.3.01.05-2.3-1.38-2.3-1.38l-2.89 3.25 4.1 2.47 1.37.84.86.53-3.15 5.06 3.14 1.9 3.12-5c.86.53 1.68 1.04 2.5 1.53l-3.1 4.98 3.14 1.9 3.15-5.05c5.47 2.9 9.98 3.84 13.43-.68 2.79-3.65 1.99-6.5-.58-9.01 2.38.2 4.51-.7 5.9-3.5Zm-11.15 8.15c-2.16 3.46-7.75-.01-10.3-1.6l-.6-.37 4.17-6.7.78.45c2.68 1.54 8.16 4.67 5.95 8.22Zm-4.3-11.41c2.13 1.33 6.77 4.23 8.74 1.08 2.01-3.22-2.57-5.82-4.8-7.1l-.66-.37-3.8 6.07.52.32Z" clip-rule="evenodd"/>
    </g>
  </g>
  <g filter="url(#v)" shape-rendering="crispEdges">
    <rect width="331" height="76" x="227" y="285" fill="url(#w)" fill-opacity=".3" rx="20"/>
    <rect width="330" height="75" x="227.5" y="285.5" stroke="#fff" stroke-opacity=".3" rx="19.5" style="mix-blend-mode:overlay"/>
  </g>
  <rect width="56" height="56" x="237" y="295" fill="#fff" rx="14"/>
  <path fill="#1276A7" d="m312 321 3.01-4.72 3 4.72h2.9l-4.3-6.49 4-6.15h-2.92l-2.67 4.31-2.7-4.31h-2.9l4.09 6.15-4.38 6.49H312Zm18.11-4.9a3.8 3.8 0 0 0 2.07-3.55c0-2.5-1.75-4.2-4.35-4.2h-5.22V321h2.44v-4.25h2.12c.2 0 .4 0 .6-.02l1.98 4.27h2.75l-2.39-4.9Zm-5.06-5.53h2.58c1.19 0 2.08.73 2.08 1.99 0 1.19-.84 2.04-2.1 2.04h-2.56v-4.03ZM336.92 321v-4.2h2.48c2.76 0 4.4-1.72 4.4-4.29 0-2.43-1.72-4.15-4.42-4.15h-4.9V321h2.44Zm0-10.43h2.3c1.26 0 2.14.77 2.14 1.96 0 1.22-.88 2.05-2.15 2.05h-2.3v-4.01Z"/>
  <path fill="#292D32" d="M313.37 336.27v-.88h-3.77v.88h3.77Zm3.2 2.73v-8.43h-.88l-1.6.72v.97l1.49-.65V339h.99Zm2.47.11c.4 0 .69-.28.69-.64s-.29-.65-.69-.65c-.4 0-.67.29-.67.65 0 .36.28.64.67.64Zm4.17.04c1.65 0 2.81-1.14 2.81-2.7 0-1.27-.9-2.57-2.66-2.48l2.19-2.5v-.9h-4.63v.93h3.44l-2.1 2.48v.74h.45c1.47 0 2.31.51 2.31 1.7 0 1.07-.75 1.84-1.86 1.84a2.2 2.2 0 0 1-1.91-1.2l-.8.37c.5 1 1.53 1.72 2.76 1.72Zm8.95-.15v-.92h-3.94l2.08-2.03c1.03-1.02 1.83-1.98 1.83-3.18 0-1.35-.98-2.44-2.6-2.44-1.17 0-2.12.63-2.65 1.72l.8.38c.34-.68.97-1.17 1.78-1.17 1.06 0 1.67.66 1.67 1.56 0 .76-.57 1.57-1.56 2.55l-2.82 2.77v.76h5.4Zm2.89-4.13a2.26 2.26 0 0 0 2.27-2.28c0-1.26-1-2.28-2.27-2.28s-2.26 1.01-2.26 2.28c0 1.27 1 2.28 2.26 2.28Zm5.3-4.3h-.76l-4.14 8.43h.78l4.12-8.43Zm-5.3 3.61c-.83 0-1.54-.7-1.54-1.59 0-.9.7-1.58 1.54-1.58.84 0 1.55.69 1.55 1.58 0 .9-.7 1.6-1.55 1.6Zm6.41 4.96a2.26 2.26 0 0 0 2.28-2.28c0-1.26-1-2.28-2.28-2.28-1.26 0-2.26 1.01-2.26 2.28 0 1.27 1 2.28 2.26 2.28Zm0-.69c-.83 0-1.53-.7-1.53-1.59 0-.89.7-1.58 1.53-1.58.84 0 1.56.69 1.56 1.58 0 .9-.71 1.6-1.56 1.6Z" opacity=".4"/>
  <path fill="#292D32" d="M489.36 316.07c0-1.9-1.7-2.5-3.55-3.02-1.44-.4-2.65-.7-2.65-1.87 0-1.08 1.11-1.72 2.43-1.72 1.02 0 2.06.4 2.76 1.04l.74-.85a5.2 5.2 0 0 0-2.88-1.3v-1.66h-1.25v1.66c-1.83.19-3.03 1.29-3.03 2.8 0 1.96 1.77 2.51 3.3 2.9 1.66.44 2.89.8 2.89 2.05 0 1.24-1.1 1.89-2.5 1.89-1.23 0-2.52-.5-3.33-1.48l-.8.78a5.18 5.18 0 0 0 3.47 1.81v1.57h1.25v-1.56c1.8-.19 3.15-1.25 3.15-3.04Zm7.44 2.93v-1.15h-4.92l2.6-2.54c1.29-1.27 2.29-2.47 2.29-3.97 0-1.69-1.22-3.06-3.26-3.06-1.45 0-2.64.8-3.3 2.16l1 .48a2.52 2.52 0 0 1 2.23-1.48c1.32 0 2.08.83 2.08 1.95 0 .96-.71 1.98-1.95 3.2l-3.53 3.47v.94h6.76Zm6.91 0v-1.99h1.42v-1.12h-1.42v-7.43h-.94l-5.45 7.53V317h5.23V319h1.16Zm-1.16-8.5v5.4h-3.85l3.85-5.4Zm4.22 10.44c.8-.73 1.23-1.52 1.23-2.46 0-.73-.4-.96-.84-.96-.47 0-.85.3-.85.83 0 .41.37.8.76.8v.04c0 .27-.15.67-.84 1.26l.54.49ZM512 319v-10.54h-1.1l-2 .9v1.22l1.87-.81V319H512Zm5.9.2a3.6 3.6 0 0 0 3.67-3.66c0-2.2-1.44-3.62-3.46-3.62-.7 0-1.7.25-2.23.82l.22-3.13h4.7v-1.15h-5.75l-.4 5.54h1.13a2.61 2.61 0 0 1 2.11-1.11c1.44 0 2.52 1.03 2.52 2.62 0 1.5-1.14 2.59-2.51 2.59-1.01 0-1.88-.4-2.53-1.68l-.97.46a3.62 3.62 0 0 0 3.5 2.31Zm9.54-.03c2.56 0 4.38-2.03 4.38-5.44 0-3.42-1.82-5.44-4.38-5.44-2.55 0-4.37 2.02-4.37 5.44 0 3.41 1.82 5.44 4.37 5.44Zm0-1.19c-1.82 0-3.12-1.53-3.12-4.25 0-2.72 1.3-4.25 3.12-4.25 1.83 0 3.13 1.53 3.13 4.25 0 2.72-1.3 4.25-3.13 4.25Zm6.72 1.16c.5 0 .85-.35.85-.8 0-.46-.36-.82-.85-.82-.5 0-.85.36-.85.81 0 .45.35.81.85.81Zm4.86-.14v-10.54h-1.1l-2 .9v1.22l1.86-.81V319h1.24Zm3.85 0 4.8-9.51v-1.03h-6.81v1.16h5.41l-4.72 9.38h1.32Z"/>
  <path fill="#292D32" d="M507.37 339v-.92h-3.93l2.07-2.03c1.03-1.02 1.83-1.98 1.83-3.18 0-1.35-.98-2.44-2.6-2.44-1.17 0-2.11.63-2.64 1.72l.79.38c.35-.68.98-1.17 1.79-1.17 1.06 0 1.67.66 1.67 1.56 0 .76-.57 1.57-1.56 2.55l-2.83 2.77v.76h5.41Zm1.7.11c.4 0 .69-.28.69-.64s-.3-.65-.69-.65c-.4 0-.68.29-.68.65 0 .36.29.64.68.64Zm3.17-.11 3.84-7.6v-.83h-5.45v.92h4.34l-3.78 7.51h1.05Zm6.98.15c1.66 0 2.82-1.14 2.82-2.7 0-1.27-.9-2.57-2.66-2.48l2.18-2.5v-.9h-4.62v.93h3.44l-2.1 2.48v.74h.44c1.47 0 2.32.51 2.32 1.7 0 1.07-.76 1.84-1.87 1.84a2.2 2.2 0 0 1-1.9-1.2l-.8.37c.5 1 1.52 1.72 2.75 1.72Zm11.22-.15c1.31 0 2.46-.86 2.46-2.34 0-1.06-.7-1.92-1.6-2.12.65-.27 1.16-1 1.16-1.8 0-1.28-.91-2.17-2.38-2.17h-3.3V339h3.66Zm-2.7-7.59h2.3c.9 0 1.45.62 1.45 1.4 0 .77-.66 1.4-1.46 1.4h-2.29v-2.8Zm0 3.6h2.52c1 0 1.65.71 1.65 1.57a1.5 1.5 0 0 1-1.53 1.57h-2.64v-3.14Zm9.54 3.99v-7.5H540v-.93h-6.44v.93h2.72v7.5h.99Zm7.46.14c1.13 0 2.1-.45 2.85-1.08l-.55-.75c-.68.55-1.42.87-2.3.87a3.35 3.35 0 0 1-3.34-3.4c0-1.92 1.5-3.4 3.34-3.4.88 0 1.68.34 2.29.85l.56-.74a4.32 4.32 0 0 0-2.86-1.06 4.3 4.3 0 0 0-4.33 4.35 4.31 4.31 0 0 0 4.34 4.36Z" opacity=".4"/>
  <path fill="url(#x)" d="m380.23 337.21-1.23-1.35V340a1 1 0 0 0 1 1h68a1 1 0 0 0 1-1v-15.93l-1.11 4.43a1 1 0 0 1-.3.49l-.62.58a1 1 0 0 1-1.65-.52l-1.35-6.16a1 1 0 0 0-.98-.78h-.26a1 1 0 0 1-.99-.8l-.59-2.96a.75.75 0 0 0-1.4-.2.75.75 0 0 1-.67.42h-2.8a1 1 0 0 1-.82-.42l-.22-.3a1 1 0 0 0-1.76.25l-.8 2.43c-.33.98-1.73.9-1.94-.1l-1.54-7.46a1 1 0 0 0-.28-.5l-1.74-1.74a1 1 0 0 0-.97-.25l-1.43.4a1 1 0 0 1-1.19-.59l-.87-2.1a1 1 0 0 0-1.85 0l-1.28 3.01a.64.64 0 0 1-1.19-.02.64.64 0 0 0-1.2.01l-.72 2.04a1 1 0 0 1-1.9-.07l-.95-3.38c-.27-1-1.7-.96-1.94.05l-1.3 5.61a1 1 0 0 1-.97.77h-.07a1 1 0 0 0-.98.77l-2.85 11.66a1 1 0 0 1-.11.28l-2.9 4.82a1 1 0 0 1-1.69.05l-.51-.75a1 1 0 0 0-1.28-.32l-1.81.93a1 1 0 0 0-.54.78l-.32 2.9a1 1 0 0 1-1 .88h-1.07a1 1 0 0 1-.9-.56l-1.7-3.55a1 1 0 0 0-1.8-.03l-1.84 3.48a1 1 0 0 1-1.7.1l-1.74-2.49a1 1 0 0 0-1.68.06l-1.1 1.84a1 1 0 0 1-1.6.15Z" opacity=".5"/>
  <path stroke="#1276A7" stroke-linecap="round" d="m379 335.86 1.23 1.35a1 1 0 0 0 1.6-.15l1.1-1.84a1 1 0 0 1 1.68-.06l1.73 2.5a1 1 0 0 0 1.7-.1l1.86-3.5a1 1 0 0 1 1.78.04l1.71 3.55a1 1 0 0 0 .9.56h1.08a1 1 0 0 0 1-.89l.3-2.9a1 1 0 0 1 .55-.77l1.8-.93a1 1 0 0 1 1.29.32l.51.75a1 1 0 0 0 1.68-.05l2.9-4.82a1 1 0 0 0 .12-.28l2.85-11.66a1 1 0 0 1 .98-.77h.07a1 1 0 0 0 .98-.77l1.3-5.61c.23-1.01 1.66-1.04 1.93-.04l.94 3.37a1 1 0 0 0 1.9.07l.73-2.04c.2-.56 1-.57 1.2-.01v0c.2.54.97.56 1.2.02l1.27-3.01a1 1 0 0 1 1.85 0l.87 2.1a1 1 0 0 0 1.2.58l1.42-.4a1 1 0 0 1 .97.26l1.74 1.74a1 1 0 0 1 .28.5l1.54 7.45c.21 1 1.61 1.08 1.93.11l.8-2.43a1 1 0 0 1 1.77-.26l.22.3a1 1 0 0 0 .82.43h2.8c.28 0 .54-.16.67-.41v0a.75.75 0 0 1 1.4.19l.6 2.95c.09.47.5.8.98.8h.26a1 1 0 0 1 .98.8l1.35 6.15a1 1 0 0 0 1.65.52l.6-.55a1 1 0 0 0 .3-.58l.71-4.44"/>
  <path fill="#1276A7" d="M265 336a13 13 0 1 0 0-26 13 13 0 0 0 0 26Z" opacity=".2"/>
  <path fill="#1276A7" d="M266.57 317.32c-.81.47-1.3 1.3-1.3 2.19 0 .46.2.93.44 1.34.2.37.29 1.02-.38 1.35-.48.28-1.1.09-1.4-.38a4.24 4.24 0 0 0-1.05-1.02 2.58 2.58 0 0 0-2.59 0c-.8.47-1.29 1.3-1.29 2.19 0 .88.48 1.72 1.3 2.18.8.46 1.77.46 2.58 0 .43-.23.77-.6 1-1.02.2-.32.73-.74 1.4-.37.47.28.62.88.38 1.34a2.51 2.51 0 0 0 .91 3.53c.81.47 1.78.47 2.59 0 .81-.46 1.3-1.3 1.3-2.18 0-.88-.48-1.72-1.3-2.18a2.96 2.96 0 0 0-1.44-.33c-.43 0-1-.27-1-.97 0-.56.43-.98 1-.98.48 0 1-.09 1.44-.32.81-.46 1.3-1.3 1.3-2.18a2.52 2.52 0 0 0-2.6-2.51c-.43 0-.9.1-1.29.32"/>
  <g filter="url(#y)" shape-rendering="crispEdges">
    <rect width="331" height="76" x="40" y="411" fill="url(#z)" fill-opacity=".3" rx="20"/>
    <rect width="330" height="75" x="40.5" y="411.5" stroke="#fff" stroke-opacity=".3" rx="19.5" style="mix-blend-mode:overlay"/>
  </g>
  <rect width="56" height="56" x="50" y="421" fill="#F9FAFF" rx="14"/>
  <path fill="#54575B" d="M132.66 447v-2.23h-6.72v-3.14h5.27v-2.1h-5.27v-2.94h6.59v-2.23h-9.03V447h9.16Zm7.4 0v-10.37h3.72v-2.27h-9.87v2.27h3.71V447h2.44Zm8.14 0v-5.38h5.92V447h2.44v-12.64h-2.44v4.93h-5.92v-4.94h-2.44V447h2.44Z"/>
  <path fill="#292D32" d="M126.37 462.27v-.88h-3.77v.88h3.77Zm3.2 2.73v-8.43h-.88l-1.6.72v.97l1.49-.65V465h.99Zm2.47.11c.4 0 .69-.28.69-.64s-.29-.65-.69-.65c-.4 0-.67.29-.67.65 0 .36.28.64.67.64Zm4.17.04c1.65 0 2.81-1.14 2.81-2.7 0-1.27-.9-2.57-2.66-2.48l2.19-2.5v-.9h-4.63v.93h3.44l-2.1 2.48v.74h.45c1.47 0 2.31.51 2.31 1.7 0 1.07-.75 1.84-1.86 1.84a2.2 2.2 0 0 1-1.91-1.2l-.8.37c.5 1 1.53 1.72 2.76 1.72Zm8.95-.15v-.92h-3.94l2.08-2.03c1.03-1.02 1.83-1.98 1.83-3.18 0-1.35-.98-2.44-2.6-2.44-1.17 0-2.12.63-2.65 1.72l.8.38c.34-.68.97-1.17 1.78-1.17 1.06 0 1.67.66 1.67 1.56 0 .76-.57 1.57-1.56 2.55l-2.82 2.77v.76h5.4Zm2.89-4.13a2.26 2.26 0 0 0 2.27-2.28c0-1.26-1-2.28-2.27-2.28s-2.26 1.01-2.26 2.28c0 1.27 1 2.28 2.26 2.28Zm5.3-4.3h-.76l-4.14 8.43h.78l4.12-8.43Zm-5.3 3.61c-.83 0-1.54-.7-1.54-1.59 0-.9.7-1.58 1.54-1.58.84 0 1.55.69 1.55 1.58 0 .9-.7 1.6-1.55 1.6Zm6.41 4.96a2.26 2.26 0 0 0 2.28-2.28c0-1.26-1-2.28-2.28-2.28-1.26 0-2.26 1.01-2.26 2.28 0 1.27 1 2.28 2.26 2.28Zm0-.69c-.83 0-1.53-.7-1.53-1.59 0-.89.7-1.58 1.53-1.58.84 0 1.56.69 1.56 1.58 0 .9-.71 1.6-1.56 1.6Z" opacity=".4"/>
  <path fill="#292D32" d="M302.36 442.07c0-1.9-1.7-2.5-3.55-3.02-1.44-.4-2.65-.7-2.65-1.87 0-1.08 1.11-1.72 2.43-1.72 1.02 0 2.06.4 2.76 1.04l.74-.85a5.2 5.2 0 0 0-2.88-1.3v-1.66h-1.25v1.66c-1.83.19-3.03 1.29-3.03 2.8 0 1.96 1.77 2.51 3.3 2.9 1.66.44 2.89.8 2.89 2.05 0 1.24-1.1 1.89-2.5 1.89-1.23 0-2.52-.5-3.33-1.48l-.8.78a5.18 5.18 0 0 0 3.47 1.81v1.57h1.25v-1.56c1.8-.19 3.15-1.25 3.15-3.04Zm7.44 2.93v-1.15h-4.92l2.6-2.54c1.29-1.27 2.29-2.47 2.29-3.97 0-1.69-1.22-3.06-3.26-3.06-1.45 0-2.64.8-3.3 2.16l1 .48a2.52 2.52 0 0 1 2.23-1.48c1.32 0 2.08.83 2.08 1.95 0 .96-.71 1.98-1.95 3.2l-3.53 3.47v.94h6.76Zm6.91 0v-1.99h1.42v-1.12h-1.42v-7.43h-.94l-5.45 7.53V443h5.23V445h1.16Zm-1.16-8.5v5.4h-3.85l3.85-5.4Zm4.22 10.44c.8-.73 1.23-1.52 1.23-2.46 0-.73-.4-.96-.84-.96-.47 0-.85.3-.85.83 0 .41.37.8.76.8v.04c0 .27-.15.67-.84 1.26l.54.49ZM325 445v-10.54h-1.1l-2 .9v1.22l1.87-.81V445H325Zm5.9.2a3.6 3.6 0 0 0 3.67-3.66c0-2.2-1.44-3.62-3.45-3.62-.7 0-1.7.25-2.24.82l.22-3.13h4.7v-1.15h-5.75l-.4 5.54h1.13a2.61 2.61 0 0 1 2.11-1.11c1.44 0 2.52 1.03 2.52 2.62 0 1.5-1.14 2.59-2.51 2.59-1.01 0-1.88-.4-2.53-1.68l-.97.46a3.62 3.62 0 0 0 3.5 2.31Zm9.54-.03c2.56 0 4.38-2.03 4.38-5.44 0-3.42-1.82-5.44-4.38-5.44-2.55 0-4.37 2.02-4.37 5.44 0 3.41 1.82 5.44 4.37 5.44Zm0-1.19c-1.82 0-3.12-1.53-3.12-4.25 0-2.72 1.3-4.25 3.12-4.25 1.83 0 3.13 1.53 3.13 4.25 0 2.72-1.3 4.25-3.13 4.25Zm6.72 1.16c.5 0 .85-.35.85-.8 0-.46-.36-.82-.85-.82-.5 0-.85.36-.85.81 0 .45.35.81.85.81Zm4.86-.14v-10.54h-1.1l-2 .9v1.22l1.86-.81V445h1.24Zm3.85 0 4.8-9.51v-1.03h-6.81v1.16h5.41l-4.72 9.38h1.32Z"/>
  <path fill="#292D32" d="M320.37 465v-.92h-3.93l2.07-2.03c1.03-1.02 1.83-1.98 1.83-3.18 0-1.35-.98-2.44-2.6-2.44-1.17 0-2.11.63-2.64 1.72l.79.38c.35-.68.98-1.17 1.79-1.17 1.06 0 1.67.66 1.67 1.56 0 .76-.57 1.57-1.56 2.55l-2.83 2.77v.76h5.41Zm1.7.11c.4 0 .69-.28.69-.64s-.3-.65-.69-.65c-.4 0-.68.29-.68.65 0 .36.29.64.68.64Zm3.17-.11 3.84-7.6v-.83h-5.44v.92h4.33l-3.78 7.51h1.05Zm6.98.15c1.66 0 2.82-1.14 2.82-2.7 0-1.27-.9-2.57-2.66-2.48l2.18-2.5v-.9h-4.62v.93h3.44l-2.1 2.48v.74h.44c1.47 0 2.32.51 2.32 1.7 0 1.07-.76 1.84-1.87 1.84a2.2 2.2 0 0 1-1.9-1.2l-.8.37c.5 1 1.52 1.72 2.75 1.72Zm11.22-.15c1.31 0 2.46-.86 2.46-2.34 0-1.06-.7-1.92-1.6-2.12.65-.27 1.16-1 1.16-1.8 0-1.28-.91-2.17-2.38-2.17h-3.3V465h3.66Zm-2.7-7.59h2.3c.9 0 1.45.62 1.45 1.4 0 .77-.66 1.4-1.46 1.4h-2.29v-2.8Zm0 3.6h2.52c1 0 1.65.71 1.65 1.57a1.5 1.5 0 0 1-1.53 1.57h-2.64v-3.14Zm9.54 3.99v-7.5H353v-.93h-6.44v.93h2.72v7.5h.99Zm7.46.14c1.13 0 2.1-.45 2.85-1.08l-.55-.75c-.69.55-1.42.87-2.3.87a3.35 3.35 0 0 1-3.34-3.4c0-1.92 1.5-3.4 3.34-3.4.88 0 1.68.34 2.29.85l.56-.74a4.32 4.32 0 0 0-2.85-1.06 4.3 4.3 0 0 0-4.34 4.35 4.31 4.31 0 0 0 4.34 4.36Z" opacity=".4"/>
  <path fill="url(#A)" d="m192.88 458.96-.88-1.32V466a1 1 0 0 0 1 1h68a1 1 0 0 0 1-1v-30.23l-2.05 2.93a1 1 0 0 1-1.73-.16l-1.98-4.39a.58.58 0 0 0-.94-.17.58.58 0 0 1-.93-.16l-.66-1.43a1 1 0 0 0-1.65-.24l-.16.18a1 1 0 0 1-.58.32l-3.68.62a1 1 0 0 0-.81.78l-1.61 7.68c-.22 1.02-1.66 1.07-1.94.07l-1.28-4.5a1 1 0 0 0-.96-.73h-.95a1 1 0 0 0-.99.87l-.71 5.41a1 1 0 0 1-1 .87h-.42a1 1 0 0 1-.6-.2l-.7-.52a1 1 0 0 0-1.56.51l-1.78 6.01a.61.61 0 0 1-1.12.14.61.61 0 0 0-1.11.12l-.08.26a.74.74 0 0 1-1.4.02l-2.15-6c-.33-.93-1.67-.86-1.9.1l-.13.5a1 1 0 0 1-1.29.7l-.3-.1a1 1 0 0 0-1.3.69l-1.66 6.27a1 1 0 0 1-.84.73l-1.79.24a1 1 0 0 0-.8.64l-.97 2.6c-.34.94-1.7.85-1.91-.13l-.1-.44a1 1 0 0 0-1.85-.26l-3.4 6.22a1 1 0 0 1-1.85-.22l-1.04-3.86c-.26-.97-1.62-1-1.92-.04l-.5 1.58a1 1 0 0 1-.42.54l-.37.24a1 1 0 0 1-1.51-.63l-.94-4.23a.95.95 0 0 0-.93-.74.95.95 0 0 1-.88-.6l-.05-.12a1 1 0 0 0-1.9.11l-1.24 4.8a1 1 0 0 1-1.8.3Z"/>
  <path stroke="#54575B" stroke-linecap="round" d="m192 457.64.88 1.32a1 1 0 0 0 1.8-.3l1.25-4.8a1 1 0 0 1 1.9-.12l.04.12c.14.36.5.6.88.6v0c.45 0 .84.3.93.74l.94 4.23a1 1 0 0 0 1.51.63l.37-.24a1 1 0 0 0 .42-.54l.5-1.58c.3-.95 1.66-.93 1.92.04l1.04 3.86a1 1 0 0 0 1.85.22l3.4-6.22a1 1 0 0 1 1.85.26l.1.44c.21.98 1.57 1.07 1.91.13l.97-2.6a1 1 0 0 1 .8-.64l1.8-.24a1 1 0 0 0 .83-.73l1.67-6.27a1 1 0 0 1 1.28-.7l.31.11a1 1 0 0 0 1.3-.7l.11-.5c.24-.96 1.58-1.03 1.91-.1l2.16 6a.74.74 0 0 0 1.39-.02l.08-.26a.61.61 0 0 1 1.11-.12v0c.28.46.97.38 1.12-.14l1.78-6a1 1 0 0 1 1.56-.52l.7.52a1 1 0 0 0 .6.2h.43a1 1 0 0 0 .99-.87l.71-5.41a1 1 0 0 1 1-.87h.94a1 1 0 0 1 .96.72l1.28 4.5c.28 1.01 1.72.96 1.94-.06l1.6-7.68a1 1 0 0 1 .82-.78l3.68-.62a1 1 0 0 0 .58-.32l.16-.18a1 1 0 0 1 1.65.24l.66 1.43c.17.37.65.45.93.16v0c.29-.28.77-.2.94.17l1.98 4.4a1 1 0 0 0 1.73.15l2.05-2.93"/>
  <path fill="#505050" d="M90.93 449a12.93 12.93 0 1 1-25.86 0 12.93 12.93 0 0 1 25.86 0Z" opacity=".2"/>
  <g fill="#fff" opacity=".8">
    <path d="m77.96 443-.08.27v7.88l.08.08 3.65-2.16-3.65-6.07Z"/>
    <path d="m77.96 443-3.66 6.07 3.66 2.16V443ZM77.96 452.42l-.05.05v2.81l.05.13 3.66-5.15-3.66 2.16Z"/>
    <path d="M77.96 455.41v-3l-3.66-2.15 3.66 5.15ZM77.96 451.23l3.65-2.16-3.65-1.66v3.82Z"/>
    <path d="m74.3 449.07 3.66 2.16v-3.83l-3.66 1.67Z"/>
  </g>
  <g filter="url(#B)" shape-rendering="crispEdges">
    <rect width="331" height="76" x="100" y="159" fill="url(#C)" fill-opacity=".3" rx="20"/>
    <rect width="330" height="75" x="100.5" y="159.5" stroke="#fff" stroke-opacity=".3" rx="19.5" style="mix-blend-mode:overlay"/>
  </g>
  <rect width="56" height="56" x="110" y="169" fill="#fff" rx="14"/>
  <path fill="#FDE9D1" d="M150.61 200.15a13 13 0 1 1-25.22-6.3 13 13 0 0 1 25.22 6.3Z"/>
  <path fill="#F7931A" fill-rule="evenodd" d="M143.4 195.1c.25-1.6-.97-2.45-2.62-3.02l.53-2.16-1.3-.33-.53 2.1-1.05-.25.53-2.11-1.31-.33-.54 2.16-.84-.2-1.8-.46-.36 1.4s.98.23.96.24c.53.14.62.49.6.77l-.6 2.46.13.04-.14-.03-.85 3.44c-.07.16-.23.4-.6.31 0 .02-.96-.23-.96-.23l-.65 1.5 1.7.43.58.14.36.1-.54 2.18 1.3.33.55-2.16 1.04.27-.53 2.15 1.3.33.55-2.18c2.24.42 3.92.25 4.63-1.78.57-1.63-.03-2.57-1.2-3.18.85-.2 1.5-.77 1.67-1.93Zm-2.99 4.2c-.37 1.5-2.71.89-3.78.6l-.26-.06.72-2.9.32.08c1.11.25 3.38.76 3 2.29Zm-2.77-3.62c.9.23 2.84.75 3.18-.6.34-1.4-1.55-1.82-2.47-2.02l-.28-.06-.65 2.62.22.06Z" clip-rule="evenodd"/>
  <path fill="#F7931A" d="M189.12 195c2.2 0 4.02-1.28 4.02-3.63 0-1.46-.92-2.75-2.17-3.11.87-.36 1.56-1.42 1.56-2.53 0-2.06-1.54-3.38-3.93-3.38h-5.1V195h5.62Zm-3.2-10.57h2.55c1 0 1.64.65 1.64 1.5 0 .87-.72 1.56-1.7 1.56h-2.49v-3.06Zm0 4.94h2.88c1.16 0 1.9.82 1.9 1.77 0 1.06-.73 1.8-1.76 1.8h-3.02v-3.57ZM200.2 195v-10.37h3.72v-2.28h-9.87v2.28h3.71V195h2.44Zm10.87.22c1.67 0 3.15-.62 4.28-1.58l-1.35-1.86a4.44 4.44 0 0 1-2.93 1.1 4.13 4.13 0 0 1-4.07-4.2c0-2.38 1.87-4.21 4.07-4.21 1.1 0 2.15.45 2.9 1.06l1.38-1.84a6.51 6.51 0 0 0-4.28-1.56 6.46 6.46 0 0 0-6.54 6.53 6.49 6.49 0 0 0 6.54 6.56Z"/>
  <path fill="#292D32" d="M186.37 210.27v-.88h-3.77v.88h3.77Zm3.2 2.73v-8.43h-.88l-1.6.72v.97l1.49-.65V213h.99Zm2.47.11c.4 0 .69-.28.69-.64s-.29-.65-.69-.65c-.4 0-.67.29-.67.65 0 .36.28.64.67.64Zm4.17.04c1.65 0 2.81-1.14 2.81-2.7 0-1.27-.9-2.57-2.66-2.48l2.19-2.5v-.9h-4.63v.93h3.44l-2.1 2.48v.74h.45c1.47 0 2.31.51 2.31 1.7 0 1.07-.75 1.84-1.86 1.84a2.2 2.2 0 0 1-1.91-1.2l-.8.37c.5 1 1.53 1.72 2.76 1.72Zm8.95-.15v-.92h-3.94l2.08-2.03c1.03-1.02 1.83-1.98 1.83-3.18 0-1.35-.98-2.44-2.6-2.44-1.17 0-2.12.63-2.65 1.72l.8.38c.34-.68.97-1.17 1.78-1.17 1.06 0 1.67.66 1.67 1.56 0 .76-.57 1.57-1.56 2.55l-2.82 2.77v.76h5.4Zm2.89-4.13a2.26 2.26 0 0 0 2.27-2.28c0-1.26-1-2.28-2.27-2.28s-2.26 1.01-2.26 2.28c0 1.27 1 2.28 2.26 2.28Zm5.3-4.3h-.76l-4.14 8.43h.78l4.12-8.43Zm-5.3 3.61c-.83 0-1.54-.7-1.54-1.59 0-.9.7-1.58 1.54-1.58.84 0 1.55.69 1.55 1.58 0 .9-.7 1.6-1.55 1.6Zm6.41 4.96a2.26 2.26 0 0 0 2.28-2.28c0-1.26-1-2.28-2.28-2.28-1.26 0-2.26 1.01-2.26 2.28 0 1.27 1 2.28 2.26 2.28Zm0-.69c-.83 0-1.53-.7-1.53-1.59 0-.89.7-1.58 1.53-1.58.84 0 1.56.69 1.56 1.58 0 .9-.71 1.6-1.56 1.6Z" opacity=".4"/>
  <path fill="#292D32" d="M362.36 190.07c0-1.9-1.7-2.5-3.55-3.03-1.44-.38-2.65-.7-2.65-1.85 0-1.1 1.11-1.73 2.43-1.73 1.02 0 2.06.4 2.76 1.04l.74-.84a5.2 5.2 0 0 0-2.88-1.3v-1.67h-1.25v1.66c-1.83.19-3.03 1.29-3.03 2.8 0 1.95 1.77 2.51 3.3 2.9 1.66.44 2.89.8 2.89 2.05 0 1.24-1.1 1.89-2.5 1.89-1.23 0-2.52-.5-3.33-1.48l-.8.78a5.18 5.18 0 0 0 3.47 1.81v1.57h1.25v-1.56c1.8-.19 3.15-1.25 3.15-3.04Zm7.44 2.93v-1.15h-4.92l2.6-2.54c1.29-1.27 2.29-2.47 2.29-3.97 0-1.69-1.22-3.06-3.26-3.06-1.45 0-2.64.8-3.3 2.16l1 .47a2.52 2.52 0 0 1 2.23-1.47c1.32 0 2.08.83 2.08 1.96 0 .95-.71 1.97-1.95 3.18l-3.53 3.47v.95h6.76Zm6.91 0v-1.99h1.42v-1.11h-1.42v-7.44h-.94l-5.45 7.53V191h5.23V193h1.16Zm-1.16-8.5v5.4h-3.85l3.85-5.4Zm4.22 10.44c.8-.72 1.23-1.52 1.23-2.46 0-.73-.4-.96-.84-.96-.47 0-.85.3-.85.83 0 .41.37.8.76.8v.04c0 .27-.15.67-.84 1.26l.54.49ZM385 193v-10.54h-1.1l-2 .9v1.22l1.87-.81V193H385Zm5.9.2a3.6 3.6 0 0 0 3.67-3.66c0-2.2-1.44-3.62-3.45-3.62-.7 0-1.7.25-2.24.82l.22-3.13h4.7v-1.15h-5.75l-.4 5.54h1.13a2.61 2.61 0 0 1 2.11-1.11c1.44 0 2.52 1.03 2.52 2.62 0 1.5-1.14 2.59-2.51 2.59-1.01 0-1.88-.4-2.53-1.68l-.97.46a3.62 3.62 0 0 0 3.5 2.31Zm9.54-.03c2.56 0 4.38-2.03 4.38-5.44 0-3.41-1.82-5.44-4.38-5.44-2.55 0-4.37 2.03-4.37 5.44 0 3.41 1.82 5.44 4.37 5.44Zm0-1.19c-1.82 0-3.12-1.53-3.12-4.24 0-2.73 1.3-4.27 3.12-4.27 1.83 0 3.13 1.54 3.13 4.27 0 2.71-1.3 4.24-3.13 4.24Zm6.72 1.16c.5 0 .85-.35.85-.8 0-.46-.36-.82-.85-.82-.5 0-.85.36-.85.81 0 .45.35.81.85.81Zm4.86-.14v-10.54h-1.1l-2 .9v1.22l1.86-.81V193h1.24Zm3.85 0 4.8-9.51v-1.03h-6.81v1.16h5.41l-4.72 9.38h1.32Z"/>
  <path fill="#292D32" d="M380.37 213v-.92h-3.93l2.07-2.03c1.03-1.02 1.83-1.98 1.83-3.18 0-1.35-.98-2.44-2.6-2.44-1.17 0-2.11.63-2.64 1.72l.79.38c.35-.68.98-1.17 1.79-1.17 1.06 0 1.67.66 1.67 1.56 0 .76-.57 1.57-1.56 2.55l-2.83 2.77v.76h5.41Zm1.7.11c.4 0 .69-.28.69-.64s-.3-.65-.69-.65c-.4 0-.68.29-.68.65 0 .36.29.64.68.64Zm3.17-.11 3.84-7.6v-.83h-5.44v.92h4.33l-3.78 7.51h1.05Zm6.98.15c1.66 0 2.82-1.14 2.82-2.7 0-1.27-.9-2.57-2.66-2.48l2.18-2.5v-.9h-4.62v.93h3.44l-2.1 2.48v.74h.44c1.47 0 2.32.51 2.32 1.7 0 1.07-.76 1.84-1.87 1.84a2.2 2.2 0 0 1-1.9-1.2l-.8.37c.5 1 1.52 1.72 2.75 1.72Zm11.22-.15c1.31 0 2.46-.86 2.46-2.34 0-1.06-.7-1.92-1.6-2.12.65-.27 1.16-1 1.16-1.8 0-1.28-.91-2.17-2.38-2.17h-3.3V213h3.66Zm-2.7-7.59h2.3c.9 0 1.45.62 1.45 1.4 0 .77-.66 1.4-1.46 1.4h-2.29v-2.8Zm0 3.6h2.52c1 0 1.65.71 1.65 1.57a1.5 1.5 0 0 1-1.53 1.57h-2.64v-3.14Zm9.54 3.99v-7.5H413v-.93h-6.44v.93h2.72v7.5h.99Zm7.46.14c1.13 0 2.1-.45 2.85-1.08l-.55-.75c-.69.55-1.42.87-2.3.87a3.35 3.35 0 0 1-3.34-3.4c0-1.92 1.5-3.4 3.34-3.4.88 0 1.68.34 2.29.85l.56-.74a4.32 4.32 0 0 0-2.85-1.06 4.3 4.3 0 0 0-4.34 4.35 4.31 4.31 0 0 0 4.34 4.36Z" opacity=".4"/>
  <path fill="url(#D)" d="M254.23 210.38H252V215a1 1 0 0 0 1 1h68a1 1 0 0 0 1-1v-34.5l-1.92 2.91a1 1 0 0 1-1.81-.32l-.78-3.32a1 1 0 0 0-.98-.77h-2.79a1 1 0 0 0-.77.36l-1.95 2.36a1 1 0 0 1-1.25.25l-1.56-.86a1 1 0 0 0-1.45.63l-1.69 6.66a1 1 0 0 1-1.8.31l-1.22-1.84a.5.5 0 0 0-.88.09.5.5 0 0 1-.8.18l-.35-.3a.84.84 0 0 0-1.31.26l-1.3 2.71a1 1 0 0 1-1.18.53l-.74-.21a1 1 0 0 0-1.25.72l-2.2 9a1 1 0 0 1-.53.65l-2.5 1.22a1 1 0 0 1-1.35-.48l-1.4-3.02a1 1 0 0 0-1.83.03l-.24.56a1 1 0 0 1-.52.52l-1.77.78a1 1 0 0 0-.56.64l-1.22 4.27a1 1 0 0 1-.65.67l-2.56.85a1 1 0 0 0-.54.41l-1.37 2.19a1 1 0 0 1-1.66.06l-.43-.6a1 1 0 0 0-1.43-.19l-3.88 3.08a1 1 0 0 1-1.27-.02l-.63-.53a1 1 0 0 0-1.3.01l-.79.68a1 1 0 0 1-.65.25h-2.57a1 1 0 0 1-.77-.36l-2.25-2.7a1 1 0 0 0-1.6.08l-.68 1.03a1 1 0 0 1-.84.45Z"/>
  <path stroke="#F7931A" stroke-linecap="round" d="M252.42 210.38h1.81a1 1 0 0 0 .84-.45l.67-1.03a1 1 0 0 1 1.6-.09l2.26 2.7a1 1 0 0 0 .76.37h2.57a1 1 0 0 0 .66-.25l.6-.53a1 1 0 0 1 1.47.16l.6.81a1 1 0 0 0 1.5.12l3.7-3.61a1 1 0 0 1 1.5.12l.37.5a1 1 0 0 0 1.65-.06l1.37-2.19a1 1 0 0 1 .53-.41l2.57-.85a1 1 0 0 0 .65-.67l1.22-4.27a1 1 0 0 1 .56-.64l1.77-.78a1 1 0 0 0 .52-.52l.24-.56a1 1 0 0 1 1.83-.03l1.4 3.02a1 1 0 0 0 1.34.48l2.5-1.22a1 1 0 0 0 .54-.66l2.2-8.99a1 1 0 0 1 1.25-.72l.74.21a1 1 0 0 0 1.19-.53l1.29-2.7c.24-.51.9-.65 1.31-.28l.35.3a.5.5 0 0 0 .8-.17v0a.5.5 0 0 1 .88-.09l1.22 1.84a1 1 0 0 0 1.8-.3l1.7-6.66a1 1 0 0 1 1.44-.64l1.56.86a1 1 0 0 0 1.25-.25l1.95-2.36a1 1 0 0 1 .77-.36h2.8a1 1 0 0 1 .97.77l.73 3.11a1 1 0 0 0 1.84.27l1.52-2.66"/>
  <defs>
    <filter id="a" width="312.24" height="318.82" x="45.26" y="216.38" color-interpolation-filters="sRGB" filterUnits="userSpaceOnUse">
      <feFlood flood-opacity="0" result="BackgroundImageFix"/>
      <feColorMatrix in="SourceAlpha" result="hardAlpha" values="0 0 0 0 0 0 0 0 0 0 0 0 0 0 0 0 0 0 127 0"/>
      <feOffset dy="4"/>
      <feGaussianBlur stdDeviation="50"/>
      <feComposite in2="hardAlpha" operator="out"/>
      <feColorMatrix values="0 0 0 0 0 0 0 0 0 0 0 0 0 0 0 0 0 0 0.2 0"/>
      <feBlend in2="BackgroundImageFix" result="effect1_dropShadow_92_2742"/>
      <feBlend in="SourceGraphic" in2="effect1_dropShadow_92_2742" result="shape"/>
    </filter>
    <filter id="b" width="149.89" height="183.63" x="142.62" y="277.38" color-interpolation-filters="sRGB" filterUnits="userSpaceOnUse">
      <feFlood flood-opacity="0" result="BackgroundImageFix"/>
      <feGaussianBlur in="BackgroundImageFix" stdDeviation="17.5"/>
      <feComposite in2="SourceAlpha" operator="in" result="effect1_backgroundBlur_92_2742"/>
      <feBlend in="SourceGraphic" in2="effect1_backgroundBlur_92_2742" result="shape"/>
    </filter>
    <filter id="e" width="104.2" height="113.91" x="146.31" y="316.02" color-interpolation-filters="sRGB" filterUnits="userSpaceOnUse">
      <feFlood flood-opacity="0" result="BackgroundImageFix"/>
      <feBlend in="SourceGraphic" in2="BackgroundImageFix" result="shape"/>
      <feColorMatrix in="SourceAlpha" result="hardAlpha" values="0 0 0 0 0 0 0 0 0 0 0 0 0 0 0 0 0 0 127 0"/>
      <feOffset dx="4" dy="-6"/>
      <feGaussianBlur stdDeviation="2"/>
      <feComposite in2="hardAlpha" k2="-1" k3="1" operator="arithmetic"/>
      <feColorMatrix values="0 0 0 0 0.316667 0 0 0 0 0.316667 0 0 0 0 0.316667 0 0 0 0.1 0"/>
      <feBlend in2="shape" result="effect1_innerShadow_92_2742"/>
      <feColorMatrix in="SourceAlpha" result="hardAlpha" values="0 0 0 0 0 0 0 0 0 0 0 0 0 0 0 0 0 0 127 0"/>
      <feOffset dx="-4" dy="6"/>
      <feGaussianBlur stdDeviation="2"/>
      <feComposite in2="hardAlpha" k2="-1" k3="1" operator="arithmetic"/>
      <feColorMatrix values="0 0 0 0 0.270833 0 0 0 0 0.270833 0 0 0 0 0.270833 0 0 0 0.1 0"/>
      <feBlend in2="effect1_innerShadow_92_2742" result="effect2_innerShadow_92_2742"/>
      <feColorMatrix in="SourceAlpha" result="hardAlpha" values="0 0 0 0 0 0 0 0 0 0 0 0 0 0 0 0 0 0 127 0"/>
      <feOffset dx="-4" dy="-4"/>
      <feGaussianBlur stdDeviation="2"/>
      <feComposite in2="hardAlpha" k2="-1" k3="1" operator="arithmetic"/>
      <feColorMatrix values="0 0 0 0 0.270833 0 0 0 0 0.270833 0 0 0 0 0.270833 0 0 0 0.1 0"/>
      <feBlend in2="effect2_innerShadow_92_2742" result="effect3_innerShadow_92_2742"/>
    </filter>
    <filter id="g" width="51.88" height="60.79" x="174.43" y="345.38" color-interpolation-filters="sRGB" filterUnits="userSpaceOnUse">
      <feFlood flood-opacity="0" result="BackgroundImageFix"/>
      <feColorMatrix in="SourceAlpha" result="hardAlpha" values="0 0 0 0 0 0 0 0 0 0 0 0 0 0 0 0 0 0 127 0"/>
      <feOffset dx="4.31" dy="1.44"/>
      <feGaussianBlur stdDeviation="1"/>
      <feComposite in2="hardAlpha" operator="out"/>
      <feColorMatrix values="0 0 0 0 0 0 0 0 0 0 0 0 0 0 0 0 0 0 0.15 0"/>
      <feBlend in2="BackgroundImageFix" result="effect1_dropShadow_92_2742"/>
      <feBlend in="SourceGraphic" in2="effect1_dropShadow_92_2742" result="shape"/>
    </filter>
    <filter id="h" width="290.83" height="295.93" x="108.73" y=".71" color-interpolation-filters="sRGB" filterUnits="userSpaceOnUse">
      <feFlood flood-opacity="0" result="BackgroundImageFix"/>
      <feColorMatrix in="SourceAlpha" result="hardAlpha" values="0 0 0 0 0 0 0 0 0 0 0 0 0 0 0 0 0 0 127 0"/>
      <feOffset dy="4"/>
      <feGaussianBlur stdDeviation="50"/>
      <feComposite in2="hardAlpha" operator="out"/>
      <feColorMatrix values="0 0 0 0 0 0 0 0 0 0 0 0 0 0 0 0 0 0 0.2 0"/>
      <feBlend in2="BackgroundImageFix" result="effect1_dropShadow_92_2742"/>
      <feBlend in="SourceGraphic" in2="effect1_dropShadow_92_2742" result="shape"/>
    </filter>
    <filter id="i" width="137.19" height="162.47" x="197.37" y="61.71" color-interpolation-filters="sRGB" filterUnits="userSpaceOnUse">
      <feFlood flood-opacity="0" result="BackgroundImageFix"/>
      <feGaussianBlur in="BackgroundImageFix" stdDeviation="17.5"/>
      <feComposite in2="SourceAlpha" operator="in" result="effect1_backgroundBlur_92_2742"/>
      <feBlend in="SourceGraphic" in2="effect1_backgroundBlur_92_2742" result="shape"/>
    </filter>
    <filter id="l" width="84.72" height="92.13" x="208.78" y="100.34" color-interpolation-filters="sRGB" filterUnits="userSpaceOnUse">
      <feFlood flood-opacity="0" result="BackgroundImageFix"/>
      <feBlend in="SourceGraphic" in2="BackgroundImageFix" result="shape"/>
      <feColorMatrix in="SourceAlpha" result="hardAlpha" values="0 0 0 0 0 0 0 0 0 0 0 0 0 0 0 0 0 0 127 0"/>
      <feOffset dx="4" dy="-6"/>
      <feGaussianBlur stdDeviation="2"/>
      <feComposite in2="hardAlpha" k2="-1" k3="1" operator="arithmetic"/>
      <feColorMatrix values="0 0 0 0 0.316667 0 0 0 0 0.316667 0 0 0 0 0.316667 0 0 0 0.1 0"/>
      <feBlend in2="shape" result="effect1_innerShadow_92_2742"/>
      <feColorMatrix in="SourceAlpha" result="hardAlpha" values="0 0 0 0 0 0 0 0 0 0 0 0 0 0 0 0 0 0 127 0"/>
      <feOffset dx="-4" dy="6"/>
      <feGaussianBlur stdDeviation="2"/>
      <feComposite in2="hardAlpha" k2="-1" k3="1" operator="arithmetic"/>
      <feColorMatrix values="0 0 0 0 0.270833 0 0 0 0 0.270833 0 0 0 0 0.270833 0 0 0 0.1 0"/>
      <feBlend in2="effect1_innerShadow_92_2742" result="effect2_innerShadow_92_2742"/>
      <feColorMatrix in="SourceAlpha" result="hardAlpha" values="0 0 0 0 0 0 0 0 0 0 0 0 0 0 0 0 0 0 127 0"/>
      <feOffset dx="-4" dy="-4"/>
      <feGaussianBlur stdDeviation="2"/>
      <feComposite in2="hardAlpha" k2="-1" k3="1" operator="arithmetic"/>
      <feColorMatrix values="0 0 0 0 0.270833 0 0 0 0 0.270833 0 0 0 0 0.270833 0 0 0 0.1 0"/>
      <feBlend in2="effect2_innerShadow_92_2742" result="effect3_innerShadow_92_2742"/>
    </filter>
    <filter id="n" width="43.08" height="49.25" x="231.7" y="124.37" color-interpolation-filters="sRGB" filterUnits="userSpaceOnUse">
      <feFlood flood-opacity="0" result="BackgroundImageFix"/>
      <feColorMatrix in="SourceAlpha" result="hardAlpha" values="0 0 0 0 0 0 0 0 0 0 0 0 0 0 0 0 0 0 127 0"/>
      <feOffset dx="4.31" dy="1.44"/>
      <feGaussianBlur stdDeviation="1"/>
      <feComposite in2="hardAlpha" operator="out"/>
      <feColorMatrix values="0 0 0 0 0 0 0 0 0 0 0 0 0 0 0 0 0 0 0.15 0"/>
      <feBlend in2="BackgroundImageFix" result="effect1_dropShadow_92_2742"/>
      <feBlend in="SourceGraphic" in2="effect1_dropShadow_92_2742" result="shape"/>
    </filter>
    <filter id="o" width="282.33" height="285.68" x="411.62" y="151.41" color-interpolation-filters="sRGB" filterUnits="userSpaceOnUse">
      <feFlood flood-opacity="0" result="BackgroundImageFix"/>
      <feColorMatrix in="SourceAlpha" result="hardAlpha" values="0 0 0 0 0 0 0 0 0 0 0 0 0 0 0 0 0 0 127 0"/>
      <feOffset dy="4"/>
      <feGaussianBlur stdDeviation="50"/>
      <feComposite in2="hardAlpha" operator="out"/>
      <feColorMatrix values="0 0 0 0 0 0 0 0 0 0 0 0 0 0 0 0 0 0 0.2 0"/>
      <feBlend in2="BackgroundImageFix" result="effect1_dropShadow_92_2742"/>
      <feBlend in="SourceGraphic" in2="effect1_dropShadow_92_2742" result="shape"/>
    </filter>
    <filter id="p" width="128.43" height="154.9" x="500.53" y="213.19" color-interpolation-filters="sRGB" filterUnits="userSpaceOnUse">
      <feFlood flood-opacity="0" result="BackgroundImageFix"/>
      <feGaussianBlur in="BackgroundImageFix" stdDeviation="17.5"/>
      <feComposite in2="SourceAlpha" operator="in" result="effect1_backgroundBlur_92_2742"/>
      <feBlend in="SourceGraphic" in2="effect1_backgroundBlur_92_2742" result="shape"/>
    </filter>
    <filter id="s" width="77.14" height="82.42" x="510.95" y="247.47" color-interpolation-filters="sRGB" filterUnits="userSpaceOnUse">
      <feFlood flood-opacity="0" result="BackgroundImageFix"/>
      <feBlend in="SourceGraphic" in2="BackgroundImageFix" result="shape"/>
      <feColorMatrix in="SourceAlpha" result="hardAlpha" values="0 0 0 0 0 0 0 0 0 0 0 0 0 0 0 0 0 0 127 0"/>
      <feOffset dx="4" dy="-6"/>
      <feGaussianBlur stdDeviation="2"/>
      <feComposite in2="hardAlpha" k2="-1" k3="1" operator="arithmetic"/>
      <feColorMatrix values="0 0 0 0 0.316667 0 0 0 0 0.316667 0 0 0 0 0.316667 0 0 0 0.1 0"/>
      <feBlend in2="shape" result="effect1_innerShadow_92_2742"/>
      <feColorMatrix in="SourceAlpha" result="hardAlpha" values="0 0 0 0 0 0 0 0 0 0 0 0 0 0 0 0 0 0 127 0"/>
      <feOffset dx="-4" dy="6"/>
      <feGaussianBlur stdDeviation="2"/>
      <feComposite in2="hardAlpha" k2="-1" k3="1" operator="arithmetic"/>
      <feColorMatrix values="0 0 0 0 0.270833 0 0 0 0 0.270833 0 0 0 0 0.270833 0 0 0 0.1 0"/>
      <feBlend in2="effect1_innerShadow_92_2742" result="effect2_innerShadow_92_2742"/>
      <feColorMatrix in="SourceAlpha" result="hardAlpha" values="0 0 0 0 0 0 0 0 0 0 0 0 0 0 0 0 0 0 127 0"/>
      <feOffset dx="-4" dy="-4"/>
      <feGaussianBlur stdDeviation="2"/>
      <feComposite in2="hardAlpha" k2="-1" k3="1" operator="arithmetic"/>
      <feColorMatrix values="0 0 0 0 0.270833 0 0 0 0 0.270833 0 0 0 0 0.270833 0 0 0 0.1 0"/>
      <feBlend in2="effect2_innerShadow_92_2742" result="effect3_innerShadow_92_2742"/>
    </filter>
    <filter id="u" width="40.83" height="42.28" x="529.68" y="268.38" color-interpolation-filters="sRGB" filterUnits="userSpaceOnUse">
      <feFlood flood-opacity="0" result="BackgroundImageFix"/>
      <feColorMatrix in="SourceAlpha" result="hardAlpha" values="0 0 0 0 0 0 0 0 0 0 0 0 0 0 0 0 0 0 127 0"/>
      <feOffset dx="4.31" dy="1.44"/>
      <feGaussianBlur stdDeviation="1"/>
      <feComposite in2="hardAlpha" operator="out"/>
      <feColorMatrix values="0 0 0 0 0 0 0 0 0 0 0 0 0 0 0 0 0 0 0.15 0"/>
      <feBlend in2="BackgroundImageFix" result="effect1_dropShadow_92_2742"/>
      <feBlend in="SourceGraphic" in2="effect1_dropShadow_92_2742" result="shape"/>
    </filter>
    <filter id="v" width="411" height="166" x="187" y="255" color-interpolation-filters="sRGB" filterUnits="userSpaceOnUse">
      <feFlood flood-opacity="0" result="BackgroundImageFix"/>
      <feGaussianBlur in="BackgroundImageFix" stdDeviation="15"/>
      <feComposite in2="SourceAlpha" operator="in" result="effect1_backgroundBlur_92_2742"/>
      <feColorMatrix in="SourceAlpha" result="hardAlpha" values="0 0 0 0 0 0 0 0 0 0 0 0 0 0 0 0 0 0 127 0"/>
      <feOffset dy="20"/>
      <feGaussianBlur stdDeviation="20"/>
      <feComposite in2="hardAlpha" operator="out"/>
      <feColorMatrix values="0 0 0 0 0 0 0 0 0 0 0 0 0 0 0 0 0 0 0.05 0"/>
      <feBlend in2="effect1_backgroundBlur_92_2742" result="effect2_dropShadow_92_2742"/>
      <feBlend in="SourceGraphic" in2="effect2_dropShadow_92_2742" result="shape"/>
    </filter>
    <filter id="y" width="411" height="166" x="0" y="381" color-interpolation-filters="sRGB" filterUnits="userSpaceOnUse">
      <feFlood flood-opacity="0" result="BackgroundImageFix"/>
      <feGaussianBlur in="BackgroundImageFix" stdDeviation="15"/>
      <feComposite in2="SourceAlpha" operator="in" result="effect1_backgroundBlur_92_2742"/>
      <feColorMatrix in="SourceAlpha" result="hardAlpha" values="0 0 0 0 0 0 0 0 0 0 0 0 0 0 0 0 0 0 127 0"/>
      <feOffset dy="20"/>
      <feGaussianBlur stdDeviation="20"/>
      <feComposite in2="hardAlpha" operator="out"/>
      <feColorMatrix values="0 0 0 0 0 0 0 0 0 0 0 0 0 0 0 0 0 0 0.05 0"/>
      <feBlend in2="effect1_backgroundBlur_92_2742" result="effect2_dropShadow_92_2742"/>
      <feBlend in="SourceGraphic" in2="effect2_dropShadow_92_2742" result="shape"/>
    </filter>
    <filter id="B" width="411" height="166" x="60" y="129" color-interpolation-filters="sRGB" filterUnits="userSpaceOnUse">
      <feFlood flood-opacity="0" result="BackgroundImageFix"/>
      <feGaussianBlur in="BackgroundImageFix" stdDeviation="15"/>
      <feComposite in2="SourceAlpha" operator="in" result="effect1_backgroundBlur_92_2742"/>
      <feColorMatrix in="SourceAlpha" result="hardAlpha" values="0 0 0 0 0 0 0 0 0 0 0 0 0 0 0 0 0 0 127 0"/>
      <feOffset dy="20"/>
      <feGaussianBlur stdDeviation="20"/>
      <feComposite in2="hardAlpha" operator="out"/>
      <feColorMatrix values="0 0 0 0 0 0 0 0 0 0 0 0 0 0 0 0 0 0 0.05 0"/>
      <feBlend in2="effect1_backgroundBlur_92_2742" result="effect2_dropShadow_92_2742"/>
      <feBlend in="SourceGraphic" in2="effect2_dropShadow_92_2742" result="shape"/>
    </filter>
    <linearGradient id="d" x1="255.66" x2="116.21" y1="366.81" y2="390.79" gradientUnits="userSpaceOnUse">
      <stop stop-color="#F7931A"/>
      <stop offset=".41" stop-color="#FFD39F"/>
      <stop offset="1" stop-color="#F7931A"/>
    </linearGradient>
    <linearGradient id="f" x1="134.78" x2="234.02" y1="463.06" y2="373.85" gradientUnits="userSpaceOnUse">
      <stop stop-color="#FFD39F"/>
      <stop offset="1" stop-color="#fff" stop-opacity="0"/>
    </linearGradient>
    <linearGradient id="k" x1="296.47" x2="186.34" y1="139.96" y2="162.97" gradientUnits="userSpaceOnUse">
      <stop stop-color="#F7931A"/>
      <stop offset=".41" stop-color="#FFD39F"/>
      <stop offset="1" stop-color="#F7931A"/>
    </linearGradient>
    <linearGradient id="m" x1="203.13" x2="279.54" y1="219.8" y2="146.22" gradientUnits="userSpaceOnUse">
      <stop stop-color="#FFD39F"/>
      <stop offset="1" stop-color="#fff" stop-opacity="0"/>
    </linearGradient>
    <linearGradient id="r" x1="581.32" x2="499.28" y1="314.34" y2="256.46" gradientUnits="userSpaceOnUse">
      <stop stop-color="#F7931A"/>
      <stop offset=".41" stop-color="#FFD39F"/>
      <stop offset="1" stop-color="#F7931A"/>
    </linearGradient>
    <linearGradient id="t" x1="472.39" x2="566.93" y1="302.01" y2="307.09" gradientUnits="userSpaceOnUse">
      <stop stop-color="#FFD39F"/>
      <stop offset="1" stop-color="#fff" stop-opacity="0"/>
    </linearGradient>
    <linearGradient id="x" x1="414" x2="414" y1="306" y2="341" gradientUnits="userSpaceOnUse">
      <stop stop-color="#1276A7" stop-opacity=".46"/>
      <stop offset="1" stop-color="#ECFBF6" stop-opacity="0"/>
    </linearGradient>
    <linearGradient id="A" x1="227" x2="227" y1="431" y2="467" gradientUnits="userSpaceOnUse">
      <stop stop-color="#F1F2F8"/>
      <stop offset="1" stop-color="#F1F2F8" stop-opacity="0"/>
    </linearGradient>
    <linearGradient id="D" x1="287" x2="287" y1="179" y2="216" gradientUnits="userSpaceOnUse">
      <stop stop-color="#F7931A" stop-opacity=".3"/>
      <stop offset="1" stop-color="#FEF0EE" stop-opacity="0"/>
    </linearGradient>
    <radialGradient id="c" cx="0" cy="0" r="1" gradientTransform="matrix(-52.80373815 -11.30953752 9.65511767 -45.07932393 269.22 348.86)" gradientUnits="userSpaceOnUse">
      <stop offset=".32" stop-color="#FFAA43"/>
      <stop offset=".71" stop-color="#FFD39F"/>
      <stop offset="1" stop-color="#F7931A"/>
    </radialGradient>
    <radialGradient id="j" cx="0" cy="0" r="1" gradientTransform="rotate(-169.84 158.93 49.02) scale(42.9727 36.6957)" gradientUnits="userSpaceOnUse">
      <stop offset=".32" stop-color="#FFAA43"/>
      <stop offset=".71" stop-color="#FFD39F"/>
      <stop offset="1" stop-color="#F7931A"/>
    </radialGradient>
    <radialGradient id="q" cx="0" cy="0" r="1" gradientTransform="rotate(-122.85 383.56 -6.56) scale(38.3459 32.7435)" gradientUnits="userSpaceOnUse">
      <stop offset=".32" stop-color="#FFAA43"/>
      <stop offset=".71" stop-color="#FFD39F"/>
      <stop offset="1" stop-color="#F7931A"/>
    </radialGradient>
    <radialGradient id="w" cx="0" cy="0" r="1" gradientTransform="rotate(12.93 -1143.9 1144) scale(339.613 340.124)" gradientUnits="userSpaceOnUse">
      <stop stop-color="#fff" stop-opacity=".6"/>
      <stop offset="1" stop-color="#fff" stop-opacity=".1"/>
    </radialGradient>
    <radialGradient id="z" cx="0" cy="0" r="1" gradientTransform="rotate(12.93 -1793.3 381.98) scale(339.613 340.124)" gradientUnits="userSpaceOnUse">
      <stop stop-color="#fff" stop-opacity=".6"/>
      <stop offset="1" stop-color="#fff" stop-opacity=".1"/>
    </radialGradient>
    <radialGradient id="C" cx="0" cy="0" r="1" gradientTransform="rotate(12.93 -651.5 520.7) scale(339.613 340.124)" gradientUnits="userSpaceOnUse">
      <stop stop-color="#fff" stop-opacity=".6"/>
      <stop offset="1" stop-color="#fff" stop-opacity=".1"/>
    </radialGradient>
  </defs>
</svg>
