<svg xmlns="http://www.w3.org/2000/svg" fill="none" viewBox="0 0 1263 892"><g filter="url(#a)" opacity=".4" style="mix-blend-mode:luminosity"><g filter="url(#b)"><path stroke="url(#c)" stroke-opacity=".9" stroke-width="14" d="M1136.05 650.6c18.56 9.9 25.39 34.73 14.41 55-10.98 20.3-36.65 28.3-55.21 18.4"/></g><path fill="url(#d)" d="M1150.9 705.84c12.4-22.9 5.95-50.26-14.4-61.11-20.36-10.86-47.9-1.06-60.3 21.84-12.4 22.9-5.95 50.26 14.41 61.12 20.35 10.85 47.89 1.05 60.29-21.85Z"/><g filter="url(#e)"><path fill="#0A0C0E" fill-opacity=".04" d="M1147.21 703.71c11.14-20.58 5.34-45.18-12.95-54.94-18.3-9.75-43.75-.75-54.9 19.84-11.14 20.58-5.34 45.18 12.96 54.93 18.29 9.76 43.74.76 54.89-19.83Z"/></g><path stroke="url(#f)" stroke-opacity=".15" d="M1146.77 703.48c11.04-20.4 5.25-44.67-12.75-54.27-18.02-9.6-43.17-.75-54.21 19.63-11.05 20.4-5.26 44.66 12.74 54.26 18.02 9.6 43.18.76 54.22-19.62Z"/><g filter="url(#g)"><path fill="#F7931A" fill-rule="evenodd" d="M1128.75 688.27c2.67-3.96.38-7.82-3.5-11.5l4.2-5.09-3.23-2.57-4.1 4.96c-.85-.68-1.73-1.35-2.61-2.02l4.13-5-3.23-2.57-4.21 5.1c-.71-.55-1.41-1.08-2.08-1.62l.01-.01-4.46-3.55-2.73 3.3s2.42 1.86 2.35 1.88c1.31 1.04 1.13 2.1.74 2.83l-4.8 5.8c.09.08.21.17.33.3l-.34-.27-6.72 8.12c-.38.35-1.15.79-2.06.06.01.07-2.35-1.87-2.35-1.87l-3.71 3.2 4.21 3.34 1.41 1.13.89.73-4.26 5.15 3.23 2.57 4.21-5.1c.87.73 1.73 1.42 2.57 2.08l-4.2 5.08 3.24 2.57 4.25-5.14c5.68 4.02 10.57 5.74 15.08 1.22 3.64-3.63 3.16-6.93.66-10.1 2.63.58 5.14-.1 7.08-3Zm-13.62 7.41c-2.92 3.54-8.64-1.15-11.26-3.29l-.63-.5 5.64-6.83.81.62c2.76 2.1 8.42 6.4 5.44 10Zm-3.14-13.31c2.18 1.8 6.94 5.7 9.59 2.5 2.71-3.3-2.02-6.86-4.33-8.6l-.67-.52-5.12 6.19.53.43Z" clip-rule="evenodd"/></g></g><g filter="url(#h)" opacity=".4" style="mix-blend-mode:luminosity"><g filter="url(#i)"><path stroke="url(#j)" stroke-opacity=".9" stroke-width="14" d="M356.95 728.1c24.86 15.28 32.22 50.21 15.31 77.34-16.9 27.12-53.11 36-77.97 20.73"/></g><path fill="url(#k)" d="M372.86 805.8c19.09-30.63 12.46-69.03-14.8-85.77-27.26-16.75-66.21-5.54-85.3 25.09-19.1 30.62-12.47 69.02 14.8 85.76 27.26 16.75 66.2 5.54 85.3-25.09Z"/><g filter="url(#l)"><path fill="#0A0C0E" fill-opacity=".04" d="M367.92 802.53c17.16-27.52 11.2-62.04-13.3-77.1-24.51-15.05-60.5-4.76-77.65 22.77-17.17 27.52-11.21 62.04 13.3 77.1 24.5 15.05 60.49 4.76 77.65-22.77Z"/></g><path stroke="url(#m)" stroke-opacity=".15" d="M367.5 802.27c17.04-27.34 11.08-61.53-13.15-76.41-24.23-14.89-59.91-4.74-76.96 22.6-17.04 27.34-11.08 61.53 13.14 76.41 24.24 14.89 59.92 4.74 76.96-22.6Z"/><g filter="url(#n)"><path fill="#F7931A" fill-rule="evenodd" d="M343.93 780.07c4.04-5.28 1.18-10.84-3.9-16.28l6.27-6.71-4.27-3.86-6.12 6.54c-1.12-1-2.29-2.02-3.45-3.03l6.16-6.58-4.28-3.85-6.28 6.71c-.94-.81-1.86-1.62-2.75-2.41l.02-.03-5.9-5.31-4.08 4.37s3.21 2.78 3.11 2.8c1.73 1.55 1.4 3.02.79 4l-7.16 7.65c.12.11.27.26.43.44l-.45-.4-10.02 10.71c-.57.45-1.67 1-2.88-.1.01.1-3.1-2.8-3.1-2.8l-5.42 4.13 5.57 5.01 1.85 1.7 1.18 1.08-6.35 6.8 4.27 3.84 6.28-6.72c1.15 1.08 2.28 2.11 3.39 3.1l-6.26 6.7 4.28 3.85 6.34-6.78c7.56 6.08 14.2 8.88 20.86 3 5.36-4.75 4.98-9.38 1.77-13.99 3.61 1.02 7.15.3 10.1-3.58Zm-19.56 9.14c-4.36 4.66-11.92-2.34-15.37-5.54l-.83-.76 8.41-9 1.07.93c3.66 3.15 11.17 9.6 6.72 14.37Zm-3.23-18.78c2.88 2.68 9.15 8.52 13.1 4.29 4.06-4.33-2.22-9.7-5.28-12.32l-.9-.77-7.62 8.16.7.64Z" clip-rule="evenodd"/></g></g><g filter="url(#o)" opacity=".4" style="mix-blend-mode:luminosity"><g filter="url(#p)"><path stroke="url(#q)" stroke-opacity=".9" stroke-width="14" d="M120.7 234.49c16.51-13.12 41.97-9.58 56.1 8.51 14.15 18.09 11.17 44.8-5.34 57.91"/></g><path fill="url(#r)" d="M177.2 242.69c-15.97-20.42-43.59-25.32-61.68-10.94-18.1 14.39-20.2 43.52-4.23 63.94 15.97 20.42 43.59 25.31 61.69 10.93 18.1-14.38 20.19-43.51 4.22-63.93Z"/><g filter="url(#s)"><path fill="#0A0C0E" fill-opacity=".04" d="M173.77 245.24c-14.36-18.36-39.18-22.76-55.45-9.83-16.27 12.93-18.25 39.82-3.9 58.18 14.36 18.36 39.18 22.76 55.45 9.83 16.27-12.93 18.25-39.82 3.9-58.18Z"/></g><path stroke="url(#t)" stroke-opacity=".15" d="M173.38 245.55c-14.22-18.19-38.74-22.47-54.76-9.75-16.01 12.73-18.02 39.3-3.8 57.48 14.21 18.18 38.73 22.47 54.75 9.75 16.01-12.73 18.02-39.3 3.8-57.48Z"/><g filter="url(#u)"><path fill="#F7931A" fill-rule="evenodd" d="M152.62 256c-2.57-4.03-7.04-3.45-11.98-1.33l-2.99-5.9-3.66 1.96 2.9 5.74c-.96.51-1.94 1.06-2.9 1.6l-2.93-5.78-3.67 1.96 2.98 5.89-2.31 1.28-.02-.02-5.05 2.7 1.94 3.83s2.68-1.5 2.66-1.43c1.48-.79 2.4-.2 2.9.45l3.4 6.72c.1-.06.24-.12.4-.18l-.38.2 4.76 9.41c.16.5.26 1.37-.78 1.93.07.01-2.67 1.42-2.67 1.42l1.44 4.67 4.78-2.54 1.6-.84 1.03-.54 3.02 5.97 3.66-1.96-2.98-5.9c1.01-.51 2-1.03 2.94-1.53l2.97 5.87 3.67-1.96-3.01-5.95c5.99-3.63 9.54-7.45 7.2-13.4-1.87-4.8-5.1-5.66-9.01-4.62 1.59-2.2 1.97-4.77.09-7.72Zm1.32 15.49c2.07 4.09-4.55 7.5-7.57 9.06l-.72.38-4-7.9.9-.5c3.04-1.71 9.27-5.22 11.39-1.04Zm-13.5-2.4c2.52-1.3 8.03-4.12 6.15-7.84-1.92-3.8-7.11-.86-9.64.58l-.75.41 3.63 7.17.6-.32Z" clip-rule="evenodd"/></g></g><g filter="url(#v)" opacity=".4" style="mix-blend-mode:luminosity"><g filter="url(#w)"><path stroke="url(#x)" stroke-opacity=".9" stroke-width="14" d="M889.26 513.46c8.43 11.08 5.68 27.9-6.53 37.06-12.2 9.16-29.86 6.88-38.28-4.2"/></g><path fill="url(#y)" d="M882.93 550.78c13.78-10.34 17.46-28.58 8.22-40.73-9.24-12.15-28.51-13.87-42.3-3.52-13.78 10.35-17.46 28.58-8.22 40.73 9.25 12.15 28.52 13.87 42.3 3.52Z"/><g filter="url(#z)"><path fill="#0A0C0E" fill-opacity=".04" d="M881.3 548.48c12.39-9.3 15.7-25.7 7.38-36.62-8.3-10.92-26.1-12.53-38.49-3.23-12.39 9.3-15.7 25.7-7.38 36.61 8.3 10.93 26.1 12.54 38.49 3.24Z"/></g><path stroke="url(#A)" stroke-opacity=".15" d="M881 548.08c12.2-9.17 15.4-25.26 7.28-35.92-8.1-10.66-25.57-12.3-37.78-3.13-12.22 9.17-15.4 25.25-7.3 35.91 8.12 10.67 25.58 12.3 37.8 3.14Z"/><g filter="url(#B)"><path fill="#F7931A" fill-rule="evenodd" d="M874.5 534.35c2.7-1.65 2.4-4.62 1.07-7.92l3.95-1.9-1.24-2.46-3.84 1.86c-.33-.64-.67-1.3-1.02-1.94l3.88-1.88-1.24-2.45-3.95 1.91-.81-1.55h.01l-1.7-3.39-2.58 1.25s.95 1.79.9 1.77c.5 1 .1 1.6-.34 1.93l-4.5 2.17.11.27-.13-.26-6.3 3.05c-.34.1-.92.15-1.27-.54-.01.04-.9-1.78-.9-1.78l-3.12.9 1.61 3.19.53 1.07.34.69-4 1.93 1.24 2.45 3.95-1.91c.33.68.65 1.33.98 1.97l-3.94 1.9 1.23 2.45 4-1.93c2.31 4.01 4.79 6.4 8.76 4.92 3.21-1.18 3.84-3.3 3.2-5.91 1.44 1.07 3.14 1.36 5.12.14Zm-10.29.7c-2.74 1.33-4.9-3.1-5.88-5.11l-.24-.48 5.3-2.56.32.6c1.08 2.03 3.3 6.2.5 7.55Zm1.8-8.92c.83 1.7 2.61 5.37 5.1 4.17 2.55-1.23.69-4.7-.22-6.4l-.27-.5-4.8 2.33.2.4Z" clip-rule="evenodd"/></g></g><g filter="url(#C)" opacity=".4" style="mix-blend-mode:luminosity"><g filter="url(#D)"><path stroke="url(#E)" stroke-opacity=".9" stroke-width="14" d="M578.68 301.02c17.88-11.08 42.78-4.52 54.8 15.16 12.03 19.69 6.06 45.9-11.82 56.99"/></g><path fill="url(#F)" d="M633.9 315.92c-13.57-22.22-40.47-30.39-60.07-18.23-19.61 12.15-24.97 40.89-11.4 63.1 13.58 22.23 40.48 30.4 60.09 18.24 19.6-12.15 24.96-40.89 11.39-63.11Z"/><g filter="url(#G)"><path fill="#0A0C0E" fill-opacity=".04" d="M630.21 318.05c-12.2-19.98-36.38-27.32-54.01-16.4-17.63 10.93-22.62 37.46-10.41 57.43 12.2 19.98 36.38 27.32 54 16.4 17.63-10.93 22.63-37.46 10.42-57.43Z"/></g><path stroke="url(#H)" stroke-opacity=".15" d="M629.79 318.3c-12.1-19.78-35.99-26.97-53.33-16.22-17.35 10.76-22.34 36.96-10.25 56.74 12.1 19.8 35.98 26.98 53.33 16.23 17.35-10.76 22.33-36.96 10.25-56.74Z"/><g filter="url(#I)"><path fill="#F7931A" fill-rule="evenodd" d="M582.33 286.08c-2.1-4.3-6.6-4.27-11.76-2.75l-2.3-6.22-3.87 1.5 2.25 6.06c-1.02.4-2.05.83-3.07 1.25l-2.26-6.1-3.86 1.5 2.3 6.23-2.45 1-.01-.03-5.33 2.08 1.5 4.05s2.83-1.17 2.8-1.1c1.57-.61 2.4.08 2.84.8l2.62 7.08c.11-.04.25-.1.42-.13l-.4.16 3.67 9.93c.1.5.1 1.39-1 1.82.08.02-2.8 1.1-2.8 1.1l.9 4.82 5.04-1.97 1.69-.64 1.08-.41 2.33 6.3 3.86-1.51-2.3-6.23 3.1-1.18 2.28 6.2 3.87-1.5-2.32-6.29c6.36-2.9 10.32-6.28 8.67-12.48-1.33-5-4.43-6.24-8.45-5.67 1.83-2 2.5-4.51.96-7.67Zm-.43 15.57c1.6 4.32-5.36 6.93-8.54 8.12l-.75.28-3.09-8.34.94-.38c3.22-1.34 9.8-4.09 11.44.32Zm-13.15-4c2.66-.98 8.45-3.14 7-7.06-1.48-4.01-6.97-1.7-9.65-.58l-.79.33 2.8 7.56.64-.24Z" clip-rule="evenodd"/></g></g><g filter="url(#J)" opacity=".4" style="mix-blend-mode:luminosity"><g filter="url(#K)"><path stroke="url(#L)" stroke-opacity=".9" stroke-width="14" d="M762.44 94.31c28.22 7.33 45.46 38.58 37.22 69.47-8.24 30.88-40.24 49.96-68.46 42.63"/></g><path fill="url(#M)" d="M800.33 163.94c9.3-34.86-8.24-69.64-39.19-77.68-30.94-8.04-64.89 14.07-74.2 48.94-9.3 34.86 8.25 69.64 39.2 77.68 30.94 8.04 64.89-14.07 74.2-48.94Z"/><g filter="url(#N)"><path fill="#0A0C0E" fill-opacity=".04" d="M794.66 162.27c8.36-31.34-7.41-62.6-35.23-69.84-27.82-7.22-59.2 13.14-67.56 44.48-8.36 31.35 7.41 62.61 35.23 69.84 27.82 7.23 59.2-13.13 67.56-44.48Z"/></g><path stroke="url(#O)" stroke-opacity=".15" d="M794.18 162.15c8.3-31.14-7.38-62.09-34.88-69.23-27.5-7.15-58.64 13-66.94 44.12-8.31 31.13 7.37 62.08 34.87 69.23 27.5 7.14 58.64-13 66.95-44.12Z"/><g filter="url(#P)"><path fill="#F7931A" fill-rule="evenodd" d="M765.17 147.81c2.32-6.23-2.03-10.72-8.48-14.43l4.04-8.26-5.22-2.43-3.93 8.04a235.9 235.9 0 0 0-4.18-1.89l3.96-8.1-5.21-2.42-4.04 8.25c-1.14-.5-2.26-1-3.34-1.5l.01-.03-7.18-3.36-2.63 5.37s3.89 1.73 3.79 1.77c2.1.98 2.22 2.49 1.92 3.6l-4.6 9.41c.14.07.33.16.53.3l-.55-.26-6.44 13.18c-.4.6-1.3 1.44-2.77.75.03.09-3.8-1.77-3.8-1.77l-3.96 5.52 6.78 3.17 2.27 1.08 1.44.69-4.09 8.35 5.21 2.43 4.04-8.26c1.41.7 2.8 1.35 4.14 1.98l-4.02 8.23 5.21 2.43 4.08-8.34c9 3.6 16.17 4.34 20.81-3.24 3.74-6.1 2.02-10.41-2.4-13.89 3.76-.07 6.93-1.8 8.61-6.37Zm-16.02 14.46c-2.8 5.73-12.07 1.24-16.31-.8l-1.01-.49 5.41-11.07 1.29.58c4.42 1.94 13.48 5.92 10.62 11.78Zm-8.57-17.01c3.53 1.72 11.23 5.47 13.78.26 2.6-5.33-4.96-8.62-8.65-10.23l-1.08-.48-4.9 10.04.85.4Z" clip-rule="evenodd"/></g></g><g filter="url(#Q)" opacity=".4" style="mix-blend-mode:luminosity"><g filter="url(#R)"><path stroke="url(#S)" stroke-opacity=".9" stroke-width="14" d="M828.08 182.37c13.92-1.3 26.8 10 28.11 25.27 1.32 15.28-10 29.1-23.93 30.4"/></g><path fill="url(#T)" d="M856.52 207.6c-1.49-17.24-15.07-30.07-30.34-28.66-15.27 1.42-26.98 16.93-25.5 34.18 1.5 17.25 15.08 30.08 30.35 28.66 15.27-1.41 26.98-16.93 25.5-34.17Z"/><g filter="url(#U)"><path fill="#0A0C0E" fill-opacity=".04" d="M853.69 207.78c-1.34-15.51-13.55-27.05-27.28-25.77-13.73 1.27-24.56 15.58-23.22 31.08 1.33 15.5 13.55 27.04 27.27 25.77 13.73-1.28 24.57-15.58 23.23-31.09Z"/></g><path stroke="url(#V)" stroke-opacity=".15" d="M853.2 207.82c-1.33-15.29-13.35-26.56-26.75-25.31-13.4 1.24-24.08 15.25-22.77 30.53 1.32 15.3 13.35 26.56 26.74 25.32 13.4-1.25 24.1-15.26 22.77-30.54Z"/><g filter="url(#W)"><path fill="#F7931A" fill-rule="evenodd" d="M838.03 206.06c.03-3.2-2.66-4.5-6.18-5.13l.48-4.38-2.75-.25-.46 4.27c-.73-.07-1.47-.12-2.2-.17l.47-4.3-2.75-.25-.48 4.39-1.75-.14v-.01l-3.79-.35-.3 2.85s2.03.15 2 .18c1.1.1 1.4.76 1.44 1.31l-.53 5c.07 0 .17.02.28.05l-.29-.03-.76 7c-.08.33-.35.86-1.12.79.03.03-2-.18-2-.18l-.9 3.14 3.58.32 1.2.12.76.07-.47 4.44 2.74.25.48-4.4c.75.1 1.48.16 2.19.23l-.48 4.37 2.75.24.48-4.42c4.65.16 8-.68 8.86-4.86.7-3.36-.79-5.03-3.34-5.87 1.68-.65 2.82-1.95 2.84-4.28Zm-4.87 9.13c-.33 3.05-5.24 2.53-7.49 2.3l-.53-.05.63-5.88.68.05c2.3.16 7.04.47 6.7 3.58Zm-6.64-6.27c1.87.2 5.96.63 6.26-2.13.3-2.83-3.64-3.08-5.57-3.2l-.57-.05-.57 5.33.45.05Z" clip-rule="evenodd"/></g></g><defs><filter id="a" width="292.85" height="294.92" x="969.89" y="544.3" color-interpolation-filters="sRGB" filterUnits="userSpaceOnUse"><feFlood flood-opacity="0" result="BackgroundImageFix"/><feColorMatrix in="SourceAlpha" result="hardAlpha" values="0 0 0 0 0 0 0 0 0 0 0 0 0 0 0 0 0 0 127 0"/><feOffset dy="4"/><feGaussianBlur stdDeviation="50"/><feComposite in2="hardAlpha" operator="out"/><feColorMatrix values="0 0 0 0 0 0 0 0 0 0 0 0 0 0 0 0 0 0 0.2 0"/><feBlend in2="BackgroundImageFix" result="effect1_dropShadow_222_425"/><feBlend in="SourceGraphic" in2="effect1_dropShadow_222_425" result="shape"/></filter><filter id="b" width="140.83" height="160.78" x="1056.91" y="609.44" color-interpolation-filters="sRGB" filterUnits="userSpaceOnUse"><feFlood flood-opacity="0" result="BackgroundImageFix"/><feGaussianBlur in="BackgroundImageFix" stdDeviation="17.5"/><feComposite in2="SourceAlpha" operator="in" result="effect1_backgroundBlur_222_425"/><feBlend in="SourceGraphic" in2="effect1_backgroundBlur_222_425" result="shape"/></filter><filter id="e" width="87.18" height="90.65" x="1069.7" y="640.83" color-interpolation-filters="sRGB" filterUnits="userSpaceOnUse"><feFlood flood-opacity="0" result="BackgroundImageFix"/><feBlend in="SourceGraphic" in2="BackgroundImageFix" result="shape"/><feColorMatrix in="SourceAlpha" result="hardAlpha" values="0 0 0 0 0 0 0 0 0 0 0 0 0 0 0 0 0 0 127 0"/><feOffset dx="4" dy="-6"/><feGaussianBlur stdDeviation="2"/><feComposite in2="hardAlpha" k2="-1" k3="1" operator="arithmetic"/><feColorMatrix values="0 0 0 0 0.316667 0 0 0 0 0.316667 0 0 0 0 0.316667 0 0 0 0.1 0"/><feBlend in2="shape" result="effect1_innerShadow_222_425"/><feColorMatrix in="SourceAlpha" result="hardAlpha" values="0 0 0 0 0 0 0 0 0 0 0 0 0 0 0 0 0 0 127 0"/><feOffset dx="-4" dy="6"/><feGaussianBlur stdDeviation="2"/><feComposite in2="hardAlpha" k2="-1" k3="1" operator="arithmetic"/><feColorMatrix values="0 0 0 0 0.270833 0 0 0 0 0.270833 0 0 0 0 0.270833 0 0 0 0.1 0"/><feBlend in2="effect1_innerShadow_222_425" result="effect2_innerShadow_222_425"/><feColorMatrix in="SourceAlpha" result="hardAlpha" values="0 0 0 0 0 0 0 0 0 0 0 0 0 0 0 0 0 0 127 0"/><feOffset dx="-4" dy="-4"/><feGaussianBlur stdDeviation="2"/><feComposite in2="hardAlpha" k2="-1" k3="1" operator="arithmetic"/><feColorMatrix values="0 0 0 0 0.270833 0 0 0 0 0.270833 0 0 0 0 0.270833 0 0 0 0.1 0"/><feBlend in2="effect2_innerShadow_222_425" result="effect3_innerShadow_222_425"/></filter><filter id="g" width="45.83" height="44.9" x="1090.38" y="663.83" color-interpolation-filters="sRGB" filterUnits="userSpaceOnUse"><feFlood flood-opacity="0" result="BackgroundImageFix"/><feColorMatrix in="SourceAlpha" result="hardAlpha" values="0 0 0 0 0 0 0 0 0 0 0 0 0 0 0 0 0 0 127 0"/><feOffset dx="4.31" dy="1.44"/><feGaussianBlur stdDeviation="1"/><feComposite in2="hardAlpha" operator="out"/><feColorMatrix values="0 0 0 0 0 0 0 0 0 0 0 0 0 0 0 0 0 0 0.15 0"/><feBlend in2="BackgroundImageFix" result="effect1_dropShadow_222_425"/><feBlend in="SourceGraphic" in2="effect1_dropShadow_222_425" result="shape"/></filter><filter id="h" width="326.56" height="328.34" x="161.85" y="616.26" color-interpolation-filters="sRGB" filterUnits="userSpaceOnUse"><feFlood flood-opacity="0" result="BackgroundImageFix"/><feColorMatrix in="SourceAlpha" result="hardAlpha" values="0 0 0 0 0 0 0 0 0 0 0 0 0 0 0 0 0 0 127 0"/><feOffset dy="4"/><feGaussianBlur stdDeviation="50"/><feComposite in2="hardAlpha" operator="out"/><feColorMatrix values="0 0 0 0 0 0 0 0 0 0 0 0 0 0 0 0 0 0 0.2 0"/><feBlend in2="BackgroundImageFix" result="effect1_dropShadow_222_425"/><feBlend in="SourceGraphic" in2="effect1_dropShadow_222_425" result="shape"/></filter><filter id="i" width="167.83" height="188.43" x="255.58" y="687.17" color-interpolation-filters="sRGB" filterUnits="userSpaceOnUse"><feFlood flood-opacity="0" result="BackgroundImageFix"/><feGaussianBlur in="BackgroundImageFix" stdDeviation="17.5"/><feComposite in2="SourceAlpha" operator="in" result="effect1_backgroundBlur_222_425"/><feBlend in="SourceGraphic" in2="effect1_backgroundBlur_222_425" result="shape"/></filter><filter id="l" width="118.56" height="121.74" x="263.16" y="714.5" color-interpolation-filters="sRGB" filterUnits="userSpaceOnUse"><feFlood flood-opacity="0" result="BackgroundImageFix"/><feBlend in="SourceGraphic" in2="BackgroundImageFix" result="shape"/><feColorMatrix in="SourceAlpha" result="hardAlpha" values="0 0 0 0 0 0 0 0 0 0 0 0 0 0 0 0 0 0 127 0"/><feOffset dx="4" dy="-6"/><feGaussianBlur stdDeviation="2"/><feComposite in2="hardAlpha" k2="-1" k3="1" operator="arithmetic"/><feColorMatrix values="0 0 0 0 0.316667 0 0 0 0 0.316667 0 0 0 0 0.316667 0 0 0 0.1 0"/><feBlend in2="shape" result="effect1_innerShadow_222_425"/><feColorMatrix in="SourceAlpha" result="hardAlpha" values="0 0 0 0 0 0 0 0 0 0 0 0 0 0 0 0 0 0 127 0"/><feOffset dx="-4" dy="6"/><feGaussianBlur stdDeviation="2"/><feComposite in2="hardAlpha" k2="-1" k3="1" operator="arithmetic"/><feColorMatrix values="0 0 0 0 0.270833 0 0 0 0 0.270833 0 0 0 0 0.270833 0 0 0 0.1 0"/><feBlend in2="effect1_innerShadow_222_425" result="effect2_innerShadow_222_425"/><feColorMatrix in="SourceAlpha" result="hardAlpha" values="0 0 0 0 0 0 0 0 0 0 0 0 0 0 0 0 0 0 127 0"/><feOffset dx="-4" dy="-4"/><feGaussianBlur stdDeviation="2"/><feComposite in2="hardAlpha" k2="-1" k3="1" operator="arithmetic"/><feColorMatrix values="0 0 0 0 0.270833 0 0 0 0 0.270833 0 0 0 0 0.270833 0 0 0 0.1 0"/><feBlend in2="effect2_innerShadow_222_425" result="effect3_innerShadow_222_425"/></filter><filter id="n" width="61.96" height="60.16" x="290.65" y="744.69" color-interpolation-filters="sRGB" filterUnits="userSpaceOnUse"><feFlood flood-opacity="0" result="BackgroundImageFix"/><feColorMatrix in="SourceAlpha" result="hardAlpha" values="0 0 0 0 0 0 0 0 0 0 0 0 0 0 0 0 0 0 127 0"/><feOffset dx="4.31" dy="1.44"/><feGaussianBlur stdDeviation="1"/><feComposite in2="hardAlpha" operator="out"/><feColorMatrix values="0 0 0 0 0 0 0 0 0 0 0 0 0 0 0 0 0 0 0.15 0"/><feBlend in2="BackgroundImageFix" result="effect1_dropShadow_222_425"/><feBlend in="SourceGraphic" in2="effect1_dropShadow_222_425" result="shape"/></filter><filter id="o" width="292.29" height="295.31" x=".52" y="123.57" color-interpolation-filters="sRGB" filterUnits="userSpaceOnUse"><feFlood flood-opacity="0" result="BackgroundImageFix"/><feColorMatrix in="SourceAlpha" result="hardAlpha" values="0 0 0 0 0 0 0 0 0 0 0 0 0 0 0 0 0 0 127 0"/><feOffset dy="4"/><feGaussianBlur stdDeviation="50"/><feComposite in2="hardAlpha" operator="out"/><feColorMatrix values="0 0 0 0 0 0 0 0 0 0 0 0 0 0 0 0 0 0 0.2 0"/><feBlend in2="BackgroundImageFix" result="effect1_dropShadow_222_425"/><feBlend in="SourceGraphic" in2="effect1_dropShadow_222_425" result="shape"/></filter><filter id="p" width="146.41" height="156.85" x="81.39" y="184.57" color-interpolation-filters="sRGB" filterUnits="userSpaceOnUse"><feFlood flood-opacity="0" result="BackgroundImageFix"/><feGaussianBlur in="BackgroundImageFix" stdDeviation="17.5"/><feComposite in2="SourceAlpha" operator="in" result="effect1_backgroundBlur_222_425"/><feBlend in="SourceGraphic" in2="effect1_backgroundBlur_222_425" result="shape"/></filter><filter id="s" width="86.63" height="90.85" x="100.78" y="223.99" color-interpolation-filters="sRGB" filterUnits="userSpaceOnUse"><feFlood flood-opacity="0" result="BackgroundImageFix"/><feBlend in="SourceGraphic" in2="BackgroundImageFix" result="shape"/><feColorMatrix in="SourceAlpha" result="hardAlpha" values="0 0 0 0 0 0 0 0 0 0 0 0 0 0 0 0 0 0 127 0"/><feOffset dx="4" dy="-6"/><feGaussianBlur stdDeviation="2"/><feComposite in2="hardAlpha" k2="-1" k3="1" operator="arithmetic"/><feColorMatrix values="0 0 0 0 0.316667 0 0 0 0 0.316667 0 0 0 0 0.316667 0 0 0 0.1 0"/><feBlend in2="shape" result="effect1_innerShadow_222_425"/><feColorMatrix in="SourceAlpha" result="hardAlpha" values="0 0 0 0 0 0 0 0 0 0 0 0 0 0 0 0 0 0 127 0"/><feOffset dx="-4" dy="6"/><feGaussianBlur stdDeviation="2"/><feComposite in2="hardAlpha" k2="-1" k3="1" operator="arithmetic"/><feColorMatrix values="0 0 0 0 0.270833 0 0 0 0 0.270833 0 0 0 0 0.270833 0 0 0 0.1 0"/><feBlend in2="effect1_innerShadow_222_425" result="effect2_innerShadow_222_425"/><feColorMatrix in="SourceAlpha" result="hardAlpha" values="0 0 0 0 0 0 0 0 0 0 0 0 0 0 0 0 0 0 127 0"/><feOffset dx="-4" dy="-4"/><feGaussianBlur stdDeviation="2"/><feComposite in2="hardAlpha" k2="-1" k3="1" operator="arithmetic"/><feColorMatrix values="0 0 0 0 0.270833 0 0 0 0 0.270833 0 0 0 0 0.270833 0 0 0 0.1 0"/><feBlend in2="effect2_innerShadow_222_425" result="effect3_innerShadow_222_425"/></filter><filter id="u" width="45.59" height="48.39" x="122.98" y="248.21" color-interpolation-filters="sRGB" filterUnits="userSpaceOnUse"><feFlood flood-opacity="0" result="BackgroundImageFix"/><feColorMatrix in="SourceAlpha" result="hardAlpha" values="0 0 0 0 0 0 0 0 0 0 0 0 0 0 0 0 0 0 127 0"/><feOffset dx="4.31" dy="1.44"/><feGaussianBlur stdDeviation="1"/><feComposite in2="hardAlpha" operator="out"/><feColorMatrix values="0 0 0 0 0 0 0 0 0 0 0 0 0 0 0 0 0 0 0.15 0"/><feBlend in2="BackgroundImageFix" result="effect1_dropShadow_222_425"/><feBlend in="SourceGraphic" in2="effect1_dropShadow_222_425" result="shape"/></filter><filter id="v" width="265.62" height="263.44" x="735.54" y="403.74" color-interpolation-filters="sRGB" filterUnits="userSpaceOnUse"><feFlood flood-opacity="0" result="BackgroundImageFix"/><feColorMatrix in="SourceAlpha" result="hardAlpha" values="0 0 0 0 0 0 0 0 0 0 0 0 0 0 0 0 0 0 127 0"/><feOffset dy="4"/><feGaussianBlur stdDeviation="50"/><feComposite in2="hardAlpha" operator="out"/><feColorMatrix values="0 0 0 0 0 0 0 0 0 0 0 0 0 0 0 0 0 0 0.2 0"/><feBlend in2="BackgroundImageFix" result="effect1_dropShadow_222_425"/><feBlend in="SourceGraphic" in2="effect1_dropShadow_222_425" result="shape"/></filter><filter id="w" width="132.31" height="123.92" x="803.85" y="474.25" color-interpolation-filters="sRGB" filterUnits="userSpaceOnUse"><feFlood flood-opacity="0" result="BackgroundImageFix"/><feGaussianBlur in="BackgroundImageFix" stdDeviation="17.5"/><feComposite in2="SourceAlpha" operator="in" result="effect1_backgroundBlur_222_425"/><feBlend in="SourceGraphic" in2="effect1_backgroundBlur_222_425" result="shape"/></filter><filter id="z" width="63.04" height="60" x="834.23" y="498.55" color-interpolation-filters="sRGB" filterUnits="userSpaceOnUse"><feFlood flood-opacity="0" result="BackgroundImageFix"/><feBlend in="SourceGraphic" in2="BackgroundImageFix" result="shape"/><feColorMatrix in="SourceAlpha" result="hardAlpha" values="0 0 0 0 0 0 0 0 0 0 0 0 0 0 0 0 0 0 127 0"/><feOffset dx="4" dy="-6"/><feGaussianBlur stdDeviation="2"/><feComposite in2="hardAlpha" k2="-1" k3="1" operator="arithmetic"/><feColorMatrix values="0 0 0 0 0.316667 0 0 0 0 0.316667 0 0 0 0 0.316667 0 0 0 0.1 0"/><feBlend in2="shape" result="effect1_innerShadow_222_425"/><feColorMatrix in="SourceAlpha" result="hardAlpha" values="0 0 0 0 0 0 0 0 0 0 0 0 0 0 0 0 0 0 127 0"/><feOffset dx="-4" dy="6"/><feGaussianBlur stdDeviation="2"/><feComposite in2="hardAlpha" k2="-1" k3="1" operator="arithmetic"/><feColorMatrix values="0 0 0 0 0.270833 0 0 0 0 0.270833 0 0 0 0 0.270833 0 0 0 0.1 0"/><feBlend in2="effect1_innerShadow_222_425" result="effect2_innerShadow_222_425"/><feColorMatrix in="SourceAlpha" result="hardAlpha" values="0 0 0 0 0 0 0 0 0 0 0 0 0 0 0 0 0 0 127 0"/><feOffset dx="-4" dy="-4"/><feGaussianBlur stdDeviation="2"/><feComposite in2="hardAlpha" k2="-1" k3="1" operator="arithmetic"/><feColorMatrix values="0 0 0 0 0.270833 0 0 0 0 0.270833 0 0 0 0 0.270833 0 0 0 0.1 0"/><feBlend in2="effect2_innerShadow_222_425" result="effect3_innerShadow_222_425"/></filter><filter id="B" width="35.87" height="29.93" x="849.96" y="514.07" color-interpolation-filters="sRGB" filterUnits="userSpaceOnUse"><feFlood flood-opacity="0" result="BackgroundImageFix"/><feColorMatrix in="SourceAlpha" result="hardAlpha" values="0 0 0 0 0 0 0 0 0 0 0 0 0 0 0 0 0 0 127 0"/><feOffset dx="4.31" dy="1.44"/><feGaussianBlur stdDeviation="1"/><feComposite in2="hardAlpha" operator="out"/><feColorMatrix values="0 0 0 0 0 0 0 0 0 0 0 0 0 0 0 0 0 0 0.15 0"/><feBlend in2="BackgroundImageFix" result="effect1_dropShadow_222_425"/><feBlend in="SourceGraphic" in2="effect1_dropShadow_222_425" result="shape"/></filter><filter id="C" width="294.76" height="307.56" x="451.97" y="181.11" color-interpolation-filters="sRGB" filterUnits="userSpaceOnUse"><feFlood flood-opacity="0" result="BackgroundImageFix"/><feColorMatrix in="SourceAlpha" result="hardAlpha" values="0 0 0 0 0 0 0 0 0 0 0 0 0 0 0 0 0 0 127 0"/><feOffset dy="4"/><feGaussianBlur stdDeviation="50"/><feComposite in2="hardAlpha" operator="out"/><feColorMatrix values="0 0 0 0 0 0 0 0 0 0 0 0 0 0 0 0 0 0 0.2 0"/><feBlend in2="BackgroundImageFix" result="effect1_dropShadow_222_425"/><feBlend in="SourceGraphic" in2="effect1_dropShadow_222_425" result="shape"/></filter><filter id="D" width="141.7" height="160.52" x="540.03" y="253.62" color-interpolation-filters="sRGB" filterUnits="userSpaceOnUse"><feFlood flood-opacity="0" result="BackgroundImageFix"/><feGaussianBlur in="BackgroundImageFix" stdDeviation="17.5"/><feComposite in2="SourceAlpha" operator="in" result="effect1_backgroundBlur_222_425"/><feBlend in="SourceGraphic" in2="effect1_backgroundBlur_222_425" result="shape"/></filter><filter id="G" width="85.86" height="91.94" x="555.07" y="292.59" color-interpolation-filters="sRGB" filterUnits="userSpaceOnUse"><feFlood flood-opacity="0" result="BackgroundImageFix"/><feBlend in="SourceGraphic" in2="BackgroundImageFix" result="shape"/><feColorMatrix in="SourceAlpha" result="hardAlpha" values="0 0 0 0 0 0 0 0 0 0 0 0 0 0 0 0 0 0 127 0"/><feOffset dx="4" dy="-6"/><feGaussianBlur stdDeviation="2"/><feComposite in2="hardAlpha" k2="-1" k3="1" operator="arithmetic"/><feColorMatrix values="0 0 0 0 0.316667 0 0 0 0 0.316667 0 0 0 0 0.316667 0 0 0 0.1 0"/><feBlend in2="shape" result="effect1_innerShadow_222_425"/><feColorMatrix in="SourceAlpha" result="hardAlpha" values="0 0 0 0 0 0 0 0 0 0 0 0 0 0 0 0 0 0 127 0"/><feOffset dx="-4" dy="6"/><feGaussianBlur stdDeviation="2"/><feComposite in2="hardAlpha" k2="-1" k3="1" operator="arithmetic"/><feColorMatrix values="0 0 0 0 0.270833 0 0 0 0 0.270833 0 0 0 0 0.270833 0 0 0 0.1 0"/><feBlend in2="effect1_innerShadow_222_425" result="effect2_innerShadow_222_425"/><feColorMatrix in="SourceAlpha" result="hardAlpha" values="0 0 0 0 0 0 0 0 0 0 0 0 0 0 0 0 0 0 127 0"/><feOffset dx="-4" dy="-4"/><feGaussianBlur stdDeviation="2"/><feComposite in2="hardAlpha" k2="-1" k3="1" operator="arithmetic"/><feColorMatrix values="0 0 0 0 0.270833 0 0 0 0 0.270833 0 0 0 0 0.270833 0 0 0 0.1 0"/><feBlend in2="effect2_innerShadow_222_425" result="effect3_innerShadow_222_425"/></filter><filter id="I" width="44.53" height="49.3" x="551.97" y="276.54" color-interpolation-filters="sRGB" filterUnits="userSpaceOnUse"><feFlood flood-opacity="0" result="BackgroundImageFix"/><feColorMatrix in="SourceAlpha" result="hardAlpha" values="0 0 0 0 0 0 0 0 0 0 0 0 0 0 0 0 0 0 127 0"/><feOffset dx="4.31" dy="1.44"/><feGaussianBlur stdDeviation="1"/><feComposite in2="hardAlpha" operator="out"/><feColorMatrix values="0 0 0 0 0 0 0 0 0 0 0 0 0 0 0 0 0 0 0.15 0"/><feBlend in2="BackgroundImageFix" result="effect1_dropShadow_222_425"/><feBlend in="SourceGraphic" in2="effect1_dropShadow_222_425" result="shape"/></filter><filter id="J" width="324.27" height="330.37" x="584.46" y="-11.39" color-interpolation-filters="sRGB" filterUnits="userSpaceOnUse"><feFlood flood-opacity="0" result="BackgroundImageFix"/><feColorMatrix in="SourceAlpha" result="hardAlpha" values="0 0 0 0 0 0 0 0 0 0 0 0 0 0 0 0 0 0 127 0"/><feOffset dy="4"/><feGaussianBlur stdDeviation="50"/><feComposite in2="hardAlpha" operator="out"/><feColorMatrix values="0 0 0 0 0 0 0 0 0 0 0 0 0 0 0 0 0 0 0.2 0"/><feBlend in2="BackgroundImageFix" result="effect1_dropShadow_222_425"/><feBlend in="SourceGraphic" in2="effect1_dropShadow_222_425" result="shape"/></filter><filter id="K" width="149.33" height="197.43" x="694.39" y="52.55" color-interpolation-filters="sRGB" filterUnits="userSpaceOnUse"><feFlood flood-opacity="0" result="BackgroundImageFix"/><feGaussianBlur in="BackgroundImageFix" stdDeviation="17.5"/><feComposite in2="SourceAlpha" operator="in" result="effect1_backgroundBlur_222_425"/><feBlend in="SourceGraphic" in2="effect1_backgroundBlur_222_425" result="shape"/></filter><filter id="N" width="115.27" height="125.24" x="685.63" y="86.97" color-interpolation-filters="sRGB" filterUnits="userSpaceOnUse"><feFlood flood-opacity="0" result="BackgroundImageFix"/><feBlend in="SourceGraphic" in2="BackgroundImageFix" result="shape"/><feColorMatrix in="SourceAlpha" result="hardAlpha" values="0 0 0 0 0 0 0 0 0 0 0 0 0 0 0 0 0 0 127 0"/><feOffset dx="4" dy="-6"/><feGaussianBlur stdDeviation="2"/><feComposite in2="hardAlpha" k2="-1" k3="1" operator="arithmetic"/><feColorMatrix values="0 0 0 0 0.316667 0 0 0 0 0.316667 0 0 0 0 0.316667 0 0 0 0.1 0"/><feBlend in2="shape" result="effect1_innerShadow_222_425"/><feColorMatrix in="SourceAlpha" result="hardAlpha" values="0 0 0 0 0 0 0 0 0 0 0 0 0 0 0 0 0 0 127 0"/><feOffset dx="-4" dy="6"/><feGaussianBlur stdDeviation="2"/><feComposite in2="hardAlpha" k2="-1" k3="1" operator="arithmetic"/><feColorMatrix values="0 0 0 0 0.270833 0 0 0 0 0.270833 0 0 0 0 0.270833 0 0 0 0.1 0"/><feBlend in2="effect1_innerShadow_222_425" result="effect2_innerShadow_222_425"/><feColorMatrix in="SourceAlpha" result="hardAlpha" values="0 0 0 0 0 0 0 0 0 0 0 0 0 0 0 0 0 0 127 0"/><feOffset dx="-4" dy="-4"/><feGaussianBlur stdDeviation="2"/><feComposite in2="hardAlpha" k2="-1" k3="1" operator="arithmetic"/><feColorMatrix values="0 0 0 0 0.270833 0 0 0 0 0.270833 0 0 0 0 0.270833 0 0 0 0.1 0"/><feBlend in2="effect2_innerShadow_222_425" result="effect3_innerShadow_222_425"/></filter><filter id="P" width="59.03" height="65.33" x="713.09" y="117.75" color-interpolation-filters="sRGB" filterUnits="userSpaceOnUse"><feFlood flood-opacity="0" result="BackgroundImageFix"/><feColorMatrix in="SourceAlpha" result="hardAlpha" values="0 0 0 0 0 0 0 0 0 0 0 0 0 0 0 0 0 0 127 0"/><feOffset dx="4.31" dy="1.44"/><feGaussianBlur stdDeviation="1"/><feComposite in2="hardAlpha" operator="out"/><feColorMatrix values="0 0 0 0 0 0 0 0 0 0 0 0 0 0 0 0 0 0 0.15 0"/><feBlend in2="BackgroundImageFix" result="effect1_dropShadow_222_425"/><feBlend in="SourceGraphic" in2="effect1_dropShadow_222_425" result="shape"/></filter><filter id="Q" width="262.73" height="269.75" x="700.56" y="79.26" color-interpolation-filters="sRGB" filterUnits="userSpaceOnUse"><feFlood flood-opacity="0" result="BackgroundImageFix"/><feColorMatrix in="SourceAlpha" result="hardAlpha" values="0 0 0 0 0 0 0 0 0 0 0 0 0 0 0 0 0 0 127 0"/><feOffset dy="4"/><feGaussianBlur stdDeviation="50"/><feComposite in2="hardAlpha" operator="out"/><feColorMatrix values="0 0 0 0 0 0 0 0 0 0 0 0 0 0 0 0 0 0 0.2 0"/><feBlend in2="BackgroundImageFix" result="effect1_dropShadow_222_425"/><feBlend in="SourceGraphic" in2="effect1_dropShadow_222_425" result="shape"/></filter><filter id="R" width="105.82" height="139.75" x="792.47" y="140.26" color-interpolation-filters="sRGB" filterUnits="userSpaceOnUse"><feFlood flood-opacity="0" result="BackgroundImageFix"/><feGaussianBlur in="BackgroundImageFix" stdDeviation="17.5"/><feComposite in2="SourceAlpha" operator="in" result="effect1_backgroundBlur_222_425"/><feBlend in="SourceGraphic" in2="effect1_backgroundBlur_222_425" result="shape"/></filter><filter id="U" width="58.73" height="65.04" x="799.08" y="177.91" color-interpolation-filters="sRGB" filterUnits="userSpaceOnUse"><feFlood flood-opacity="0" result="BackgroundImageFix"/><feBlend in="SourceGraphic" in2="BackgroundImageFix" result="shape"/><feColorMatrix in="SourceAlpha" result="hardAlpha" values="0 0 0 0 0 0 0 0 0 0 0 0 0 0 0 0 0 0 127 0"/><feOffset dx="4" dy="-6"/><feGaussianBlur stdDeviation="2"/><feComposite in2="hardAlpha" k2="-1" k3="1" operator="arithmetic"/><feColorMatrix values="0 0 0 0 0.316667 0 0 0 0 0.316667 0 0 0 0 0.316667 0 0 0 0.1 0"/><feBlend in2="shape" result="effect1_innerShadow_222_425"/><feColorMatrix in="SourceAlpha" result="hardAlpha" values="0 0 0 0 0 0 0 0 0 0 0 0 0 0 0 0 0 0 127 0"/><feOffset dx="-4" dy="6"/><feGaussianBlur stdDeviation="2"/><feComposite in2="hardAlpha" k2="-1" k3="1" operator="arithmetic"/><feColorMatrix values="0 0 0 0 0.270833 0 0 0 0 0.270833 0 0 0 0 0.270833 0 0 0 0.1 0"/><feBlend in2="effect1_innerShadow_222_425" result="effect2_innerShadow_222_425"/><feColorMatrix in="SourceAlpha" result="hardAlpha" values="0 0 0 0 0 0 0 0 0 0 0 0 0 0 0 0 0 0 127 0"/><feOffset dx="-4" dy="-4"/><feGaussianBlur stdDeviation="2"/><feComposite in2="hardAlpha" k2="-1" k3="1" operator="arithmetic"/><feColorMatrix values="0 0 0 0 0.270833 0 0 0 0 0.270833 0 0 0 0 0.270833 0 0 0 0.1 0"/><feBlend in2="effect2_innerShadow_222_425" result="effect3_innerShadow_222_425"/></filter><filter id="W" width="28.56" height="33.64" x="816.45" y="195.29" color-interpolation-filters="sRGB" filterUnits="userSpaceOnUse"><feFlood flood-opacity="0" result="BackgroundImageFix"/><feColorMatrix in="SourceAlpha" result="hardAlpha" values="0 0 0 0 0 0 0 0 0 0 0 0 0 0 0 0 0 0 127 0"/><feOffset dx="4.31" dy="1.44"/><feGaussianBlur stdDeviation="1"/><feComposite in2="hardAlpha" operator="out"/><feColorMatrix values="0 0 0 0 0 0 0 0 0 0 0 0 0 0 0 0 0 0 0.15 0"/><feBlend in2="BackgroundImageFix" result="effect1_dropShadow_222_425"/><feBlend in="SourceGraphic" in2="effect1_dropShadow_222_425" result="shape"/></filter><linearGradient id="d" x1="1145.16" x2="1061.9" y1="719.53" y2="642.52" gradientUnits="userSpaceOnUse"><stop stop-color="#F7931A"/><stop offset=".41" stop-color="#FFD39F"/><stop offset="1" stop-color="#F7931A"/></linearGradient><linearGradient id="f" x1="1024.96" x2="1130.13" y1="689.6" y2="709.15" gradientUnits="userSpaceOnUse"><stop stop-color="#FFD39F"/><stop offset="1" stop-color="#fff" stop-opacity="0"/></linearGradient><linearGradient id="k" x1="363.75" x2="255.05" y1="824.25" y2="710.56" gradientUnits="userSpaceOnUse"><stop stop-color="#F7931A"/><stop offset=".41" stop-color="#FFD39F"/><stop offset="1" stop-color="#F7931A"/></linearGradient><linearGradient id="m" x1="199.89" x2="343.83" y1="772.6" y2="808.55" gradientUnits="userSpaceOnUse"><stop stop-color="#FFD39F"/><stop offset="1" stop-color="#fff" stop-opacity="0"/></linearGradient><linearGradient id="r" x1="187.42" x2="83.35" y1="253.37" y2="298.85" gradientUnits="userSpaceOnUse"><stop stop-color="#F7931A"/><stop offset=".41" stop-color="#FFD39F"/><stop offset="1" stop-color="#F7931A"/></linearGradient><linearGradient id="t" x1="111.78" x2="171.64" y1="351.79" y2="262.89" gradientUnits="userSpaceOnUse"><stop stop-color="#FFD39F"/><stop offset="1" stop-color="#fff" stop-opacity="0"/></linearGradient><linearGradient id="y" x1="875.69" x2="846.89" y1="557.43" y2="488.12" gradientUnits="userSpaceOnUse"><stop stop-color="#F7931A"/><stop offset=".41" stop-color="#FFD39F"/><stop offset="1" stop-color="#F7931A"/></linearGradient><linearGradient id="A" x1="811.68" x2="869.52" y1="506.22" y2="547.03" gradientUnits="userSpaceOnUse"><stop stop-color="#FFD39F"/><stop offset="1" stop-color="#fff" stop-opacity="0"/></linearGradient><linearGradient id="F" x1="642.87" x2="534.46" y1="327.76" y2="361.09" gradientUnits="userSpaceOnUse"><stop stop-color="#F7931A"/><stop offset=".41" stop-color="#FFD39F"/><stop offset="1" stop-color="#F7931A"/></linearGradient><linearGradient id="H" x1="556.62" x2="626.34" y1="416.67" y2="335.55" gradientUnits="userSpaceOnUse"><stop stop-color="#FFD39F"/><stop offset="1" stop-color="#fff" stop-opacity="0"/></linearGradient><linearGradient id="M" x1="797.02" x2="659.9" y1="184.26" y2="107.4" gradientUnits="userSpaceOnUse"><stop stop-color="#F7931A"/><stop offset=".41" stop-color="#FFD39F"/><stop offset="1" stop-color="#F7931A"/></linearGradient><linearGradient id="O" x1="625.34" x2="773.4" y1="182.79" y2="175.12" gradientUnits="userSpaceOnUse"><stop stop-color="#FFD39F"/><stop offset="1" stop-color="#fff" stop-opacity="0"/></linearGradient><linearGradient id="T" x1="858.34" x2="783.95" y1="217.31" y2="205" gradientUnits="userSpaceOnUse"><stop stop-color="#F7931A"/><stop offset=".41" stop-color="#FFD39F"/><stop offset="1" stop-color="#F7931A"/></linearGradient><linearGradient id="V" x1="780.65" x2="846.2" y1="244.64" y2="217.04" gradientUnits="userSpaceOnUse"><stop stop-color="#FFD39F"/><stop offset="1" stop-color="#fff" stop-opacity="0"/></linearGradient><radialGradient id="c" cx="0" cy="0" r="1" gradientTransform="rotate(-115.45 808.76 -7.6) scale(43.2641 36.93)" gradientUnits="userSpaceOnUse"><stop offset=".32" stop-color="#FFAA43"/><stop offset=".71" stop-color="#FFD39F"/><stop offset="1" stop-color="#F7931A"/></radialGradient><radialGradient id="j" cx="0" cy="0" r="1" gradientTransform="rotate(-111.98 472.92 281.65) scale(59.9832 51.1965)" gradientUnits="userSpaceOnUse"><stop offset=".32" stop-color="#FFAA43"/><stop offset=".71" stop-color="#FFD39F"/><stop offset="1" stop-color="#F7931A"/></radialGradient><radialGradient id="q" cx="0" cy="0" r="1" gradientTransform="matrix(-43.19693918 1.61717827 -1.37941933 -36.84608815 194.54 236.79)" gradientUnits="userSpaceOnUse"><stop offset=".32" stop-color="#FFAA43"/><stop offset=".71" stop-color="#FFD39F"/><stop offset="1" stop-color="#F7931A"/></radialGradient><radialGradient id="x" cx="0" cy="0" r="1" gradientTransform="rotate(-90.78 720.65 -156.12) scale(28.6323 24.4404)" gradientUnits="userSpaceOnUse"><stop offset=".32" stop-color="#FFAA43"/><stop offset=".71" stop-color="#FFD39F"/><stop offset="1" stop-color="#F7931A"/></radialGradient><radialGradient id="E" cx="0" cy="0" r="1" gradientTransform="matrix(-43.11905235 -3.53972787 3.02149242 -36.80618811 651.81 312.11)" gradientUnits="userSpaceOnUse"><stop offset=".32" stop-color="#FFAA43"/><stop offset=".71" stop-color="#FFD39F"/><stop offset="1" stop-color="#F7931A"/></radialGradient><radialGradient id="L" cx="0" cy="0" r="1" gradientTransform="matrix(-37.69781497 -46.62609144 39.79897526 -32.17800075 821.27 178.26)" gradientUnits="userSpaceOnUse"><stop offset=".32" stop-color="#FFAA43"/><stop offset=".71" stop-color="#FFD39F"/><stop offset="1" stop-color="#F7931A"/></radialGradient><radialGradient id="S" cx="0" cy="0" r="1" gradientTransform="rotate(-148.82 463.54 -15.82) scale(28.7625 24.5515)" gradientUnits="userSpaceOnUse"><stop offset=".32" stop-color="#FFAA43"/><stop offset=".71" stop-color="#FFD39F"/><stop offset="1" stop-color="#F7931A"/></radialGradient></defs></svg>