<svg xmlns="http://www.w3.org/2000/svg" fill="none" viewBox="0 0 375 521">
  <g filter="url(#a)" opacity=".2">
    <g filter="url(#b)">
      <path stroke="url(#c)" stroke-opacity=".9" stroke-width="6"
        d="M49.14 247.63c10.61 3.99 16 16.82 11.55 28.48-4.46 11.66-17.63 17.77-28.24 13.78" />
    </g>
    <path fill="url(#d)"
      d="M60.94 276.2c5.03-13.16-.33-27.38-11.97-31.75-11.64-4.38-25.69 2.84-30.72 16-5.03 13.17.33 27.38 11.98 31.76 11.64 4.37 25.68-2.85 30.7-16.01Z" />
    <g filter="url(#e)">
      <path fill="#0A0C0E" fill-opacity=".04"
        d="M58.81 275.32c4.53-11.83-.3-24.61-10.76-28.54-10.46-3.94-23.44 2.7-27.96 14.54-4.52 11.83.3 24.61 10.76 28.54 10.47 3.93 23.44-2.7 27.96-14.54Z" />
    </g>
    <path stroke="url(#f)" stroke-opacity=".15"
      d="M58.35 275.14c4.44-11.63-.32-24.08-10.48-27.9-10.16-3.81-22.87 2.63-27.31 14.25-4.45 11.64.32 24.1 10.47 27.9 10.16 3.82 22.87-2.62 27.32-14.25Z" />
    <g filter="url(#g)">
      <path fill="#F7931A" fill-rule="evenodd"
        d="M48 268.51c1.15-2.32-.35-4.24-2.69-5.94l1.9-3.05-1.91-1.15-1.86 2.96-1.54-.9 1.87-2.98-1.92-1.16-1.9 3.04-1.23-.72-2.64-1.6-1.23 1.98s1.43.83 1.39.84c.78.47.76 1.05.6 1.47l-2.17 3.47.2.14-.2-.12-3.04 4.85c-.18.22-.56.51-1.1.18 0 .04-1.4-.84-1.4-.84l-1.76 1.99 2.5 1.5.82.51.53.33-1.92 3.08 1.91 1.15 1.9-3.04 1.53.93-1.9 3.03 1.92 1.16 1.92-3.07c3.33 1.76 6.08 2.34 8.19-.42 1.7-2.22 1.2-3.96-.36-5.49 1.45.12 2.75-.42 3.6-2.13Zm-6.8 4.97c-1.31 2.11-4.71 0-6.27-.97l-.37-.23 2.55-4.08.47.28c1.63.93 4.97 2.84 3.63 5Zm-2.61-6.95c1.3.8 4.12 2.58 5.32.66 1.23-1.97-1.56-3.55-2.93-4.33l-.4-.23-2.3 3.7c.09.06.2.12.3.2Z"
        clip-rule="evenodd" />
    </g>
  </g>
  <g filter="url(#h)" opacity=".2">
    <g filter="url(#i)">
      <path stroke="url(#j)" stroke-opacity=".9" stroke-width="6"
        d="M243.7 188.34c11.22 3.83 17.26 17.07 12.98 29.4-4.28 12.34-17.85 19.15-29.08 15.33" />
    </g>
    <path fill="url(#k)"
      d="M256.95 217.83c4.83-13.92-1.23-28.61-13.54-32.8-12.3-4.2-26.76 3.79-31.6 17.71-4.83 13.92 1.23 28.62 13.54 32.81 12.31 4.2 26.76-3.8 31.6-17.72Z" />
    <g filter="url(#l)">
      <path fill="#0A0C0E" fill-opacity=".04"
        d="M254.7 216.98c4.35-12.51-1.1-25.72-12.17-29.5-11.07-3.77-24.42 3.6-28.77 16.1-4.34 12.52 1.1 25.73 12.17 29.5 11.07 3.78 24.42-3.58 28.77-16.1Z" />
    </g>
    <path stroke="url(#m)" stroke-opacity=".15"
      d="M254.22 216.82c4.28-12.31-1.1-25.2-11.85-28.86-10.76-3.67-23.86 3.48-28.13 15.79-4.28 12.31 1.1 25.2 11.85 28.86 10.76 3.67 23.86-3.48 28.13-15.79Z" />
    <g filter="url(#n)">
      <path fill="#F7931A" fill-rule="evenodd"
        d="M243.18 210.21c1.13-2.47-.5-4.42-3-6.13l1.88-3.24-2.04-1.15-1.84 3.16-1.64-.9 1.85-3.17-2.04-1.15-1.89 3.24-1.3-.7v-.02l-2.81-1.58-1.23 2.1s1.52.83 1.48.84c.83.46.83 1.08.67 1.52l-2.15 3.7.2.14-.21-.13-3.02 5.18c-.18.23-.57.55-1.15.22.02.04-1.48-.83-1.48-.83l-1.78 2.13 2.66 1.5.89.5.56.32-1.91 3.28 2.04 1.15 1.89-3.25 1.62.94-1.89 3.23 2.05 1.14 1.9-3.27c3.54 1.74 6.43 2.25 8.55-.7 1.7-2.38 1.13-4.18-.55-5.73 1.52.08 2.86-.53 3.69-2.34Zm-6.95 5.41c-1.3 2.25-4.93.15-6.59-.81l-.4-.23 2.54-4.34.5.27c1.74.92 5.3 2.81 3.95 5.11Zm-2.96-7.18c1.38.8 4.4 2.56 5.59.52 1.22-2.1-1.75-3.66-3.2-4.43l-.42-.23-2.3 3.95.33.19Z"
        clip-rule="evenodd" />
    </g>
  </g>
  <g filter="url(#o)" opacity=".2">
    <g filter="url(#p)">
      <path stroke="url(#q)" stroke-opacity=".9" stroke-width="7"
        d="M57.38 107.9c10.86-5.4 24.8-.25 30.67 11.73 5.87 11.97 1.05 26.72-9.8 32.1" />
    </g>
    <path fill="url(#r)"
      d="M88.3 119.5c-6.61-13.53-21.63-19.7-33.53-13.78-11.9 5.9-16.49 22.13-9.87 35.66 6.62 13.52 21.64 19.69 33.54 13.78 11.9-5.91 16.49-22.14 9.87-35.66Z" />
    <g filter="url(#s)">
      <path fill="#0A0C0E" fill-opacity=".04"
        d="M86.07 120.52c-5.95-12.16-19.45-17.7-30.14-12.4-10.7 5.32-14.97 20.3-9.02 32.45 5.96 12.16 19.45 17.7 30.15 12.4 10.7-5.32 14.96-20.3 9.01-32.45Z" />
    </g>
    <path stroke="url(#t)" stroke-opacity=".15"
      d="M85.63 120.74c-5.86-11.96-19.08-17.33-29.48-12.16-10.4 5.17-14.64 19.82-8.79 31.77 5.86 11.96 19.08 17.33 29.48 12.16 10.4-5.16 14.64-19.81 8.79-31.77Z" />
    <g filter="url(#u)">
      <path fill="#F7931A" fill-rule="evenodd"
        d="M72.88 124c-.98-2.59-3.57-2.81-6.61-2.22l-1-3.7-2.3.65.97 3.6-1.83.55-.97-3.63-2.3.66 1 3.7-1.46.43-3.18.9.65 2.4s1.69-.51 1.67-.47c.93-.27 1.38.17 1.59.6l1.13 4.23.24-.06-.24.07 1.59 5.91c.03.3-.02.81-.67 1 .04.01-1.67.47-1.67.47l.27 2.83 2.99-.86 1-.28.65-.17 1 3.74 2.3-.65-1-3.7 1.85-.51.98 3.69 2.3-.66-1-3.74c3.8-1.32 6.26-3.04 5.64-6.7-.5-2.94-2.22-3.83-4.55-3.72 1.15-1.05 1.67-2.46.95-4.35Zm-1.07 8.93c.69 2.57-3.45 3.69-5.34 4.2l-.44.12-1.34-4.96.56-.17c1.92-.6 5.85-1.81 6.56.81Zm-7.34-3.02c1.57-.42 5.01-1.34 4.39-3.67-.64-2.4-3.91-1.37-5.51-.87l-.47.14 1.2 4.5.39-.1Z"
        clip-rule="evenodd" />
    </g>
  </g>
  <g filter="url(#v)" opacity=".2">
    <g filter="url(#w)">
      <path stroke="url(#x)" stroke-opacity=".9" stroke-width="8"
        d="M136.2 343.92c16.76-2.78 33.35 9.83 36.3 28.3 2.96 18.45-9.54 36.25-26.3 39.03" />
    </g>
    <path fill="url(#y)"
      d="M172.9 372.14c-3.33-20.84-20.93-35.26-39.3-32.22-18.38 3.05-31.19 22.92-27.85 43.77 3.33 20.84 20.93 35.26 39.3 32.22 18.38-3.05 31.19-22.92 27.85-43.77Z" />
    <g filter="url(#z)">
      <path fill="#0A0C0E" fill-opacity=".04"
        d="M169.49 372.6c-3-18.74-18.82-31.7-35.34-28.97-16.52 2.74-28.38 21.07-25.38 39.8 3 18.74 18.82 31.7 35.34 28.97 16.52-2.74 28.38-21.07 25.38-39.8Z" />
    </g>
    <path stroke="url(#A)" stroke-opacity=".15"
      d="M169 372.68c-2.97-18.53-18.58-31.24-34.77-28.56-16.2 2.69-27.93 20.72-24.96 39.23 2.96 18.53 18.57 31.24 34.76 28.56 16.2-2.69 27.93-20.72 24.97-39.23Z" />
    <g filter="url(#B)">
      <path fill="#F7931A" fill-rule="evenodd"
        d="M150.37 371.86c-.25-3.88-3.63-5.24-7.95-5.7l.2-5.37-3.36-.06-.18 5.23c-.88-.01-1.78-.02-2.68-.01l.18-5.27-3.34-.06-.2 5.37c-.72 0-1.43 0-2.13-.02v-.01l-4.62-.1-.12 3.5s2.48 0 2.44.04c1.35.03 1.77.8 1.87 1.48l-.2 6.12c.09 0 .2 0 .34.02h-.35l-.3 8.57c-.07.42-.34 1.08-1.3 1.06.05.04-2.43-.04-2.43-.04l-.8 3.89 4.36.08 1.46.04.93.03-.18 5.43 3.34.07.2-5.38c.9.04 1.8.06 2.67.08l-.2 5.35 3.36.06.19-5.42c5.64-.21 9.64-1.52 10.3-6.67.54-4.15-1.4-6.05-4.57-6.86 1.98-.93 3.25-2.6 3.06-5.45Zm-5.1 11.53c-.13 3.73-6.12 3.53-8.87 3.44l-.65-.01.25-7.2h.82c2.82-.01 8.58-.04 8.45 3.77Zm-8.6-7.05c2.29.08 7.28.25 7.4-3.13.12-3.47-4.69-3.44-7.04-3.42h-.69l-.22 6.53c.16 0 .34 0 .55.02Z"
        clip-rule="evenodd" />
    </g>
  </g>
  <g filter="url(#C)" opacity=".2">
    <g filter="url(#D)">
      <path stroke="url(#E)" stroke-opacity=".9" stroke-width="7"
        d="M363.3 222.7c11.97-5.43 26.9.67 32.81 13.88 5.9 13.2.13 29.01-11.84 34.44" />
    </g>
    <path fill="url(#F)"
      d="M396.4 236.45c-6.67-14.91-22.72-22.17-35.84-16.22-13.13 5.96-18.72 23.38-12.06 38.3 6.67 14.9 22.71 22.17 35.84 16.21 13.13-5.96 18.72-23.38 12.06-38.3Z" />
    <g filter="url(#G)">
      <path fill="#0A0C0E" fill-opacity=".04"
        d="M393.93 237.47c-6-13.4-20.41-19.93-32.21-14.58-11.8 5.36-17 21.44-11 34.84 5.99 13.4 20.41 19.93 32.21 14.58 11.8-5.36 17-21.44 11-34.84Z" />
    </g>
    <path stroke="url(#H)" stroke-opacity=".15"
      d="M393.48 237.68c-5.9-13.21-20.06-19.55-31.56-14.33-11.5 5.22-16.65 20.97-10.75 34.18 5.9 13.2 20.06 19.54 31.56 14.32 11.5-5.22 16.65-20.97 10.75-34.18Z" />
    <g filter="url(#I)">
      <path fill="#F7931A" fill-rule="evenodd"
        d="M379.49 240.75c-.96-2.85-3.76-3.2-7.08-2.67l-.93-4.05-2.52.62.91 3.95c-.66.16-1.33.34-2 .52l-.92-3.97-2.52.62.94 4.06-1.6.41-3.48.85.61 2.64s1.85-.5 1.83-.46c1.02-.25 1.49.25 1.7.72l1.07 4.62.27-.05-.27.07 1.5 6.47c.02.33-.05.87-.76 1.05.04.02-1.83.45-1.83.45l.18 3.07 3.28-.8c.37-.1.73-.19 1.1-.27l.7-.17.95 4.1 2.51-.62-.94-4.06c.7-.15 1.37-.31 2.02-.48l.93 4.04 2.52-.62-.95-4.1c4.18-1.28 6.9-3.06 6.37-7.04-.43-3.21-2.25-4.24-4.79-4.21 1.3-1.1 1.9-2.6 1.2-4.69Zm-1.5 9.64c.65 2.81-3.87 3.87-5.94 4.35l-.49.11-1.25-5.43.61-.16c2.1-.57 6.4-1.74 7.07 1.13Zm-7.84-3.55c1.73-.4 5.49-1.27 4.9-3.82-.6-2.62-4.19-1.63-5.94-1.15l-.52.14 1.14 4.93.42-.1Z"
        clip-rule="evenodd" />
    </g>
  </g>
  <g filter="url(#J)" opacity=".2">
    <g filter="url(#K)">
      <path stroke="url(#L)" stroke-opacity=".9" stroke-width="7"
        d="M272.4 35.58c10.08 7.08 12.25 22.04 4.39 33.08-7.87 11.05-23.38 13.9-33.45 6.8" />
    </g>
    <path fill="url(#M)"
      d="M277.03 68.83c8.87-12.47 7.11-28.87-3.93-36.64-11.05-7.77-27.78-4.02-36.66 8.45-8.87 12.47-7.11 28.88 3.94 36.65 11.04 7.77 27.77 4.01 36.65-8.46Z" />
    <g filter="url(#N)">
      <path fill="#0A0C0E" fill-opacity=".04"
        d="M275.03 67.33c7.98-11.21 6.4-25.96-3.53-32.95-9.93-6.98-25.39-3.54-33.37 7.67-7.97 11.21-6.4 25.96 3.54 32.94 9.93 6.99 25.38 3.55 33.36-7.66Z" />
    </g>
    <path stroke="url(#O)" stroke-opacity=".15"
      d="M274.62 67.04c7.86-11.03 6.25-25.45-3.41-32.25-9.67-6.8-24.82-3.48-32.67 7.55-7.85 11.03-6.24 25.45 3.42 32.25 9.66 6.8 24.81 3.48 32.66-7.55Z" />
    <g filter="url(#P)">
      <path fill="#F7931A" fill-rule="evenodd"
        d="M265.52 57.22c1.85-2.13.8-4.55-1.2-6.98l2.82-2.68-1.7-1.74-2.75 2.61-1.38-1.37 2.77-2.63-1.7-1.73-2.82 2.68c-.38-.37-.75-.73-1.1-1.1l-2.33-2.4-1.84 1.75s1.28 1.26 1.23 1.26c.7.7.51 1.31.23 1.71l-3.23 3.06c.05.05.11.11.17.2l-.18-.2-4.51 4.29c-.25.18-.73.38-1.21-.11 0 .04-1.24-1.27-1.24-1.27l-2.4 1.61 2.22 2.26.74.76.46.5-2.86 2.7 1.7 1.74 2.83-2.68c.46.48.9.95 1.35 1.4l-2.82 2.67 1.7 1.74 2.85-2.71c3.03 2.76 5.76 4.11 8.72 1.79 2.4-1.87 2.35-3.84 1.13-5.87 1.49.53 3 .3 4.35-1.26Zm-8.5 3.37c-1.96 1.86-4.96-1.29-6.33-2.73l-.33-.34 3.8-3.6c.11.13.25.27.42.42 1.46 1.43 4.45 4.35 2.44 6.25Zm-.85-8.02c1.14 1.2 3.63 3.83 5.41 2.14 1.83-1.73-.68-4.15-1.9-5.34l-.35-.35-3.44 3.26.28.3Z"
        clip-rule="evenodd" />
    </g>
  </g>
  <defs>
    <filter id="a" width="248.89" height="250.94" x="-83.64" y="147.17" color-interpolation-filters="sRGB"
      filterUnits="userSpaceOnUse">
      <feFlood flood-opacity="0" result="BackgroundImageFix" />
      <feColorMatrix in="SourceAlpha" result="hardAlpha" values="0 0 0 0 0 0 0 0 0 0 0 0 0 0 0 0 0 0 127 0" />
      <feOffset dy="4" />
      <feGaussianBlur stdDeviation="50" />
      <feComposite in2="hardAlpha" operator="out" />
      <feColorMatrix values="0 0 0 0 0 0 0 0 0 0 0 0 0 0 0 0 0 0 0.2 0" />
      <feBlend in2="BackgroundImageFix" result="effect1_dropShadow_206_424" />
      <feBlend in="SourceGraphic" in2="effect1_dropShadow_206_424" result="shape" />
    </filter>
    <filter id="b" width="103.88" height="119.29" x="-3.62" y="209.82" color-interpolation-filters="sRGB"
      filterUnits="userSpaceOnUse">
      <feFlood flood-opacity="0" result="BackgroundImageFix" />
      <feGaussianBlur in="BackgroundImageFix" stdDeviation="17.5" />
      <feComposite in2="SourceAlpha" operator="in" result="effect1_backgroundBlur_206_424" />
      <feBlend in="SourceGraphic" in2="effect1_backgroundBlur_206_424" result="shape" />
    </filter>
    <filter id="e" width="50.12" height="53.35" x="14.39" y="241.64" color-interpolation-filters="sRGB"
      filterUnits="userSpaceOnUse">
      <feFlood flood-opacity="0" result="BackgroundImageFix" />
      <feBlend in="SourceGraphic" in2="BackgroundImageFix" result="shape" />
      <feColorMatrix in="SourceAlpha" result="hardAlpha" values="0 0 0 0 0 0 0 0 0 0 0 0 0 0 0 0 0 0 127 0" />
      <feOffset dx="4" dy="-6" />
      <feGaussianBlur stdDeviation="2" />
      <feComposite in2="hardAlpha" k2="-1" k3="1" operator="arithmetic" />
      <feColorMatrix values="0 0 0 0 0.316667 0 0 0 0 0.316667 0 0 0 0 0.316667 0 0 0 0.1 0" />
      <feBlend in2="shape" result="effect1_innerShadow_206_424" />
      <feColorMatrix in="SourceAlpha" result="hardAlpha" values="0 0 0 0 0 0 0 0 0 0 0 0 0 0 0 0 0 0 127 0" />
      <feOffset dx="-4" dy="6" />
      <feGaussianBlur stdDeviation="2" />
      <feComposite in2="hardAlpha" k2="-1" k3="1" operator="arithmetic" />
      <feColorMatrix values="0 0 0 0 0.270833 0 0 0 0 0.270833 0 0 0 0 0.270833 0 0 0 0.1 0" />
      <feBlend in2="effect1_innerShadow_206_424" result="effect2_innerShadow_206_424" />
      <feColorMatrix in="SourceAlpha" result="hardAlpha" values="0 0 0 0 0 0 0 0 0 0 0 0 0 0 0 0 0 0 127 0" />
      <feOffset dx="-4" dy="-4" />
      <feGaussianBlur stdDeviation="2" />
      <feComposite in2="hardAlpha" k2="-1" k3="1" operator="arithmetic" />
      <feColorMatrix values="0 0 0 0 0.270833 0 0 0 0 0.270833 0 0 0 0 0.270833 0 0 0 0.1 0" />
      <feBlend in2="effect2_innerShadow_206_424" result="effect3_innerShadow_206_424" />
    </filter>
    <filter id="g" width="27.34" height="27.33" x="27.37" y="255.73" color-interpolation-filters="sRGB"
      filterUnits="userSpaceOnUse">
      <feFlood flood-opacity="0" result="BackgroundImageFix" />
      <feColorMatrix in="SourceAlpha" result="hardAlpha" values="0 0 0 0 0 0 0 0 0 0 0 0 0 0 0 0 0 0 127 0" />
      <feOffset dx="4.31" dy="1.44" />
      <feGaussianBlur stdDeviation="1" />
      <feComposite in2="hardAlpha" operator="out" />
      <feColorMatrix values="0 0 0 0 0 0 0 0 0 0 0 0 0 0 0 0 0 0 0.15 0" />
      <feBlend in2="BackgroundImageFix" result="effect1_dropShadow_206_424" />
      <feBlend in="SourceGraphic" in2="effect1_dropShadow_206_424" result="shape" />
    </filter>
    <filter id="h" width="250.91" height="253.23" x="110.15" y="87.9" color-interpolation-filters="sRGB"
      filterUnits="userSpaceOnUse">
      <feFlood flood-opacity="0" result="BackgroundImageFix" />
      <feColorMatrix in="SourceAlpha" result="hardAlpha" values="0 0 0 0 0 0 0 0 0 0 0 0 0 0 0 0 0 0 127 0" />
      <feOffset dy="4" />
      <feGaussianBlur stdDeviation="50" />
      <feComposite in2="hardAlpha" operator="out" />
      <feColorMatrix values="0 0 0 0 0 0 0 0 0 0 0 0 0 0 0 0 0 0 0.2 0" />
      <feBlend in2="BackgroundImageFix" result="effect1_dropShadow_206_424" />
      <feBlend in="SourceGraphic" in2="effect1_dropShadow_206_424" result="shape" />
    </filter>
    <filter id="i" width="104.44" height="121.62" x="191.62" y="150.51" color-interpolation-filters="sRGB"
      filterUnits="userSpaceOnUse">
      <feFlood flood-opacity="0" result="BackgroundImageFix" />
      <feGaussianBlur in="BackgroundImageFix" stdDeviation="17.5" />
      <feComposite in2="SourceAlpha" operator="in" result="effect1_backgroundBlur_206_424" />
      <feBlend in="SourceGraphic" in2="effect1_backgroundBlur_206_424" result="shape" />
    </filter>
    <filter id="l" width="51.93" height="55.58" x="208.27" y="182.5" color-interpolation-filters="sRGB"
      filterUnits="userSpaceOnUse">
      <feFlood flood-opacity="0" result="BackgroundImageFix" />
      <feBlend in="SourceGraphic" in2="BackgroundImageFix" result="shape" />
      <feColorMatrix in="SourceAlpha" result="hardAlpha" values="0 0 0 0 0 0 0 0 0 0 0 0 0 0 0 0 0 0 127 0" />
      <feOffset dx="4" dy="-6" />
      <feGaussianBlur stdDeviation="2" />
      <feComposite in2="hardAlpha" k2="-1" k3="1" operator="arithmetic" />
      <feColorMatrix values="0 0 0 0 0.316667 0 0 0 0 0.316667 0 0 0 0 0.316667 0 0 0 0.1 0" />
      <feBlend in2="shape" result="effect1_innerShadow_206_424" />
      <feColorMatrix in="SourceAlpha" result="hardAlpha" values="0 0 0 0 0 0 0 0 0 0 0 0 0 0 0 0 0 0 127 0" />
      <feOffset dx="-4" dy="6" />
      <feGaussianBlur stdDeviation="2" />
      <feComposite in2="hardAlpha" k2="-1" k3="1" operator="arithmetic" />
      <feColorMatrix values="0 0 0 0 0.270833 0 0 0 0 0.270833 0 0 0 0 0.270833 0 0 0 0.1 0" />
      <feBlend in2="effect1_innerShadow_206_424" result="effect2_innerShadow_206_424" />
      <feColorMatrix in="SourceAlpha" result="hardAlpha" values="0 0 0 0 0 0 0 0 0 0 0 0 0 0 0 0 0 0 127 0" />
      <feOffset dx="-4" dy="-4" />
      <feGaussianBlur stdDeviation="2" />
      <feComposite in2="hardAlpha" k2="-1" k3="1" operator="arithmetic" />
      <feColorMatrix values="0 0 0 0 0.270833 0 0 0 0 0.270833 0 0 0 0 0.270833 0 0 0 0.1 0" />
      <feBlend in2="effect2_innerShadow_206_424" result="effect3_innerShadow_206_424" />
    </filter>
    <filter id="n" width="28.17" height="28.62" x="221.68" y="197.07" color-interpolation-filters="sRGB"
      filterUnits="userSpaceOnUse">
      <feFlood flood-opacity="0" result="BackgroundImageFix" />
      <feColorMatrix in="SourceAlpha" result="hardAlpha" values="0 0 0 0 0 0 0 0 0 0 0 0 0 0 0 0 0 0 127 0" />
      <feOffset dx="4.31" dy="1.44" />
      <feGaussianBlur stdDeviation="1" />
      <feComposite in2="hardAlpha" operator="out" />
      <feColorMatrix values="0 0 0 0 0 0 0 0 0 0 0 0 0 0 0 0 0 0 0.15 0" />
      <feBlend in2="BackgroundImageFix" result="effect1_dropShadow_206_424" />
      <feBlend in="SourceGraphic" in2="effect1_dropShadow_206_424" result="shape" />
    </filter>
    <filter id="o" width="252.2" height="255.16" x="-58.14" y="6.25" color-interpolation-filters="sRGB"
      filterUnits="userSpaceOnUse">
      <feFlood flood-opacity="0" result="BackgroundImageFix" />
      <feColorMatrix in="SourceAlpha" result="hardAlpha" values="0 0 0 0 0 0 0 0 0 0 0 0 0 0 0 0 0 0 127 0" />
      <feOffset dy="4" />
      <feGaussianBlur stdDeviation="50" />
      <feComposite in2="hardAlpha" operator="out" />
      <feColorMatrix values="0 0 0 0 0 0 0 0 0 0 0 0 0 0 0 0 0 0 0.2 0" />
      <feBlend in2="BackgroundImageFix" result="effect1_dropShadow_206_424" />
      <feBlend in="SourceGraphic" in2="effect1_dropShadow_206_424" result="shape" />
    </filter>
    <filter id="p" width="108.22" height="122.64" x="20.84" y="67.25" color-interpolation-filters="sRGB"
      filterUnits="userSpaceOnUse">
      <feFlood flood-opacity="0" result="BackgroundImageFix" />
      <feGaussianBlur in="BackgroundImageFix" stdDeviation="17.5" />
      <feComposite in2="SourceAlpha" operator="in" result="effect1_backgroundBlur_206_424" />
      <feBlend in="SourceGraphic" in2="effect1_backgroundBlur_206_424" result="shape" />
    </filter>
    <filter id="s" width="52.56" height="56.87" x="40.21" y="102.11" color-interpolation-filters="sRGB"
      filterUnits="userSpaceOnUse">
      <feFlood flood-opacity="0" result="BackgroundImageFix" />
      <feBlend in="SourceGraphic" in2="BackgroundImageFix" result="shape" />
      <feColorMatrix in="SourceAlpha" result="hardAlpha" values="0 0 0 0 0 0 0 0 0 0 0 0 0 0 0 0 0 0 127 0" />
      <feOffset dx="4" dy="-6" />
      <feGaussianBlur stdDeviation="2" />
      <feComposite in2="hardAlpha" k2="-1" k3="1" operator="arithmetic" />
      <feColorMatrix values="0 0 0 0 0.316667 0 0 0 0 0.316667 0 0 0 0 0.316667 0 0 0 0.1 0" />
      <feBlend in2="shape" result="effect1_innerShadow_206_424" />
      <feColorMatrix in="SourceAlpha" result="hardAlpha" values="0 0 0 0 0 0 0 0 0 0 0 0 0 0 0 0 0 0 127 0" />
      <feOffset dx="-4" dy="6" />
      <feGaussianBlur stdDeviation="2" />
      <feComposite in2="hardAlpha" k2="-1" k3="1" operator="arithmetic" />
      <feColorMatrix values="0 0 0 0 0.270833 0 0 0 0 0.270833 0 0 0 0 0.270833 0 0 0 0.1 0" />
      <feBlend in2="effect1_innerShadow_206_424" result="effect2_innerShadow_206_424" />
      <feColorMatrix in="SourceAlpha" result="hardAlpha" values="0 0 0 0 0 0 0 0 0 0 0 0 0 0 0 0 0 0 127 0" />
      <feOffset dx="-4" dy="-4" />
      <feGaussianBlur stdDeviation="2" />
      <feComposite in2="hardAlpha" k2="-1" k3="1" operator="arithmetic" />
      <feColorMatrix values="0 0 0 0 0.270833 0 0 0 0 0.270833 0 0 0 0 0.270833 0 0 0 0.1 0" />
      <feBlend in2="effect2_innerShadow_206_424" result="effect3_innerShadow_206_424" />
    </filter>
    <filter id="u" width="27.67" height="30.28" x="55.2" y="117.51" color-interpolation-filters="sRGB"
      filterUnits="userSpaceOnUse">
      <feFlood flood-opacity="0" result="BackgroundImageFix" />
      <feColorMatrix in="SourceAlpha" result="hardAlpha" values="0 0 0 0 0 0 0 0 0 0 0 0 0 0 0 0 0 0 127 0" />
      <feOffset dx="4.31" dy="1.44" />
      <feGaussianBlur stdDeviation="1" />
      <feComposite in2="hardAlpha" operator="out" />
      <feColorMatrix values="0 0 0 0 0 0 0 0 0 0 0 0 0 0 0 0 0 0 0.15 0" />
      <feBlend in2="BackgroundImageFix" result="effect1_dropShadow_206_424" />
      <feBlend in="SourceGraphic" in2="effect1_dropShadow_206_424" result="shape" />
    </filter>
    <filter id="v" width="271.72" height="276.8" x="5.22" y="243.52" color-interpolation-filters="sRGB"
      filterUnits="userSpaceOnUse">
      <feFlood flood-opacity="0" result="BackgroundImageFix" />
      <feColorMatrix in="SourceAlpha" result="hardAlpha" values="0 0 0 0 0 0 0 0 0 0 0 0 0 0 0 0 0 0 127 0" />
      <feOffset dy="4" />
      <feGaussianBlur stdDeviation="50" />
      <feComposite in2="hardAlpha" operator="out" />
      <feColorMatrix values="0 0 0 0 0 0 0 0 0 0 0 0 0 0 0 0 0 0 0.2 0" />
      <feBlend in2="BackgroundImageFix" result="effect1_dropShadow_206_424" />
      <feBlend in="SourceGraphic" in2="effect1_dropShadow_206_424" result="shape" />
    </filter>
    <filter id="w" width="111.37" height="145.66" x="100.57" y="304.53" color-interpolation-filters="sRGB"
      filterUnits="userSpaceOnUse">
      <feFlood flood-opacity="0" result="BackgroundImageFix" />
      <feGaussianBlur in="BackgroundImageFix" stdDeviation="17.5" />
      <feComposite in2="SourceAlpha" operator="in" result="effect1_backgroundBlur_206_424" />
      <feBlend in="SourceGraphic" in2="effect1_backgroundBlur_206_424" result="shape" />
    </filter>
    <filter id="z" width="69.65" height="77.5" x="104.31" y="339.27" color-interpolation-filters="sRGB"
      filterUnits="userSpaceOnUse">
      <feFlood flood-opacity="0" result="BackgroundImageFix" />
      <feBlend in="SourceGraphic" in2="BackgroundImageFix" result="shape" />
      <feColorMatrix in="SourceAlpha" result="hardAlpha" values="0 0 0 0 0 0 0 0 0 0 0 0 0 0 0 0 0 0 127 0" />
      <feOffset dx="4" dy="-6" />
      <feGaussianBlur stdDeviation="2" />
      <feComposite in2="hardAlpha" k2="-1" k3="1" operator="arithmetic" />
      <feColorMatrix values="0 0 0 0 0.316667 0 0 0 0 0.316667 0 0 0 0 0.316667 0 0 0 0.1 0" />
      <feBlend in2="shape" result="effect1_innerShadow_206_424" />
      <feColorMatrix in="SourceAlpha" result="hardAlpha" values="0 0 0 0 0 0 0 0 0 0 0 0 0 0 0 0 0 0 127 0" />
      <feOffset dx="-4" dy="6" />
      <feGaussianBlur stdDeviation="2" />
      <feComposite in2="hardAlpha" k2="-1" k3="1" operator="arithmetic" />
      <feColorMatrix values="0 0 0 0 0.270833 0 0 0 0 0.270833 0 0 0 0 0.270833 0 0 0 0.1 0" />
      <feBlend in2="effect1_innerShadow_206_424" result="effect2_innerShadow_206_424" />
      <feColorMatrix in="SourceAlpha" result="hardAlpha" values="0 0 0 0 0 0 0 0 0 0 0 0 0 0 0 0 0 0 127 0" />
      <feOffset dx="-4" dy="-4" />
      <feGaussianBlur stdDeviation="2" />
      <feComposite in2="hardAlpha" k2="-1" k3="1" operator="arithmetic" />
      <feColorMatrix values="0 0 0 0 0.270833 0 0 0 0 0.270833 0 0 0 0 0.270833 0 0 0 0.1 0" />
      <feBlend in2="effect2_innerShadow_206_424" result="effect3_innerShadow_206_424" />
    </filter>
    <filter id="B" width="32.83" height="39.65" x="125.44" y="360.05" color-interpolation-filters="sRGB"
      filterUnits="userSpaceOnUse">
      <feFlood flood-opacity="0" result="BackgroundImageFix" />
      <feColorMatrix in="SourceAlpha" result="hardAlpha" values="0 0 0 0 0 0 0 0 0 0 0 0 0 0 0 0 0 0 127 0" />
      <feOffset dx="4.31" dy="1.44" />
      <feGaussianBlur stdDeviation="1" />
      <feComposite in2="hardAlpha" operator="out" />
      <feColorMatrix values="0 0 0 0 0 0 0 0 0 0 0 0 0 0 0 0 0 0 0.15 0" />
      <feBlend in2="BackgroundImageFix" result="effect1_dropShadow_206_424" />
      <feBlend in="SourceGraphic" in2="effect1_dropShadow_206_424" result="shape" />
    </filter>
    <filter id="C" width="256.25" height="259.62" x="245.68" y="121.2" color-interpolation-filters="sRGB"
      filterUnits="userSpaceOnUse">
      <feFlood flood-opacity="0" result="BackgroundImageFix" />
      <feColorMatrix in="SourceAlpha" result="hardAlpha" values="0 0 0 0 0 0 0 0 0 0 0 0 0 0 0 0 0 0 127 0" />
      <feOffset dy="4" />
      <feGaussianBlur stdDeviation="50" />
      <feComposite in2="hardAlpha" operator="out" />
      <feColorMatrix values="0 0 0 0 0 0 0 0 0 0 0 0 0 0 0 0 0 0 0.2 0" />
      <feBlend in2="BackgroundImageFix" result="effect1_dropShadow_206_424" />
      <feBlend in="SourceGraphic" in2="effect1_dropShadow_206_424" result="shape" />
    </filter>
    <filter id="D" width="110.06" height="127.02" x="326.88" y="182.2" color-interpolation-filters="sRGB"
      filterUnits="userSpaceOnUse">
      <feFlood flood-opacity="0" result="BackgroundImageFix" />
      <feGaussianBlur in="BackgroundImageFix" stdDeviation="17.5" />
      <feComposite in2="SourceAlpha" operator="in" result="effect1_backgroundBlur_206_424" />
      <feBlend in="SourceGraphic" in2="effect1_backgroundBlur_206_424" result="shape" />
    </filter>
    <filter id="G" width="56.23" height="61.16" x="344.21" y="217.02" color-interpolation-filters="sRGB"
      filterUnits="userSpaceOnUse">
      <feFlood flood-opacity="0" result="BackgroundImageFix" />
      <feBlend in="SourceGraphic" in2="BackgroundImageFix" result="shape" />
      <feColorMatrix in="SourceAlpha" result="hardAlpha" values="0 0 0 0 0 0 0 0 0 0 0 0 0 0 0 0 0 0 127 0" />
      <feOffset dx="4" dy="-6" />
      <feGaussianBlur stdDeviation="2" />
      <feComposite in2="hardAlpha" k2="-1" k3="1" operator="arithmetic" />
      <feColorMatrix values="0 0 0 0 0.316667 0 0 0 0 0.316667 0 0 0 0 0.316667 0 0 0 0.1 0" />
      <feBlend in2="shape" result="effect1_innerShadow_206_424" />
      <feColorMatrix in="SourceAlpha" result="hardAlpha" values="0 0 0 0 0 0 0 0 0 0 0 0 0 0 0 0 0 0 127 0" />
      <feOffset dx="-4" dy="6" />
      <feGaussianBlur stdDeviation="2" />
      <feComposite in2="hardAlpha" k2="-1" k3="1" operator="arithmetic" />
      <feColorMatrix values="0 0 0 0 0.270833 0 0 0 0 0.270833 0 0 0 0 0.270833 0 0 0 0.1 0" />
      <feBlend in2="effect1_innerShadow_206_424" result="effect2_innerShadow_206_424" />
      <feColorMatrix in="SourceAlpha" result="hardAlpha" values="0 0 0 0 0 0 0 0 0 0 0 0 0 0 0 0 0 0 127 0" />
      <feOffset dx="-4" dy="-4" />
      <feGaussianBlur stdDeviation="2" />
      <feComposite in2="hardAlpha" k2="-1" k3="1" operator="arithmetic" />
      <feColorMatrix values="0 0 0 0 0.270833 0 0 0 0 0.270833 0 0 0 0 0.270833 0 0 0 0.1 0" />
      <feBlend in2="effect2_innerShadow_206_424" result="effect3_innerShadow_206_424" />
    </filter>
    <filter id="I" width="29.16" height="32.5" x="360.29" y="233.47" color-interpolation-filters="sRGB"
      filterUnits="userSpaceOnUse">
      <feFlood flood-opacity="0" result="BackgroundImageFix" />
      <feColorMatrix in="SourceAlpha" result="hardAlpha" values="0 0 0 0 0 0 0 0 0 0 0 0 0 0 0 0 0 0 127 0" />
      <feOffset dx="4.31" dy="1.44" />
      <feGaussianBlur stdDeviation="1" />
      <feComposite in2="hardAlpha" operator="out" />
      <feColorMatrix values="0 0 0 0 0 0 0 0 0 0 0 0 0 0 0 0 0 0 0.15 0" />
      <feBlend in2="BackgroundImageFix" result="effect1_dropShadow_206_424" />
      <feBlend in="SourceGraphic" in2="effect1_dropShadow_206_424" result="shape" />
    </filter>
    <filter id="J" width="254.26" height="254.69" x="130.78" y="-67.86" color-interpolation-filters="sRGB"
      filterUnits="userSpaceOnUse">
      <feFlood flood-opacity="0" result="BackgroundImageFix" />
      <feColorMatrix in="SourceAlpha" result="hardAlpha" values="0 0 0 0 0 0 0 0 0 0 0 0 0 0 0 0 0 0 127 0" />
      <feOffset dy="4" />
      <feGaussianBlur stdDeviation="50" />
      <feComposite in2="hardAlpha" operator="out" />
      <feColorMatrix values="0 0 0 0 0 0 0 0 0 0 0 0 0 0 0 0 0 0 0.2 0" />
      <feBlend in2="BackgroundImageFix" result="effect1_dropShadow_206_424" />
      <feBlend in="SourceGraphic" in2="effect1_dropShadow_206_424" result="shape" />
    </filter>
    <filter id="K" width="113.74" height="120.11" x="206.31" y="-2.28" color-interpolation-filters="sRGB"
      filterUnits="userSpaceOnUse">
      <feFlood flood-opacity="0" result="BackgroundImageFix" />
      <feGaussianBlur in="BackgroundImageFix" stdDeviation="17.5" />
      <feComposite in2="SourceAlpha" operator="in" result="effect1_backgroundBlur_206_424" />
      <feBlend in="SourceGraphic" in2="effect1_backgroundBlur_206_424" result="shape" />
    </filter>
    <filter id="N" width="55.07" height="55.84" x="229.05" y="26.77" color-interpolation-filters="sRGB"
      filterUnits="userSpaceOnUse">
      <feFlood flood-opacity="0" result="BackgroundImageFix" />
      <feBlend in="SourceGraphic" in2="BackgroundImageFix" result="shape" />
      <feColorMatrix in="SourceAlpha" result="hardAlpha" values="0 0 0 0 0 0 0 0 0 0 0 0 0 0 0 0 0 0 127 0" />
      <feOffset dx="4" dy="-6" />
      <feGaussianBlur stdDeviation="2" />
      <feComposite in2="hardAlpha" k2="-1" k3="1" operator="arithmetic" />
      <feColorMatrix values="0 0 0 0 0.316667 0 0 0 0 0.316667 0 0 0 0 0.316667 0 0 0 0.1 0" />
      <feBlend in2="shape" result="effect1_innerShadow_206_424" />
      <feColorMatrix in="SourceAlpha" result="hardAlpha" values="0 0 0 0 0 0 0 0 0 0 0 0 0 0 0 0 0 0 127 0" />
      <feOffset dx="-4" dy="6" />
      <feGaussianBlur stdDeviation="2" />
      <feComposite in2="hardAlpha" k2="-1" k3="1" operator="arithmetic" />
      <feColorMatrix values="0 0 0 0 0.270833 0 0 0 0 0.270833 0 0 0 0 0.270833 0 0 0 0.1 0" />
      <feBlend in2="effect1_innerShadow_206_424" result="effect2_innerShadow_206_424" />
      <feColorMatrix in="SourceAlpha" result="hardAlpha" values="0 0 0 0 0 0 0 0 0 0 0 0 0 0 0 0 0 0 127 0" />
      <feOffset dx="-4" dy="-4" />
      <feGaussianBlur stdDeviation="2" />
      <feComposite in2="hardAlpha" k2="-1" k3="1" operator="arithmetic" />
      <feColorMatrix values="0 0 0 0 0.270833 0 0 0 0 0.270833 0 0 0 0 0.270833 0 0 0 0.1 0" />
      <feBlend in2="effect2_innerShadow_206_424" result="effect3_innerShadow_206_424" />
    </filter>
    <filter id="P" width="30.29" height="27.65" x="243.16" y="41.32" color-interpolation-filters="sRGB"
      filterUnits="userSpaceOnUse">
      <feFlood flood-opacity="0" result="BackgroundImageFix" />
      <feColorMatrix in="SourceAlpha" result="hardAlpha" values="0 0 0 0 0 0 0 0 0 0 0 0 0 0 0 0 0 0 127 0" />
      <feOffset dx="4.31" dy="1.44" />
      <feGaussianBlur stdDeviation="1" />
      <feComposite in2="hardAlpha" operator="out" />
      <feColorMatrix values="0 0 0 0 0 0 0 0 0 0 0 0 0 0 0 0 0 0 0.15 0" />
      <feBlend in2="BackgroundImageFix" result="effect1_dropShadow_206_424" />
      <feBlend in="SourceGraphic" in2="effect1_dropShadow_206_424" result="shape" />
    </filter>
    <linearGradient id="d" x1="58.82" x2="8.84" y1="283.95" y2="248.7" gradientUnits="userSpaceOnUse">
      <stop stop-color="#F7931A" />
      <stop offset=".41" stop-color="#FFD39F" />
      <stop offset="1" stop-color="#F7931A" />
    </linearGradient>
    <linearGradient id="f" x1="-7.53" x2="50.06" y1="276.45" y2="279.55" gradientUnits="userSpaceOnUse">
      <stop stop-color="#FFD39F" />
      <stop offset="1" stop-color="#fff" stop-opacity="0" />
    </linearGradient>
    <linearGradient id="k" x1="254.99" x2="201.59" y1="226.01" y2="190.75" gradientUnits="userSpaceOnUse">
      <stop stop-color="#F7931A" />
      <stop offset=".41" stop-color="#FFD39F" />
      <stop offset="1" stop-color="#F7931A" />
    </linearGradient>
    <linearGradient id="m" x1="185.37" x2="245.68" y1="220.29" y2="221.68" gradientUnits="userSpaceOnUse">
      <stop stop-color="#FFD39F" />
      <stop offset="1" stop-color="#fff" stop-opacity="0" />
    </linearGradient>
    <linearGradient id="r" x1="92.83" x2="28.85" y1="126.8" y2="140.17" gradientUnits="userSpaceOnUse">
      <stop stop-color="#F7931A" />
      <stop offset=".41" stop-color="#FFD39F" />
      <stop offset="1" stop-color="#F7931A" />
    </linearGradient>
    <linearGradient id="t" x1="38.61" x2="82.99" y1="173.18" y2="130.44" gradientUnits="userSpaceOnUse">
      <stop stop-color="#FFD39F" />
      <stop offset="1" stop-color="#fff" stop-opacity="0" />
    </linearGradient>
    <linearGradient id="y" x1="175.97" x2="84.73" y1="383.79" y2="375.49" gradientUnits="userSpaceOnUse">
      <stop stop-color="#F7931A" />
      <stop offset=".41" stop-color="#FFD39F" />
      <stop offset="1" stop-color="#F7931A" />
    </linearGradient>
    <linearGradient id="A" x1="84.27" x2="161.29" y1="423.75" y2="384.63" gradientUnits="userSpaceOnUse">
      <stop stop-color="#FFD39F" />
      <stop offset="1" stop-color="#fff" stop-opacity="0" />
    </linearGradient>
    <linearGradient id="F" x1="401.02" x2="331.15" y1="244.53" y2="256.61" gradientUnits="userSpaceOnUse">
      <stop stop-color="#F7931A" />
      <stop offset=".41" stop-color="#FFD39F" />
      <stop offset="1" stop-color="#F7931A" />
    </linearGradient>
    <linearGradient id="H" x1="340.48" x2="390.22" y1="292.77" y2="248.11" gradientUnits="userSpaceOnUse">
      <stop stop-color="#FFD39F" />
      <stop offset="1" stop-color="#fff" stop-opacity="0" />
    </linearGradient>
    <linearGradient id="M" x1="272.69" x2="229.75" y1="76.41" y2="25.72" gradientUnits="userSpaceOnUse">
      <stop stop-color="#F7931A" />
      <stop offset=".41" stop-color="#FFD39F" />
      <stop offset="1" stop-color="#F7931A" />
    </linearGradient>
    <linearGradient id="O" x1="204.97" x2="264.67" y1="50.43" y2="69.38" gradientUnits="userSpaceOnUse">
      <stop stop-color="#FFD39F" />
      <stop offset="1" stop-color="#fff" stop-opacity="0" />
    </linearGradient>
    <radialGradient id="c" cx="0" cy="0" r="1" gradientTransform="rotate(-122.84 111.2 122.66) scale(23.3636 19.9508)"
      gradientUnits="userSpaceOnUse">
      <stop offset=".32" stop-color="#FFAA43" />
      <stop offset=".71" stop-color="#FFD39F" />
      <stop offset="1" stop-color="#F7931A" />
    </radialGradient>
    <radialGradient id="j" cx="0" cy="0" r="1"
      gradientTransform="matrix(-13.8761 -20.1153 17.17709 -11.84924 265 224.29)" gradientUnits="userSpaceOnUse">
      <stop offset=".32" stop-color="#FFAA43" />
      <stop offset=".71" stop-color="#FFD39F" />
      <stop offset="1" stop-color="#F7931A" />
    </radialGradient>
    <radialGradient id="q" cx="0" cy="0" r="1" gradientTransform="rotate(-169.84 54.65 54.75) scale(24.962 21.3158)"
      gradientUnits="userSpaceOnUse">
      <stop offset=".32" stop-color="#FFAA43" />
      <stop offset=".71" stop-color="#FFD39F" />
      <stop offset="1" stop-color="#F7931A" />
    </radialGradient>
    <radialGradient id="x" cx="0" cy="0" r="1" gradientTransform="rotate(-152.84 139 164.77) scale(34.9934 29.8819)"
      gradientUnits="userSpaceOnUse">
      <stop offset=".32" stop-color="#FFAA43" />
      <stop offset=".71" stop-color="#FFD39F" />
      <stop offset="1" stop-color="#F7931A" />
    </radialGradient>
    <radialGradient id="E" cx="0" cy="0" r="1"
      gradientTransform="matrix(-26.47397 -5.70502 4.87169 -22.60694 407.8 235.54)" gradientUnits="userSpaceOnUse">
      <stop offset=".32" stop-color="#FFAA43" />
      <stop offset=".71" stop-color="#FFD39F" />
      <stop offset="1" stop-color="#F7931A" />
    </radialGradient>
    <radialGradient id="L" cx="0" cy="0" r="1" gradientTransform="rotate(-108.31 169.63 -63.49) scale(25.3751 21.6685)"
      gradientUnits="userSpaceOnUse">
      <stop offset=".32" stop-color="#FFAA43" />
      <stop offset=".71" stop-color="#FFD39F" />
      <stop offset="1" stop-color="#F7931A" />
    </radialGradient>
  </defs>
</svg>
