<svg fill="none" xmlns="http://www.w3.org/2000/svg" viewBox="0 0 84 24">
  <g clip-path="url(#a)">
    <path fill-rule="evenodd" clip-rule="evenodd" d="m14.65 7.34 2.72 4.72h6.35l-5.9-10.21H6.02L.13 12.06l5.9 10.22h11.8l3.18-5.5H9.2l-2.72-4.72L9.2 7.34h5.45Z" fill="#CE0000" fill-opacity=".3"/>
    <mask id="b" style="mask-type:alpha" maskUnits="userSpaceOnUse" x="0" y="1" width="24" height="22">
      <path fill-rule="evenodd" clip-rule="evenodd" d="m14.65 7.34 2.72 4.72h6.35l-5.9-10.21H6.02L.13 12.06l5.9 10.22h11.8l3.18-5.5H9.2l-2.72-4.72L9.2 7.34h5.45Z" fill="#EC2222"/>
    </mask>
    <g mask="url(#b)">
      <path fill="#EC2222" d="m14.28 28.5 7.37-12.76-4.78-2.76L9.5 25.73z"/>
      <path fill="#EC2222" d="m26.04 8.14-4.4 7.6-4.79-2.76 4.4-7.61z"/>
      <path fill="#CE0000" fill-opacity=".3" d="m7.95 28.5 8.17-14.17-4.15-2.4L3.79 26.1z"/>
      <path fill="#CE0000" fill-opacity=".3" d="m23.3 1.9-7.18 12.44-4.16-2.4L19.15-.51z"/>
      <path fill="#CE0000" fill-opacity=".3" d="m5.52 23.17 6.6-11.44-4.15-2.4-6.6 11.44z"/>
      <path fill="#EC2222" d="M1.05 21.4 15.82-4.19 9.5-7.84l-14.78 25.6z"/>
    </g>
  </g>
  <path d="M32.31 7.55h3.55V19H32.3V7.55Zm5.09 3.15h2.96v1.35c.44-.55.89-.94 1.34-1.18.45-.23 1-.35 1.66-.35.88 0 1.56.26 2.06.78.5.53.75 1.33.75 2.43V19h-3.2v-4.56c0-.52-.1-.89-.29-1.1a1 1 0 0 0-.8-.33c-.4 0-.7.14-.95.44-.24.29-.35.81-.35 1.57V19H37.4v-8.3Zm17.7 3.62 3.1.94c-.2.87-.53 1.6-.98 2.18a4.3 4.3 0 0 1-1.67 1.32c-.66.3-1.5.44-2.53.44a7.43 7.43 0 0 1-3.06-.54c-.78-.36-1.46-1-2.04-1.91a6.48 6.48 0 0 1-.86-3.5c0-1.9.5-3.35 1.51-4.37s2.44-1.53 4.28-1.53c1.45 0 2.58.3 3.4.88a5.13 5.13 0 0 1 1.85 2.68l-3.13.7a2.04 2.04 0 0 0-2.03-1.6c-.8-.01-1.42.31-1.84.96a4.12 4.12 0 0 0-.49 2.26c0 1.27.2 2.14.58 2.61.38.47.93.7 1.62.7.68 0 1.2-.18 1.54-.56.34-.38.6-.94.75-1.66Zm3.93-6.77h3.19V19h-3.19V7.55ZM72.19 19h-2.97v-1.34c-.44.55-.89.94-1.34 1.18-.45.23-1 .35-1.66.35-.87 0-1.56-.26-2.06-.78-.5-.53-.74-1.34-.74-2.43V10.7h3.2v4.57c0 .52.09.89.28 1.1.2.22.47.33.81.33.38 0 .7-.14.93-.43.25-.3.37-.82.37-1.57v-4h3.18V19Zm1.15-11.45h3.2v3.97a3.15 3.15 0 0 1 2.43-1c1 0 1.85.36 2.5 1.09.67.72 1 1.77 1 3.12 0 .91-.15 1.71-.45 2.4a3.4 3.4 0 0 1-1.26 1.55c-.53.34-1.12.5-1.78.5a3.3 3.3 0 0 1-1.53-.35 4.02 4.02 0 0 1-1.14-1.06V19h-2.97V7.55Zm3.18 7.28c0 .71.14 1.23.4 1.55.27.32.61.48 1.03.48.38 0 .7-.16.95-.47.26-.32.39-.85.39-1.6 0-.65-.13-1.13-.38-1.44-.25-.3-.56-.46-.92-.46-.43 0-.78.16-1.06.48-.27.32-.4.8-.4 1.46Z" fill="#000"/>
  <defs>
    <clipPath id="a">
      <path fill="#fff" d="M24 24V0H0v24z"/>
    </clipPath>
  </defs>
</svg>
